STARTFONT 2.1
COMMENT Font converted from OTF to BDF.
FONT -FreeType-FreeSans-Medium-R-Normal--16-120-96-96-P-91-ISO10646-1
SIZE 12 96 96
FONTBOUNDINGBOX 48 22 -18 -5
STARTPROPERTIES 19
POINT_SIZE 120
PIXEL_SIZE 16
RESOLUTION_X 96
RESOLUTION_Y 96
FONT_ASCENT 14
FONT_DESCENT 3
AVERAGE_WIDTH 91
SPACING "P"
FOUNDRY "FreeType"
FAMILY_NAME "FreeSans"
CHARSET_REGISTRY "ISO10646"
CHARSET_ENCODING "1"
WEIGHT_NAME "Medium"
SLANT "R"
SETWIDTH_NAME "Normal"
COPYRIGHT "Copyright 2002, 2003, 2005, 2008, 2009, 2010, 2012 GNU Freefont contributors."
_TTF_PSNAME "FreeSans"
_OTF_FONTFILE "FreeSans.ttf"
_GBDFED_INFO "Edited with gbdfed 1.6."
ENDPROPERTIES
CHARS 4472
STARTCHAR char32
ENCODING 32
SWIDTH 22 0
DWIDTH 4 0
BBX 0 0 0 0
BITMAP
ENDCHAR
STARTCHAR char33
ENCODING 33
SWIDTH 28 0
DWIDTH 5 0
BBX 1 12 2 0
BITMAP
80
80
80
80
80
80
80
80
80
00
80
80
ENDCHAR
STARTCHAR char34
ENCODING 34
SWIDTH 28 0
DWIDTH 5 0
BBX 4 4 1 7
BITMAP
B0
B0
A0
80
ENDCHAR
STARTCHAR char35
ENCODING 35
SWIDTH 50 0
DWIDTH 9 0
BBX 9 11 0 0
BITMAP
1300
1200
1200
7F80
3200
3200
2600
FF00
2400
2400
6400
ENDCHAR
STARTCHAR char36
ENCODING 36
SWIDTH 50 0
DWIDTH 9 0
BBX 7 14 1 -2
BITMAP
10
7C
96
92
90
F0
3C
16
12
92
96
7C
10
10
ENDCHAR
STARTCHAR char37
ENCODING 37
SWIDTH 21 0
DWIDTH 14 0
BBX 14 11 0 0
BITMAP
3840
4C40
C480
4480
7900
0100
0278
06CC
0484
08CC
0878
ENDCHAR
STARTCHAR char38
ENCODING 38
SWIDTH 4 0
DWIDTH 11 0
BBX 9 11 1 0
BITMAP
3C00
6400
4400
2C00
3800
7800
CD00
8700
8600
C700
7D80
ENDCHAR
STARTCHAR char39
ENCODING 39
SWIDTH 16 0
DWIDTH 3 0
BBX 1 4 1 7
BITMAP
80
80
80
80
ENDCHAR
STARTCHAR char40
ENCODING 40
SWIDTH 28 0
DWIDTH 5 0
BBX 4 15 1 -3
BITMAP
10
20
60
40
40
C0
C0
80
80
C0
C0
40
40
20
20
ENDCHAR
STARTCHAR char41
ENCODING 41
SWIDTH 28 0
DWIDTH 5 0
BBX 3 15 1 -3
BITMAP
80
80
40
40
60
20
20
20
20
20
20
40
40
40
80
ENDCHAR
STARTCHAR char42
ENCODING 42
SWIDTH 33 0
DWIDTH 6 0
BBX 4 5 1 7
BITMAP
20
20
F0
60
90
ENDCHAR
STARTCHAR char43
ENCODING 43
SWIDTH 50 0
DWIDTH 9 0
BBX 8 8 1 0
BITMAP
10
10
10
10
FF
10
10
10
ENDCHAR
STARTCHAR char44
ENCODING 44
SWIDTH 22 0
DWIDTH 4 0
BBX 2 4 1 -2
BITMAP
C0
C0
40
40
ENDCHAR
STARTCHAR char45
ENCODING 45
SWIDTH 28 0
DWIDTH 5 0
BBX 4 1 1 4
BITMAP
F0
ENDCHAR
STARTCHAR char46
ENCODING 46
SWIDTH 22 0
DWIDTH 4 0
BBX 2 2 1 0
BITMAP
C0
C0
ENDCHAR
STARTCHAR char47
ENCODING 47
SWIDTH 22 0
DWIDTH 4 0
BBX 4 11 0 1
BITMAP
10
10
10
20
20
20
40
40
40
80
80
ENDCHAR
STARTCHAR char48
ENCODING 48
SWIDTH 50 0
DWIDTH 9 0
BBX 7 11 1 0
BITMAP
7C
C4
C6
82
82
82
82
82
86
C4
7C
ENDCHAR
STARTCHAR char49
ENCODING 49
SWIDTH 50 0
DWIDTH 9 0
BBX 4 11 2 0
BITMAP
30
70
F0
30
30
30
30
30
30
30
30
ENDCHAR
STARTCHAR char50
ENCODING 50
SWIDTH 50 0
DWIDTH 9 0
BBX 7 11 1 0
BITMAP
7C
C6
82
82
06
0C
38
60
C0
80
FE
ENDCHAR
STARTCHAR char51
ENCODING 51
SWIDTH 50 0
DWIDTH 9 0
BBX 7 11 1 0
BITMAP
7C
C6
86
06
0C
1C
06
02
82
C6
7C
ENDCHAR
STARTCHAR char52
ENCODING 52
SWIDTH 50 0
DWIDTH 9 0
BBX 8 11 0 0
BITMAP
06
0E
0E
16
26
66
46
FF
06
06
06
ENDCHAR
STARTCHAR char53
ENCODING 53
SWIDTH 50 0
DWIDTH 9 0
BBX 7 11 1 0
BITMAP
7E
40
C0
C0
FC
C6
02
02
82
C6
7C
ENDCHAR
STARTCHAR char54
ENCODING 54
SWIDTH 50 0
DWIDTH 9 0
BBX 7 11 1 0
BITMAP
7C
46
C2
80
BC
C6
82
82
82
C6
7C
ENDCHAR
STARTCHAR char55
ENCODING 55
SWIDTH 50 0
DWIDTH 9 0
BBX 7 11 1 0
BITMAP
FE
02
04
0C
08
10
10
30
20
20
60
ENDCHAR
STARTCHAR char56
ENCODING 56
SWIDTH 50 0
DWIDTH 9 0
BBX 7 11 1 0
BITMAP
7C
C6
86
C6
7C
7C
86
82
82
C6
7C
ENDCHAR
STARTCHAR char57
ENCODING 57
SWIDTH 50 0
DWIDTH 9 0
BBX 7 11 1 0
BITMAP
7C
C4
86
82
86
C6
7A
02
86
C4
78
ENDCHAR
STARTCHAR char58
ENCODING 58
SWIDTH 22 0
DWIDTH 4 0
BBX 2 8 1 0
BITMAP
C0
00
00
00
00
00
C0
C0
ENDCHAR
STARTCHAR char59
ENCODING 59
SWIDTH 22 0
DWIDTH 4 0
BBX 2 11 1 -2
BITMAP
C0
C0
00
00
00
00
00
C0
C0
40
40
ENDCHAR
STARTCHAR char60
ENCODING 60
SWIDTH 50 0
DWIDTH 9 0
BBX 8 8 1 0
BITMAP
01
07
1C
E0
C0
70
0E
03
ENDCHAR
STARTCHAR char61
ENCODING 61
SWIDTH 50 0
DWIDTH 9 0
BBX 8 4 1 2
BITMAP
FF
00
00
FF
ENDCHAR
STARTCHAR char62
ENCODING 62
SWIDTH 50 0
DWIDTH 9 0
BBX 8 7 1 1
BITMAP
C0
38
0E
03
1C
70
80
ENDCHAR
STARTCHAR char63
ENCODING 63
SWIDTH 50 0
DWIDTH 9 0
BBX 7 12 1 0
BITMAP
38
6E
C2
C2
06
0C
18
10
10
00
10
10
ENDCHAR
STARTCHAR char64
ENCODING 64
SWIDTH 32 0
DWIDTH 16 0
BBX 14 14 1 -2
BITMAP
07C0
1CF0
3018
600C
C7EC
8C44
8844
9844
98CC
8998
CEF0
6000
3000
1FC0
ENDCHAR
STARTCHAR char65
ENCODING 65
SWIDTH 4 0
DWIDTH 11 0
BBX 10 12 0 0
BITMAP
0C00
0E00
0A00
1A00
1300
1100
3100
3F80
7F80
60C0
40C0
C040
ENDCHAR
STARTCHAR char66
ENCODING 66
SWIDTH 4 0
DWIDTH 11 0
BBX 9 12 1 0
BITMAP
FC00
FF00
C100
C100
C100
FE00
FF00
C180
C180
C180
C380
FF00
ENDCHAR
STARTCHAR char67
ENCODING 67
SWIDTH 4 0
DWIDTH 11 0
BBX 10 12 1 0
BITMAP
1E00
7700
4180
C080
8000
8000
8000
8000
80C0
C080
6180
3F00
ENDCHAR
STARTCHAR char68
ENCODING 68
SWIDTH 4 0
DWIDTH 11 0
BBX 10 12 1 0
BITMAP
FC00
FF00
C180
C080
C080
C0C0
C0C0
C080
C080
C180
C300
FE00
ENDCHAR
STARTCHAR char69
ENCODING 69
SWIDTH 56 0
DWIDTH 10 0
BBX 9 12 1 0
BITMAP
FF00
FF00
C000
C000
C000
FF00
FF00
C000
C000
C000
C000
FF80
ENDCHAR
STARTCHAR char70
ENCODING 70
SWIDTH 56 0
DWIDTH 10 0
BBX 8 12 1 0
BITMAP
FF
FF
C0
C0
C0
FE
FE
C0
C0
C0
C0
C0
ENDCHAR
STARTCHAR char71
ENCODING 71
SWIDTH 10 0
DWIDTH 12 0
BBX 10 12 1 0
BITMAP
1E00
7B80
40C0
C0C0
8000
8000
87C0
8040
C040
C0C0
61C0
3F40
ENDCHAR
STARTCHAR char72
ENCODING 72
SWIDTH 10 0
DWIDTH 12 0
BBX 9 12 1 0
BITMAP
C080
C080
C080
C080
C080
FF80
FF80
C080
C080
C080
C080
C080
ENDCHAR
STARTCHAR char73
ENCODING 73
SWIDTH 22 0
DWIDTH 4 0
BBX 1 12 2 0
BITMAP
80
80
80
80
80
80
80
80
80
80
80
80
ENDCHAR
STARTCHAR char74
ENCODING 74
SWIDTH 44 0
DWIDTH 8 0
BBX 6 12 1 0
BITMAP
04
04
04
04
04
04
04
04
84
84
8C
F8
ENDCHAR
STARTCHAR char75
ENCODING 75
SWIDTH 4 0
DWIDTH 11 0
BBX 9 12 1 0
BITMAP
C180
C300
C600
CC00
D800
F800
EC00
C400
C600
C300
C180
C180
ENDCHAR
STARTCHAR char76
ENCODING 76
SWIDTH 50 0
DWIDTH 9 0
BBX 8 12 1 0
BITMAP
C0
C0
C0
C0
C0
C0
C0
C0
C0
C0
C0
FF
ENDCHAR
STARTCHAR char77
ENCODING 77
SWIDTH 21 0
DWIDTH 14 0
BBX 11 12 1 0
BITMAP
C060
E060
E0E0
E0A0
F0A0
D1A0
D120
D920
CB20
CA20
CE20
C620
ENDCHAR
STARTCHAR char78
ENCODING 78
SWIDTH 10 0
DWIDTH 12 0
BBX 9 12 1 0
BITMAP
C080
E080
E080
F080
D880
C880
CC80
C480
C680
C380
C180
C180
ENDCHAR
STARTCHAR char79
ENCODING 79
SWIDTH 16 0
DWIDTH 13 0
BBX 11 12 1 0
BITMAP
1E00
3B80
60C0
C040
8060
8060
8060
8060
C060
C0C0
61C0
3F00
ENDCHAR
STARTCHAR char80
ENCODING 80
SWIDTH 4 0
DWIDTH 11 0
BBX 9 12 1 0
BITMAP
FC00
FF00
C180
C180
C180
C300
FE00
C000
C000
C000
C000
C000
ENDCHAR
STARTCHAR char81
ENCODING 81
SWIDTH 16 0
DWIDTH 13 0
BBX 11 13 1 -1
BITMAP
1E00
3B80
60C0
C040
8060
8060
8060
8060
C060
C3C0
6180
3FC0
0040
ENDCHAR
STARTCHAR char82
ENCODING 82
SWIDTH 4 0
DWIDTH 11 0
BBX 9 12 1 0
BITMAP
FE00
FF80
C180
C080
C080
C100
FF00
C180
C180
C080
C080
C080
ENDCHAR
STARTCHAR char83
ENCODING 83
SWIDTH 4 0
DWIDTH 11 0
BBX 9 12 1 0
BITMAP
3C00
6700
C100
C180
C000
7800
1F00
0380
8180
8180
C100
7F00
ENDCHAR
STARTCHAR char84
ENCODING 84
SWIDTH 56 0
DWIDTH 10 0
BBX 10 12 0 0
BITMAP
FFC0
FFC0
0C00
0C00
0C00
0C00
0C00
0C00
0C00
0C00
0C00
0C00
ENDCHAR
STARTCHAR char85
ENCODING 85
SWIDTH 10 0
DWIDTH 12 0
BBX 9 12 1 0
BITMAP
C080
C080
C080
C080
C080
C080
C080
C080
C080
C080
6180
3F00
ENDCHAR
STARTCHAR char86
ENCODING 86
SWIDTH 56 0
DWIDTH 10 0
BBX 10 12 0 0
BITMAP
C0C0
40C0
6080
6180
2180
3100
3300
1300
1A00
0E00
0E00
0C00
ENDCHAR
STARTCHAR char87
ENCODING 87
SWIDTH 27 0
DWIDTH 15 0
BBX 15 12 0 0
BITMAP
C106
4384
4384
628C
628C
26C8
2448
3458
3C78
1C70
1830
1830
ENDCHAR
STARTCHAR char88
ENCODING 88
SWIDTH 4 0
DWIDTH 11 0
BBX 9 12 1 0
BITMAP
8180
C100
6300
2600
3400
1800
1800
3C00
2600
6300
C300
8180
ENDCHAR
STARTCHAR char89
ENCODING 89
SWIDTH 4 0
DWIDTH 11 0
BBX 11 12 0 0
BITMAP
C060
60C0
2080
3180
1B00
0A00
0E00
0400
0400
0400
0400
0400
ENDCHAR
STARTCHAR char90
ENCODING 90
SWIDTH 56 0
DWIDTH 10 0
BBX 9 12 0 0
BITMAP
7F80
7F80
0180
0300
0600
0C00
0C00
1800
3000
6000
6000
FF80
ENDCHAR
STARTCHAR char91
ENCODING 91
SWIDTH 22 0
DWIDTH 4 0
BBX 3 15 1 -3
BITMAP
E0
80
80
80
80
80
80
80
80
80
80
80
80
80
E0
ENDCHAR
STARTCHAR char92
ENCODING 92
SWIDTH 22 0
DWIDTH 4 0
BBX 4 12 0 0
BITMAP
80
80
80
40
40
40
20
20
20
10
10
10
ENDCHAR
STARTCHAR char93
ENCODING 93
SWIDTH 22 0
DWIDTH 4 0
BBX 3 15 0 -3
BITMAP
E0
20
20
20
20
20
20
20
20
20
20
20
20
20
E0
ENDCHAR
STARTCHAR char94
ENCODING 94
SWIDTH 44 0
DWIDTH 8 0
BBX 6 6 1 5
BITMAP
30
70
50
48
88
84
ENDCHAR
STARTCHAR char95
ENCODING 95
SWIDTH 50 0
DWIDTH 9 0
BBX 9 1 0 -3
BITMAP
FF80
ENDCHAR
STARTCHAR char96
ENCODING 96
SWIDTH 22 0
DWIDTH 4 0
BBX 3 3 1 9
BITMAP
80
40
20
ENDCHAR
STARTCHAR char97
ENCODING 97
SWIDTH 50 0
DWIDTH 9 0
BBX 7 9 1 0
BITMAP
30
FC
84
04
7C
C4
84
8C
FE
ENDCHAR
STARTCHAR char98
ENCODING 98
SWIDTH 50 0
DWIDTH 9 0
BBX 7 12 1 0
BITMAP
80
80
80
98
FC
C6
82
82
82
C2
C6
BC
ENDCHAR
STARTCHAR char99
ENCODING 99
SWIDTH 44 0
DWIDTH 8 0
BBX 8 9 0 0
BITMAP
18
3E
42
40
C0
40
43
62
3E
ENDCHAR
STARTCHAR char100
ENCODING 100
SWIDTH 50 0
DWIDTH 9 0
BBX 8 12 0 0
BITMAP
01
01
01
19
3F
63
43
C1
41
43
63
3D
ENDCHAR
STARTCHAR char101
ENCODING 101
SWIDTH 50 0
DWIDTH 9 0
BBX 8 9 0 0
BITMAP
18
3E
43
41
FF
40
41
63
3E
ENDCHAR
STARTCHAR char102
ENCODING 102
SWIDTH 22 0
DWIDTH 4 0
BBX 4 12 0 0
BITMAP
30
20
60
60
F0
60
60
60
60
60
60
60
ENDCHAR
STARTCHAR char103
ENCODING 103
SWIDTH 50 0
DWIDTH 9 0
BBX 8 12 0 -3
BITMAP
18
3D
43
43
C3
43
43
63
3F
03
42
7E
ENDCHAR
STARTCHAR char104
ENCODING 104
SWIDTH 50 0
DWIDTH 9 0
BBX 7 12 1 0
BITMAP
80
80
80
98
FC
C6
86
86
86
86
86
86
ENDCHAR
STARTCHAR char105
ENCODING 105
SWIDTH 22 0
DWIDTH 4 0
BBX 1 12 1 0
BITMAP
80
80
00
00
80
80
80
80
80
80
80
80
ENDCHAR
STARTCHAR char106
ENCODING 106
SWIDTH 22 0
DWIDTH 4 0
BBX 3 15 0 -3
BITMAP
60
60
00
00
60
60
60
60
60
60
60
60
60
60
E0
ENDCHAR
STARTCHAR char107
ENCODING 107
SWIDTH 44 0
DWIDTH 8 0
BBX 7 12 1 0
BITMAP
80
80
80
80
8C
98
B0
F0
D8
8C
8C
86
ENDCHAR
STARTCHAR char108
ENCODING 108
SWIDTH 16 0
DWIDTH 3 0
BBX 1 12 1 0
BITMAP
80
80
80
80
80
80
80
80
80
80
80
80
ENDCHAR
STARTCHAR char109
ENCODING 109
SWIDTH 16 0
DWIDTH 13 0
BBX 11 9 1 0
BITMAP
18C0
FFE0
C620
8420
8420
8420
8420
8420
8420
ENDCHAR
STARTCHAR char110
ENCODING 110
SWIDTH 50 0
DWIDTH 9 0
BBX 7 9 1 0
BITMAP
18
BC
C6
86
86
86
86
86
86
ENDCHAR
STARTCHAR char111
ENCODING 111
SWIDTH 50 0
DWIDTH 9 0
BBX 8 9 0 0
BITMAP
18
3E
63
41
C1
41
43
63
3E
ENDCHAR
STARTCHAR char112
ENCODING 112
SWIDTH 50 0
DWIDTH 9 0
BBX 7 12 1 -3
BITMAP
18
FC
C6
82
82
82
C2
C6
BC
80
80
80
ENDCHAR
STARTCHAR char113
ENCODING 113
SWIDTH 50 0
DWIDTH 9 0
BBX 8 12 0 -3
BITMAP
18
3F
63
43
C1
41
43
63
3D
01
01
01
ENDCHAR
STARTCHAR char114
ENCODING 114
SWIDTH 28 0
DWIDTH 5 0
BBX 4 9 1 0
BITMAP
10
B0
C0
80
80
80
80
80
80
ENDCHAR
STARTCHAR char115
ENCODING 115
SWIDTH 44 0
DWIDTH 8 0
BBX 6 9 1 0
BITMAP
30
FC
84
80
F0
1C
84
84
FC
ENDCHAR
STARTCHAR char116
ENCODING 116
SWIDTH 22 0
DWIDTH 4 0
BBX 4 11 0 0
BITMAP
60
60
60
F0
60
60
60
60
60
60
30
ENDCHAR
STARTCHAR char117
ENCODING 117
SWIDTH 50 0
DWIDTH 9 0
BBX 7 8 1 0
BITMAP
86
86
86
86
86
86
C6
FE
ENDCHAR
STARTCHAR char118
ENCODING 118
SWIDTH 44 0
DWIDTH 8 0
BBX 7 8 0 0
BITMAP
C2
42
66
24
24
3C
18
18
ENDCHAR
STARTCHAR char119
ENCODING 119
SWIDTH 10 0
DWIDTH 12 0
BBX 11 8 0 0
BITMAP
C620
4E60
4A60
6B40
2940
39C0
3180
3180
ENDCHAR
STARTCHAR char120
ENCODING 120
SWIDTH 44 0
DWIDTH 8 0
BBX 6 8 1 0
BITMAP
8C
48
70
30
30
58
C8
84
ENDCHAR
STARTCHAR char121
ENCODING 121
SWIDTH 44 0
DWIDTH 8 0
BBX 7 11 0 -3
BITMAP
C2
46
64
64
2C
38
38
18
10
30
60
ENDCHAR
STARTCHAR char122
ENCODING 122
SWIDTH 44 0
DWIDTH 8 0
BBX 7 8 0 0
BITMAP
7E
04
0C
18
30
20
40
FE
ENDCHAR
STARTCHAR char123
ENCODING 123
SWIDTH 28 0
DWIDTH 5 0
BBX 3 15 1 -3
BITMAP
20
60
40
40
40
40
40
80
C0
40
40
40
40
40
60
ENDCHAR
STARTCHAR char124
ENCODING 124
SWIDTH 22 0
DWIDTH 4 0
BBX 1 14 2 -2
BITMAP
80
80
80
80
80
80
80
80
80
80
80
80
80
80
ENDCHAR
STARTCHAR char125
ENCODING 125
SWIDTH 28 0
DWIDTH 5 0
BBX 4 15 1 -3
BITMAP
80
40
40
40
40
40
60
30
20
60
40
40
40
40
C0
ENDCHAR
STARTCHAR char126
ENCODING 126
SWIDTH 44 0
DWIDTH 8 0
BBX 6 3 1 4
BITMAP
E0
B4
0C
ENDCHAR
STARTCHAR char160
ENCODING 160
SWIDTH 22 0
DWIDTH 4 0
BBX 0 0 0 0
BITMAP
ENDCHAR
STARTCHAR char161
ENCODING 161
SWIDTH 28 0
DWIDTH 5 0
BBX 1 12 2 -4
BITMAP
80
80
00
80
80
80
80
80
80
80
80
80
ENDCHAR
STARTCHAR char162
ENCODING 162
SWIDTH 50 0
DWIDTH 9 0
BBX 7 12 1 -2
BITMAP
10
18
7C
D6
90
90
90
92
D6
7C
10
10
ENDCHAR
STARTCHAR char163
ENCODING 163
SWIDTH 50 0
DWIDTH 9 0
BBX 9 12 0 0
BITMAP
1C00
3E00
6300
4100
6000
6000
FC00
3000
1000
2000
7800
7F80
ENDCHAR
STARTCHAR char164
ENCODING 164
SWIDTH 50 0
DWIDTH 9 0
BBX 7 5 1 3
BITMAP
7E
44
C4
44
7C
ENDCHAR
STARTCHAR char165
ENCODING 165
SWIDTH 50 0
DWIDTH 9 0
BBX 7 11 1 0
BITMAP
82
C6
44
6C
28
FE
10
FE
10
10
10
ENDCHAR
STARTCHAR char166
ENCODING 166
SWIDTH 22 0
DWIDTH 4 0
BBX 1 15 2 -3
BITMAP
80
80
80
80
80
80
80
00
00
80
80
80
80
80
80
ENDCHAR
STARTCHAR char167
ENCODING 167
SWIDTH 50 0
DWIDTH 9 0
BBX 7 15 1 -3
BITMAP
18
7C
44
44
70
D8
8C
86
C2
72
1C
0C
C4
C4
78
ENDCHAR
STARTCHAR char168
ENCODING 168
SWIDTH 28 0
DWIDTH 5 0
BBX 5 1 0 10
BITMAP
D8
ENDCHAR
STARTCHAR char169
ENCODING 169
SWIDTH 16 0
DWIDTH 13 0
BBX 11 11 1 0
BITMAP
3F00
60C0
CE40
9120
B020
A020
A120
9120
DF40
6080
1F00
ENDCHAR
STARTCHAR char170
ENCODING 170
SWIDTH 33 0
DWIDTH 6 0
BBX 4 7 1 5
BITMAP
E0
90
70
90
B0
50
F0
ENDCHAR
STARTCHAR char171
ENCODING 171
SWIDTH 44 0
DWIDTH 8 0
BBX 6 5 1 2
BITMAP
24
4C
90
C8
24
ENDCHAR
STARTCHAR char172
ENCODING 172
SWIDTH 50 0
DWIDTH 9 0
BBX 8 5 1 1
BITMAP
FF
01
01
01
01
ENDCHAR
STARTCHAR char173
ENCODING 173
SWIDTH 28 0
DWIDTH 5 0
BBX 4 1 1 4
BITMAP
F0
ENDCHAR
STARTCHAR char174
ENCODING 174
SWIDTH 16 0
DWIDTH 13 0
BBX 11 11 1 0
BITMAP
3F00
60C0
DE40
9120
9120
9E20
9120
9120
D140
6080
1F00
ENDCHAR
STARTCHAR char175
ENCODING 175
SWIDTH 28 0
DWIDTH 5 0
BBX 5 1 0 10
BITMAP
F8
ENDCHAR
STARTCHAR char176
ENCODING 176
SWIDTH 56 0
DWIDTH 10 0
BBX 5 5 2 6
BITMAP
70
48
88
48
30
ENDCHAR
STARTCHAR char177
ENCODING 177
SWIDTH 50 0
DWIDTH 9 0
BBX 8 10 1 0
BITMAP
10
10
10
10
FF
10
10
10
00
FF
ENDCHAR
STARTCHAR char178
ENCODING 178
SWIDTH 33 0
DWIDTH 6 0
BBX 5 7 0 6
BITMAP
78
48
08
18
60
40
F8
ENDCHAR
STARTCHAR char179
ENCODING 179
SWIDTH 33 0
DWIDTH 6 0
BBX 5 7 0 6
BITMAP
70
C8
08
38
08
88
70
ENDCHAR
STARTCHAR char180
ENCODING 180
SWIDTH 28 0
DWIDTH 5 0
BBX 3 3 1 9
BITMAP
20
40
80
ENDCHAR
STARTCHAR char181
ENCODING 181
SWIDTH 50 0
DWIDTH 9 0
BBX 8 12 1 -4
BITMAP
86
86
86
86
86
86
C6
FF
80
80
80
80
ENDCHAR
STARTCHAR char182
ENCODING 182
SWIDTH 50 0
DWIDTH 9 0
BBX 7 15 1 -3
BITMAP
3E
74
F4
F4
F4
F4
F4
34
14
14
14
14
14
14
14
ENDCHAR
STARTCHAR char183
ENCODING 183
SWIDTH 22 0
DWIDTH 4 0
BBX 2 1 1 4
BITMAP
C0
ENDCHAR
STARTCHAR char184
ENCODING 184
SWIDTH 28 0
DWIDTH 5 0
BBX 4 3 1 -3
BITMAP
40
30
E0
ENDCHAR
STARTCHAR char185
ENCODING 185
SWIDTH 33 0
DWIDTH 6 0
BBX 3 7 1 6
BITMAP
20
E0
20
20
20
20
20
ENDCHAR
STARTCHAR char186
ENCODING 186
SWIDTH 33 0
DWIDTH 6 0
BBX 4 7 1 5
BITMAP
60
90
90
90
90
60
F0
ENDCHAR
STARTCHAR char187
ENCODING 187
SWIDTH 44 0
DWIDTH 8 0
BBX 6 5 1 2
BITMAP
90
4C
24
C8
90
ENDCHAR
STARTCHAR char188
ENCODING 188
SWIDTH 21 0
DWIDTH 14 0
BBX 12 12 1 0
BITMAP
2000
6040
A080
2100
2100
2210
2230
0450
0890
0910
10F0
2010
ENDCHAR
STARTCHAR char189
ENCODING 189
SWIDTH 21 0
DWIDTH 14 0
BBX 12 12 1 0
BITMAP
2000
6080
A080
2100
2200
2260
2490
0490
0810
1060
1080
20F0
ENDCHAR
STARTCHAR char190
ENCODING 190
SWIDTH 21 0
DWIDTH 14 0
BBX 13 12 0 0
BITMAP
3000
4820
4840
3080
0880
8910
7910
0230
0450
0490
0878
1010
ENDCHAR
STARTCHAR char191
ENCODING 191
SWIDTH 50 0
DWIDTH 9 0
BBX 6 12 2 -4
BITMAP
30
30
00
30
30
20
40
80
84
84
CC
78
ENDCHAR
STARTCHAR char192
ENCODING 192
SWIDTH 4 0
DWIDTH 11 0
BBX 10 14 0 0
BITMAP
0C00
0200
0C00
0E00
0A00
1A00
1300
1100
3100
3F80
7F80
60C0
40C0
C040
ENDCHAR
STARTCHAR char193
ENCODING 193
SWIDTH 4 0
DWIDTH 11 0
BBX 10 14 0 0
BITMAP
0600
0800
0C00
0E00
0A00
1A00
1300
1100
3100
3F80
7F80
60C0
40C0
C040
ENDCHAR
STARTCHAR char194
ENCODING 194
SWIDTH 4 0
DWIDTH 11 0
BBX 10 14 0 0
BITMAP
0E00
1300
0C00
0E00
0A00
1A00
1300
1100
3100
3F80
7F80
60C0
40C0
C040
ENDCHAR
STARTCHAR char195
ENCODING 195
SWIDTH 4 0
DWIDTH 11 0
BBX 10 14 0 0
BITMAP
1F00
0000
0C00
0E00
0A00
1A00
1300
1100
3100
3F80
7F80
60C0
40C0
C040
ENDCHAR
STARTCHAR char196
ENCODING 196
SWIDTH 4 0
DWIDTH 11 0
BBX 10 14 0 0
BITMAP
1B00
1B00
0C00
0E00
0A00
1A00
1300
1100
3100
3F80
6080
60C0
40C0
C040
ENDCHAR
STARTCHAR char197
ENCODING 197
SWIDTH 4 0
DWIDTH 11 0
BBX 10 15 0 0
BITMAP
0E00
0A00
0C00
0C00
0E00
0A00
1A00
1300
1100
3100
3F80
7F80
60C0
40C0
C040
ENDCHAR
STARTCHAR char198
ENCODING 198
SWIDTH 32 0
DWIDTH 16 0
BBX 15 12 0 0
BITMAP
07FE
07FE
0C80
0880
1880
10FE
30FE
3F80
3F80
6080
4080
C0FE
ENDCHAR
STARTCHAR char199
ENCODING 199
SWIDTH 4 0
DWIDTH 11 0
BBX 10 15 1 -3
BITMAP
1E00
7300
4180
C080
8000
8000
8000
8000
80C0
C080
6180
3F00
0800
0400
1C00
ENDCHAR
STARTCHAR char200
ENCODING 200
SWIDTH 56 0
DWIDTH 10 0
BBX 9 14 1 0
BITMAP
1800
0400
FF00
FF00
C000
C000
C000
FF00
FF00
C000
C000
C000
C000
FF80
ENDCHAR
STARTCHAR char201
ENCODING 201
SWIDTH 56 0
DWIDTH 10 0
BBX 9 14 1 0
BITMAP
0C00
1000
FF00
FF00
C000
C000
C000
FF00
FF00
C000
C000
C000
C000
FF80
ENDCHAR
STARTCHAR char202
ENCODING 202
SWIDTH 56 0
DWIDTH 10 0
BBX 9 14 1 0
BITMAP
1C00
2600
FF00
FF00
C000
C000
C000
FF00
FF00
C000
C000
C000
C000
FF80
ENDCHAR
STARTCHAR char203
ENCODING 203
SWIDTH 56 0
DWIDTH 10 0
BBX 9 14 1 0
BITMAP
3600
3600
FF00
FF00
C000
C000
C000
FF00
FF00
C000
C000
C000
C000
FF80
ENDCHAR
STARTCHAR char204
ENCODING 204
SWIDTH 22 0
DWIDTH 4 0
BBX 3 14 1 0
BITMAP
C0
60
40
40
40
40
40
40
40
40
40
40
40
40
ENDCHAR
STARTCHAR char205
ENCODING 205
SWIDTH 22 0
DWIDTH 4 0
BBX 3 14 1 0
BITMAP
60
80
40
40
40
40
40
40
40
40
40
40
40
40
ENDCHAR
STARTCHAR char206
ENCODING 206
SWIDTH 28 0
DWIDTH 5 0
BBX 5 14 0 0
BITMAP
70
88
20
20
20
20
20
20
20
20
20
20
20
20
ENDCHAR
STARTCHAR char207
ENCODING 207
SWIDTH 28 0
DWIDTH 5 0
BBX 5 14 0 0
BITMAP
D8
D8
20
20
20
20
20
20
20
20
20
20
20
20
ENDCHAR
STARTCHAR char208
ENCODING 208
SWIDTH 4 0
DWIDTH 11 0
BBX 11 12 0 0
BITMAP
7E00
7F80
60C0
6040
6060
FC60
FC60
6060
6040
60C0
6180
7F00
ENDCHAR
STARTCHAR char209
ENCODING 209
SWIDTH 10 0
DWIDTH 12 0
BBX 9 14 1 0
BITMAP
1A00
2600
C080
E080
E080
F080
D880
C880
CC80
C480
C680
C380
C180
C180
ENDCHAR
STARTCHAR char210
ENCODING 210
SWIDTH 16 0
DWIDTH 13 0
BBX 11 14 1 0
BITMAP
0C00
0400
1E00
3B80
60C0
C040
8060
8060
8060
8060
C060
C0C0
61C0
3F00
ENDCHAR
STARTCHAR char211
ENCODING 211
SWIDTH 16 0
DWIDTH 13 0
BBX 11 14 1 0
BITMAP
0600
0800
1E00
3B80
60C0
C040
8060
8060
8060
8060
C060
C0C0
61C0
3F00
ENDCHAR
STARTCHAR char212
ENCODING 212
SWIDTH 16 0
DWIDTH 13 0
BBX 11 14 1 0
BITMAP
0E00
1300
1E00
3B80
60C0
C040
8060
8060
8060
8060
C060
C0C0
61C0
3F00
ENDCHAR
STARTCHAR char213
ENCODING 213
SWIDTH 16 0
DWIDTH 13 0
BBX 11 14 1 0
BITMAP
1F00
1200
1E00
3B80
60C0
C040
8060
8060
8060
8060
C060
C0C0
61C0
3F00
ENDCHAR
STARTCHAR char214
ENCODING 214
SWIDTH 16 0
DWIDTH 13 0
BBX 11 14 1 0
BITMAP
1B00
1B00
1E00
3B80
60C0
C040
8060
8060
8060
8060
C060
C0C0
61C0
3F00
ENDCHAR
STARTCHAR char215
ENCODING 215
SWIDTH 50 0
DWIDTH 9 0
BBX 6 6 2 1
BITMAP
80
C8
70
30
58
8C
ENDCHAR
STARTCHAR char216
ENCODING 216
SWIDTH 16 0
DWIDTH 13 0
BBX 11 12 1 0
BITMAP
1E20
3BC0
60C0
C140
8260
8460
8860
9860
F060
E0C0
61C0
BF00
ENDCHAR
STARTCHAR char217
ENCODING 217
SWIDTH 10 0
DWIDTH 12 0
BBX 9 14 1 0
BITMAP
1800
0400
C080
C080
C080
C080
C080
C080
C080
C080
C080
C080
6180
3F00
ENDCHAR
STARTCHAR char218
ENCODING 218
SWIDTH 10 0
DWIDTH 12 0
BBX 9 14 1 0
BITMAP
0C00
0800
C080
C080
C080
C080
C080
C080
C080
C080
C080
C080
6180
3F00
ENDCHAR
STARTCHAR char219
ENCODING 219
SWIDTH 10 0
DWIDTH 12 0
BBX 9 14 1 0
BITMAP
1C00
1200
C080
C080
C080
C080
C080
C080
C080
C080
C080
C080
6180
3F00
ENDCHAR
STARTCHAR char220
ENCODING 220
SWIDTH 10 0
DWIDTH 12 0
BBX 9 14 1 0
BITMAP
1600
1600
C080
C080
C080
C080
C080
C080
C080
C080
C080
C080
6180
3F00
ENDCHAR
STARTCHAR char221
ENCODING 221
SWIDTH 4 0
DWIDTH 11 0
BBX 11 14 0 0
BITMAP
0600
0800
C060
60C0
2080
3180
1B00
0A00
0E00
0400
0400
0400
0400
0400
ENDCHAR
STARTCHAR char222
ENCODING 222
SWIDTH 56 0
DWIDTH 10 0
BBX 9 12 1 0
BITMAP
C000
C000
FE00
FF00
C180
C180
C180
C300
FE00
C000
C000
C000
ENDCHAR
STARTCHAR char223
ENCODING 223
SWIDTH 56 0
DWIDTH 10 0
BBX 8 12 1 0
BITMAP
18
7E
C2
C2
C2
DC
C6
C3
C3
C3
C2
DE
ENDCHAR
STARTCHAR char224
ENCODING 224
SWIDTH 50 0
DWIDTH 9 0
BBX 7 12 1 0
BITMAP
60
30
10
30
FC
84
04
7C
C4
84
8C
FE
ENDCHAR
STARTCHAR char225
ENCODING 225
SWIDTH 50 0
DWIDTH 9 0
BBX 7 12 1 0
BITMAP
18
10
20
30
FC
84
04
7C
C4
84
8C
FE
ENDCHAR
STARTCHAR char226
ENCODING 226
SWIDTH 50 0
DWIDTH 9 0
BBX 7 12 1 0
BITMAP
10
28
4C
30
FC
84
04
7C
C4
84
8C
FE
ENDCHAR
STARTCHAR char227
ENCODING 227
SWIDTH 50 0
DWIDTH 9 0
BBX 7 11 1 0
BITMAP
7C
00
30
FC
84
04
7C
C4
84
8C
FE
ENDCHAR
STARTCHAR char228
ENCODING 228
SWIDTH 50 0
DWIDTH 9 0
BBX 7 12 1 0
BITMAP
6C
6C
00
30
FC
84
04
7C
C4
84
8C
FE
ENDCHAR
STARTCHAR char229
ENCODING 229
SWIDTH 50 0
DWIDTH 9 0
BBX 7 12 1 0
BITMAP
38
28
38
30
FC
84
04
7C
C4
84
8C
FE
ENDCHAR
STARTCHAR char230
ENCODING 230
SWIDTH 21 0
DWIDTH 14 0
BBX 12 9 1 0
BITMAP
30C0
FFE0
8610
0410
7FF0
C400
8410
8E30
FBE0
ENDCHAR
STARTCHAR char231
ENCODING 231
SWIDTH 44 0
DWIDTH 8 0
BBX 8 12 0 -3
BITMAP
18
3E
42
40
C0
40
43
62
3E
10
0C
3C
ENDCHAR
STARTCHAR char232
ENCODING 232
SWIDTH 50 0
DWIDTH 9 0
BBX 8 12 0 0
BITMAP
30
18
08
18
3E
43
41
FF
40
41
63
3E
ENDCHAR
STARTCHAR char233
ENCODING 233
SWIDTH 50 0
DWIDTH 9 0
BBX 8 12 0 0
BITMAP
0C
08
10
18
3E
43
41
FF
40
41
63
3E
ENDCHAR
STARTCHAR char234
ENCODING 234
SWIDTH 50 0
DWIDTH 9 0
BBX 8 12 0 0
BITMAP
08
14
26
18
3E
43
41
FF
40
41
63
3E
ENDCHAR
STARTCHAR char235
ENCODING 235
SWIDTH 50 0
DWIDTH 9 0
BBX 8 12 0 0
BITMAP
36
36
00
18
3E
43
41
FF
40
41
63
3E
ENDCHAR
STARTCHAR char236
ENCODING 236
SWIDTH 22 0
DWIDTH 4 0
BBX 3 12 0 0
BITMAP
C0
60
20
00
40
40
40
40
40
40
40
40
ENDCHAR
STARTCHAR char237
ENCODING 237
SWIDTH 22 0
DWIDTH 4 0
BBX 3 12 0 0
BITMAP
20
40
80
00
40
40
40
40
40
40
40
40
ENDCHAR
STARTCHAR char238
ENCODING 238
SWIDTH 22 0
DWIDTH 4 0
BBX 4 12 0 0
BITMAP
60
70
90
00
60
60
60
60
60
60
60
60
ENDCHAR
STARTCHAR char239
ENCODING 239
SWIDTH 22 0
DWIDTH 4 0
BBX 4 12 0 0
BITMAP
90
90
00
00
60
60
60
60
60
60
60
60
ENDCHAR
STARTCHAR char240
ENCODING 240
SWIDTH 50 0
DWIDTH 9 0
BBX 8 12 0 0
BITMAP
20
3C
6C
1E
3E
63
41
C1
41
43
63
3E
ENDCHAR
STARTCHAR char241
ENCODING 241
SWIDTH 50 0
DWIDTH 9 0
BBX 7 11 1 0
BITMAP
7C
00
18
BC
C6
86
86
86
86
86
86
ENDCHAR
STARTCHAR char242
ENCODING 242
SWIDTH 50 0
DWIDTH 9 0
BBX 8 12 0 0
BITMAP
30
18
08
18
3E
63
41
C1
41
43
63
3E
ENDCHAR
STARTCHAR char243
ENCODING 243
SWIDTH 50 0
DWIDTH 9 0
BBX 8 12 0 0
BITMAP
0C
08
10
18
3E
63
41
C1
41
43
63
3E
ENDCHAR
STARTCHAR char244
ENCODING 244
SWIDTH 50 0
DWIDTH 9 0
BBX 8 12 0 0
BITMAP
18
1C
24
18
3E
63
41
C1
41
43
63
3E
ENDCHAR
STARTCHAR char245
ENCODING 245
SWIDTH 50 0
DWIDTH 9 0
BBX 8 11 0 0
BITMAP
3E
00
18
3E
63
41
C1
41
43
63
3E
ENDCHAR
STARTCHAR char246
ENCODING 246
SWIDTH 50 0
DWIDTH 9 0
BBX 8 12 0 0
BITMAP
36
36
00
18
3E
63
41
C1
41
43
63
3E
ENDCHAR
STARTCHAR char247
ENCODING 247
SWIDTH 50 0
DWIDTH 9 0
BBX 8 8 1 0
BITMAP
18
18
00
00
FF
00
18
18
ENDCHAR
STARTCHAR char248
ENCODING 248
SWIDTH 50 0
DWIDTH 9 0
BBX 8 9 0 0
BITMAP
18
3F
43
47
C9
D1
63
62
7E
ENDCHAR
STARTCHAR char249
ENCODING 249
SWIDTH 50 0
DWIDTH 9 0
BBX 7 12 1 0
BITMAP
60
30
10
00
86
86
86
86
86
86
C6
FE
ENDCHAR
STARTCHAR char250
ENCODING 250
SWIDTH 50 0
DWIDTH 9 0
BBX 7 12 1 0
BITMAP
08
10
20
00
86
86
86
86
86
86
C6
FE
ENDCHAR
STARTCHAR char251
ENCODING 251
SWIDTH 50 0
DWIDTH 9 0
BBX 7 12 1 0
BITMAP
30
28
48
00
86
86
86
86
86
86
C6
FE
ENDCHAR
STARTCHAR char252
ENCODING 252
SWIDTH 50 0
DWIDTH 9 0
BBX 7 12 1 0
BITMAP
6C
6C
00
00
86
86
86
86
86
86
C6
FE
ENDCHAR
STARTCHAR char253
ENCODING 253
SWIDTH 44 0
DWIDTH 8 0
BBX 7 15 0 -3
BITMAP
0C
08
10
00
C2
46
64
64
2C
38
38
18
10
30
60
ENDCHAR
STARTCHAR char254
ENCODING 254
SWIDTH 50 0
DWIDTH 9 0
BBX 7 14 1 -3
BITMAP
80
80
98
FC
C6
82
82
82
C2
C6
BC
80
80
80
ENDCHAR
STARTCHAR char255
ENCODING 255
SWIDTH 44 0
DWIDTH 8 0
BBX 7 15 0 -3
BITMAP
24
24
00
00
C2
46
64
64
2C
38
38
18
10
30
60
ENDCHAR
STARTCHAR char256
ENCODING 256
SWIDTH 4 0
DWIDTH 11 0
BBX 10 14 0 0
BITMAP
1F00
0000
0C00
0E00
0A00
1A00
1300
1100
3100
3F80
7F80
60C0
40C0
C040
ENDCHAR
STARTCHAR char257
ENCODING 257
SWIDTH 50 0
DWIDTH 9 0
BBX 7 11 1 0
BITMAP
7C
00
30
FC
84
04
7C
C4
84
8C
FE
ENDCHAR
STARTCHAR char258
ENCODING 258
SWIDTH 4 0
DWIDTH 11 0
BBX 10 14 0 0
BITMAP
1B00
0E00
0C00
0E00
0A00
1A00
1300
1100
3100
3F80
7F80
60C0
40C0
C040
ENDCHAR
STARTCHAR char259
ENCODING 259
SWIDTH 50 0
DWIDTH 9 0
BBX 7 12 1 0
BITMAP
44
7C
10
30
FC
84
04
7C
C4
84
8C
FE
ENDCHAR
STARTCHAR char260
ENCODING 260
SWIDTH 4 0
DWIDTH 11 0
BBX 11 15 0 -3
BITMAP
0C00
0E00
0A00
1A00
1300
1100
3180
3F80
3F80
60C0
40C0
C040
00C0
0080
00E0
ENDCHAR
STARTCHAR char261
ENCODING 261
SWIDTH 50 0
DWIDTH 9 0
BBX 8 12 1 -3
BITMAP
30
FC
84
04
7C
C4
84
8C
FE
02
04
07
ENDCHAR
STARTCHAR char262
ENCODING 262
SWIDTH 4 0
DWIDTH 11 0
BBX 10 14 1 0
BITMAP
0600
0800
1E00
7700
4180
C080
8000
8000
8000
8000
80C0
C080
6180
3F00
ENDCHAR
STARTCHAR char263
ENCODING 263
SWIDTH 44 0
DWIDTH 8 0
BBX 8 12 0 0
BITMAP
0C
08
10
18
3E
42
40
C0
40
43
62
3E
ENDCHAR
STARTCHAR char264
ENCODING 264
SWIDTH 4 0
DWIDTH 11 0
BBX 10 14 1 0
BITMAP
0C00
1200
1E00
7700
4180
C080
8000
8000
8000
8000
80C0
C080
6180
3F00
ENDCHAR
STARTCHAR char265
ENCODING 265
SWIDTH 44 0
DWIDTH 8 0
BBX 8 11 0 0
BITMAP
18
24
18
3E
42
40
C0
40
43
62
3E
ENDCHAR
STARTCHAR char266
ENCODING 266
SWIDTH 4 0
DWIDTH 11 0
BBX 10 14 1 0
BITMAP
0C00
0000
1E00
7700
4180
C080
8000
8000
8000
8000
80C0
C080
6180
3F00
ENDCHAR
STARTCHAR char267
ENCODING 267
SWIDTH 44 0
DWIDTH 8 0
BBX 8 12 0 0
BITMAP
18
18
00
18
3E
42
40
C0
40
43
62
3E
ENDCHAR
STARTCHAR char268
ENCODING 268
SWIDTH 4 0
DWIDTH 11 0
BBX 10 15 1 0
BITMAP
1200
0C00
0000
1E00
7700
4180
C080
8000
8000
8000
8000
80C0
C080
6180
3F00
ENDCHAR
STARTCHAR char269
ENCODING 269
SWIDTH 44 0
DWIDTH 8 0
BBX 8 12 0 0
BITMAP
24
14
18
18
3E
42
40
C0
40
43
62
3E
ENDCHAR
STARTCHAR char270
ENCODING 270
SWIDTH 4 0
DWIDTH 11 0
BBX 10 15 1 0
BITMAP
2200
1C00
0000
FC00
FF00
C180
C080
C080
C0C0
C0C0
C080
C080
C180
C300
FE00
ENDCHAR
STARTCHAR char271
ENCODING 271
SWIDTH 4 0
DWIDTH 11 0
BBX 10 12 0 0
BITMAP
0140
0140
0140
1900
3F00
6300
4300
C100
4100
4300
6300
3D00
ENDCHAR
STARTCHAR char272
ENCODING 272
SWIDTH 4 0
DWIDTH 11 0
BBX 11 12 0 0
BITMAP
7E00
7F80
60C0
6040
6060
FC60
FC60
6060
6040
60C0
6180
7F00
ENDCHAR
STARTCHAR char273
ENCODING 273
SWIDTH 50 0
DWIDTH 9 0
BBX 8 12 0 0
BITMAP
01
01
07
19
3F
63
43
C1
41
43
63
3D
ENDCHAR
STARTCHAR char274
ENCODING 274
SWIDTH 56 0
DWIDTH 10 0
BBX 9 14 1 0
BITMAP
3E00
0000
FF00
FF00
C000
C000
C000
FF00
FF00
C000
C000
C000
C000
FF80
ENDCHAR
STARTCHAR char275
ENCODING 275
SWIDTH 50 0
DWIDTH 9 0
BBX 8 11 0 0
BITMAP
3E
00
18
3E
43
41
FF
40
41
63
3E
ENDCHAR
STARTCHAR char276
ENCODING 276
SWIDTH 56 0
DWIDTH 10 0
BBX 9 14 1 0
BITMAP
3600
1C00
FF00
FF00
C000
C000
C000
FF00
FF00
C000
C000
C000
C000
FF80
ENDCHAR
STARTCHAR char277
ENCODING 277
SWIDTH 50 0
DWIDTH 9 0
BBX 8 12 0 0
BITMAP
22
3E
00
18
3E
43
41
FF
40
41
63
3E
ENDCHAR
STARTCHAR char278
ENCODING 278
SWIDTH 56 0
DWIDTH 10 0
BBX 9 14 1 0
BITMAP
0800
0000
FF00
FF00
C000
C000
C000
FF00
FF00
C000
C000
C000
C000
FF80
ENDCHAR
STARTCHAR char279
ENCODING 279
SWIDTH 50 0
DWIDTH 9 0
BBX 8 12 0 0
BITMAP
08
08
00
18
3E
43
41
FF
40
41
63
3E
ENDCHAR
STARTCHAR char280
ENCODING 280
SWIDTH 56 0
DWIDTH 10 0
BBX 9 15 1 -3
BITMAP
FF00
FF00
C000
C000
C000
FF00
FF00
C000
C000
C000
C000
FF80
0100
0200
0380
ENDCHAR
STARTCHAR char281
ENCODING 281
SWIDTH 50 0
DWIDTH 9 0
BBX 8 12 0 -3
BITMAP
18
3E
43
41
FF
40
41
63
3E
04
08
0F
ENDCHAR
STARTCHAR char282
ENCODING 282
SWIDTH 56 0
DWIDTH 10 0
BBX 9 15 1 0
BITMAP
2200
1C00
0000
FF00
FF00
C000
C000
C000
FF00
FF00
C000
C000
C000
C000
FF80
ENDCHAR
STARTCHAR char283
ENCODING 283
SWIDTH 50 0
DWIDTH 9 0
BBX 8 12 0 0
BITMAP
22
14
08
18
3E
43
41
FF
40
41
63
3E
ENDCHAR
STARTCHAR char284
ENCODING 284
SWIDTH 10 0
DWIDTH 12 0
BBX 10 14 1 0
BITMAP
0E00
1300
1E00
7B80
40C0
C0C0
8000
8000
87C0
8040
C040
C0C0
61C0
3F40
ENDCHAR
STARTCHAR char285
ENCODING 285
SWIDTH 50 0
DWIDTH 9 0
BBX 8 15 0 -3
BITMAP
08
14
36
18
3D
43
43
C3
43
43
63
3F
03
42
7E
ENDCHAR
STARTCHAR char286
ENCODING 286
SWIDTH 10 0
DWIDTH 12 0
BBX 10 14 1 0
BITMAP
1200
0C00
1E00
7B80
40C0
C0C0
8000
8000
87C0
8040
C040
C0C0
61C0
3F40
ENDCHAR
STARTCHAR char287
ENCODING 287
SWIDTH 50 0
DWIDTH 9 0
BBX 8 15 0 -3
BITMAP
22
3C
00
18
3D
43
43
C3
43
43
63
3F
03
42
7E
ENDCHAR
STARTCHAR char288
ENCODING 288
SWIDTH 10 0
DWIDTH 12 0
BBX 10 14 1 0
BITMAP
0C00
0000
1E00
7B80
40C0
C0C0
8000
8000
87C0
8040
C040
C0C0
61C0
3F40
ENDCHAR
STARTCHAR char289
ENCODING 289
SWIDTH 50 0
DWIDTH 9 0
BBX 8 15 0 -3
BITMAP
18
18
00
18
3D
43
43
C3
43
43
63
3F
03
42
7E
ENDCHAR
STARTCHAR char290
ENCODING 290
SWIDTH 10 0
DWIDTH 12 0
BBX 10 17 1 -5
BITMAP
1E00
7B80
40C0
C0C0
8000
8000
87C0
8040
C040
C0C0
61C0
3F40
0000
0C00
0C00
0400
0800
ENDCHAR
STARTCHAR char291
ENCODING 291
SWIDTH 50 0
DWIDTH 9 0
BBX 8 15 0 -3
BITMAP
08
18
18
18
3D
43
43
C3
43
43
63
3F
03
42
7E
ENDCHAR
STARTCHAR char292
ENCODING 292
SWIDTH 10 0
DWIDTH 12 0
BBX 9 14 1 0
BITMAP
1C00
1200
C080
C080
C080
C080
C080
FF80
FF80
C080
C080
C080
C080
C080
ENDCHAR
STARTCHAR char293
ENCODING 293
SWIDTH 50 0
DWIDTH 9 0
BBX 7 14 1 0
BITMAP
38
24
80
80
80
98
FC
C6
86
86
86
86
86
86
ENDCHAR
STARTCHAR char294
ENCODING 294
SWIDTH 10 0
DWIDTH 12 0
BBX 11 12 0 0
BITMAP
6040
6040
6040
FFE0
6040
7FC0
7FC0
6040
6040
6040
6040
6040
ENDCHAR
STARTCHAR char295
ENCODING 295
SWIDTH 50 0
DWIDTH 9 0
BBX 7 12 1 0
BITMAP
C0
C0
E0
D8
FE
C6
C2
C2
C2
C2
C2
C2
ENDCHAR
STARTCHAR char296
ENCODING 296
SWIDTH 28 0
DWIDTH 5 0
BBX 5 14 0 0
BITMAP
E8
90
20
20
20
20
20
20
20
20
20
20
20
20
ENDCHAR
STARTCHAR char297
ENCODING 297
SWIDTH 22 0
DWIDTH 4 0
BBX 4 11 0 0
BITMAP
F0
00
00
60
60
60
60
60
60
60
60
ENDCHAR
STARTCHAR char298
ENCODING 298
SWIDTH 22 0
DWIDTH 4 0
BBX 4 14 0 0
BITMAP
F0
00
20
20
20
20
20
20
20
20
20
20
20
20
ENDCHAR
STARTCHAR char299
ENCODING 299
SWIDTH 22 0
DWIDTH 4 0
BBX 4 11 0 0
BITMAP
F0
00
00
60
60
60
60
60
60
60
60
ENDCHAR
STARTCHAR char300
ENCODING 300
SWIDTH 28 0
DWIDTH 5 0
BBX 5 14 0 0
BITMAP
D8
70
20
20
20
20
20
20
20
20
20
20
20
20
ENDCHAR
STARTCHAR char301
ENCODING 301
SWIDTH 22 0
DWIDTH 4 0
BBX 5 12 0 0
BITMAP
88
F0
00
00
60
60
60
60
60
60
60
60
ENDCHAR
STARTCHAR char302
ENCODING 302
SWIDTH 22 0
DWIDTH 4 0
BBX 4 15 0 -3
BITMAP
20
20
20
20
20
20
20
20
20
20
20
20
40
C0
70
ENDCHAR
STARTCHAR char303
ENCODING 303
SWIDTH 22 0
DWIDTH 4 0
BBX 3 15 0 -3
BITMAP
60
60
00
00
60
60
60
60
60
60
60
60
40
80
E0
ENDCHAR
STARTCHAR char304
ENCODING 304
SWIDTH 22 0
DWIDTH 4 0
BBX 1 14 2 0
BITMAP
80
80
80
80
80
80
80
80
80
80
80
80
80
80
ENDCHAR
STARTCHAR char305
ENCODING 305
SWIDTH 22 0
DWIDTH 4 0
BBX 1 8 1 0
BITMAP
80
80
80
80
80
80
80
80
ENDCHAR
STARTCHAR char306
ENCODING 306
SWIDTH 10 0
DWIDTH 12 0
BBX 9 12 2 0
BITMAP
8180
8180
8180
8180
8180
8180
8180
8180
B180
B180
B180
9F00
ENDCHAR
STARTCHAR char307
ENCODING 307
SWIDTH 33 0
DWIDTH 6 0
BBX 4 15 1 -3
BITMAP
90
90
00
00
90
90
90
90
90
90
90
90
10
10
30
ENDCHAR
STARTCHAR char308
ENCODING 308
SWIDTH 44 0
DWIDTH 8 0
BBX 7 14 1 0
BITMAP
0E
12
04
04
04
04
04
04
04
04
84
84
8C
F8
ENDCHAR
STARTCHAR char309
ENCODING 309
SWIDTH 22 0
DWIDTH 4 0
BBX 4 15 0 -3
BITMAP
60
60
90
00
60
60
60
60
60
60
60
60
60
60
E0
ENDCHAR
STARTCHAR char310
ENCODING 310
SWIDTH 4 0
DWIDTH 11 0
BBX 9 17 1 -5
BITMAP
C180
C300
C600
CC00
D800
F800
EC00
C400
C600
C300
C180
C180
0000
0800
0800
0800
0800
ENDCHAR
STARTCHAR char311
ENCODING 311
SWIDTH 44 0
DWIDTH 8 0
BBX 7 17 1 -5
BITMAP
80
80
80
80
8C
98
B0
F0
D8
8C
8C
86
00
10
10
10
10
ENDCHAR
STARTCHAR char312
ENCODING 312
SWIDTH 44 0
DWIDTH 8 0
BBX 6 8 1 0
BITMAP
8C
98
B0
C0
E0
B0
88
84
ENDCHAR
STARTCHAR char313
ENCODING 313
SWIDTH 50 0
DWIDTH 9 0
BBX 8 14 1 0
BITMAP
30
40
C0
C0
C0
C0
C0
C0
C0
C0
C0
C0
C0
FF
ENDCHAR
STARTCHAR char314
ENCODING 314
SWIDTH 22 0
DWIDTH 4 0
BBX 3 14 0 0
BITMAP
60
80
40
40
40
40
40
40
40
40
40
40
40
40
ENDCHAR
STARTCHAR char315
ENCODING 315
SWIDTH 50 0
DWIDTH 9 0
BBX 8 17 1 -5
BITMAP
C0
C0
C0
C0
C0
C0
C0
C0
C0
C0
C0
FF
00
18
18
08
10
ENDCHAR
STARTCHAR char316
ENCODING 316
SWIDTH 16 0
DWIDTH 3 0
BBX 2 17 1 -5
BITMAP
80
80
80
80
80
80
80
80
80
80
80
80
00
C0
C0
40
80
ENDCHAR
STARTCHAR char317
ENCODING 317
SWIDTH 50 0
DWIDTH 9 0
BBX 8 12 1 0
BITMAP
D8
C8
D0
C0
C0
C0
C0
C0
C0
C0
C0
FF
ENDCHAR
STARTCHAR char318
ENCODING 318
SWIDTH 28 0
DWIDTH 5 0
BBX 4 12 1 0
BITMAP
B0
90
A0
80
80
80
80
80
80
80
80
80
ENDCHAR
STARTCHAR char319
ENCODING 319
SWIDTH 50 0
DWIDTH 9 0
BBX 8 12 1 0
BITMAP
C0
C0
C0
C0
C0
C0
C0
C2
C0
C0
C0
FF
ENDCHAR
STARTCHAR char320
ENCODING 320
SWIDTH 33 0
DWIDTH 6 0
BBX 4 12 1 0
BITMAP
80
80
80
80
80
80
80
90
80
80
80
80
ENDCHAR
STARTCHAR char321
ENCODING 321
SWIDTH 56 0
DWIDTH 10 0
BBX 9 12 0 0
BITMAP
2000
2000
2000
2000
2400
3800
7000
E000
2000
2000
2000
3F80
ENDCHAR
STARTCHAR char322
ENCODING 322
SWIDTH 22 0
DWIDTH 4 0
BBX 4 12 0 0
BITMAP
60
60
60
60
60
70
60
E0
60
60
60
60
ENDCHAR
STARTCHAR char323
ENCODING 323
SWIDTH 10 0
DWIDTH 12 0
BBX 9 14 1 0
BITMAP
0600
0800
C080
E080
E080
F080
D880
C880
CC80
C480
C680
C380
C180
C180
ENDCHAR
STARTCHAR char324
ENCODING 324
SWIDTH 50 0
DWIDTH 9 0
BBX 7 12 1 0
BITMAP
08
10
20
18
BC
C6
86
86
86
86
86
86
ENDCHAR
STARTCHAR char325
ENCODING 325
SWIDTH 10 0
DWIDTH 12 0
BBX 9 17 1 -5
BITMAP
C080
E080
E080
F080
D880
C880
CC80
C480
C680
C380
C180
C180
0000
0800
0800
0800
0800
ENDCHAR
STARTCHAR char326
ENCODING 326
SWIDTH 50 0
DWIDTH 9 0
BBX 7 14 1 -5
BITMAP
18
BC
C6
86
86
86
86
86
86
00
10
10
10
10
ENDCHAR
STARTCHAR char327
ENCODING 327
SWIDTH 10 0
DWIDTH 12 0
BBX 9 15 1 0
BITMAP
1200
1C00
0000
C080
E080
E080
F080
D880
C880
CC80
C480
C680
C380
C180
C180
ENDCHAR
STARTCHAR char328
ENCODING 328
SWIDTH 50 0
DWIDTH 9 0
BBX 7 12 1 0
BITMAP
44
28
10
18
BC
C6
86
86
86
86
86
86
ENDCHAR
STARTCHAR char329
ENCODING 329
SWIDTH 56 0
DWIDTH 10 0
BBX 8 11 1 0
BITMAP
80
80
86
3F
31
21
21
21
21
21
21
ENDCHAR
STARTCHAR char330
ENCODING 330
SWIDTH 4 0
DWIDTH 11 0
BBX 9 12 1 0
BITMAP
DE00
E300
C180
C180
C080
C080
C080
C080
C180
C180
C300
DE00
ENDCHAR
STARTCHAR char331
ENCODING 331
SWIDTH 50 0
DWIDTH 9 0
BBX 7 12 1 -3
BITMAP
18
BC
C6
86
86
86
86
86
86
06
06
0C
ENDCHAR
STARTCHAR char332
ENCODING 332
SWIDTH 16 0
DWIDTH 13 0
BBX 11 14 1 0
BITMAP
1E00
0000
1E00
3B80
60C0
C040
8060
8060
8060
8060
C060
C0C0
61C0
3F00
ENDCHAR
STARTCHAR char333
ENCODING 333
SWIDTH 50 0
DWIDTH 9 0
BBX 8 11 0 0
BITMAP
3E
00
18
3E
63
41
C1
41
43
63
3E
ENDCHAR
STARTCHAR char334
ENCODING 334
SWIDTH 16 0
DWIDTH 13 0
BBX 11 14 1 0
BITMAP
1200
0E00
1E00
3B80
60C0
C040
8060
8060
8060
8060
C060
C0C0
61C0
3F00
ENDCHAR
STARTCHAR char335
ENCODING 335
SWIDTH 50 0
DWIDTH 9 0
BBX 8 12 0 0
BITMAP
22
3C
00
18
3E
63
41
C1
41
43
63
3E
ENDCHAR
STARTCHAR char336
ENCODING 336
SWIDTH 16 0
DWIDTH 13 0
BBX 11 14 1 0
BITMAP
0F00
1200
1E00
3B80
60C0
C040
8060
8060
8060
8060
C060
C0C0
61C0
3F00
ENDCHAR
STARTCHAR char337
ENCODING 337
SWIDTH 50 0
DWIDTH 9 0
BBX 8 12 0 0
BITMAP
1B
16
04
18
3E
63
41
C1
41
43
63
3E
ENDCHAR
STARTCHAR char338
ENCODING 338
SWIDTH 32 0
DWIDTH 16 0
BBX 14 12 1 0
BITMAP
1DFC
77FC
C180
C180
8180
81FC
81FC
8180
8180
C180
6380
3FFC
ENDCHAR
STARTCHAR char339
ENCODING 339
SWIDTH 27 0
DWIDTH 15 0
BBX 14 9 0 0
BITMAP
1830
3EF8
638C
4104
C1FC
4100
4304
638C
3EF8
ENDCHAR
STARTCHAR char340
ENCODING 340
SWIDTH 4 0
DWIDTH 11 0
BBX 9 14 1 0
BITMAP
0C00
1000
FE00
FF80
C180
C080
C080
C100
FF00
C180
C180
C080
C080
C080
ENDCHAR
STARTCHAR char341
ENCODING 341
SWIDTH 28 0
DWIDTH 5 0
BBX 4 12 1 0
BITMAP
30
20
40
10
B0
C0
80
80
80
80
80
80
ENDCHAR
STARTCHAR char342
ENCODING 342
SWIDTH 4 0
DWIDTH 11 0
BBX 9 17 1 -5
BITMAP
FE00
FF80
C180
C080
C080
C100
FF00
C180
C180
C080
C080
C080
0000
0C00
0C00
0400
0800
ENDCHAR
STARTCHAR char343
ENCODING 343
SWIDTH 28 0
DWIDTH 5 0
BBX 4 14 1 -5
BITMAP
10
B0
C0
80
80
80
80
80
80
00
C0
C0
40
80
ENDCHAR
STARTCHAR char344
ENCODING 344
SWIDTH 4 0
DWIDTH 11 0
BBX 9 15 1 0
BITMAP
3200
1C00
0000
FE00
FF80
C180
C080
C080
C100
FF00
C180
C180
C080
C080
C080
ENDCHAR
STARTCHAR char345
ENCODING 345
SWIDTH 28 0
DWIDTH 5 0
BBX 4 12 1 0
BITMAP
90
60
60
10
B0
C0
80
80
80
80
80
80
ENDCHAR
STARTCHAR char346
ENCODING 346
SWIDTH 4 0
DWIDTH 11 0
BBX 9 14 1 0
BITMAP
0C00
1000
3C00
6700
C100
C180
C000
7800
1F00
0380
8180
8180
C100
7F00
ENDCHAR
STARTCHAR char347
ENCODING 347
SWIDTH 44 0
DWIDTH 8 0
BBX 6 12 1 0
BITMAP
18
10
20
30
FC
84
80
F0
1C
84
84
FC
ENDCHAR
STARTCHAR char348
ENCODING 348
SWIDTH 4 0
DWIDTH 11 0
BBX 9 14 1 0
BITMAP
1C00
2600
3C00
6700
C100
C180
C000
7800
1F00
0380
8180
8180
C100
7F00
ENDCHAR
STARTCHAR char349
ENCODING 349
SWIDTH 44 0
DWIDTH 8 0
BBX 6 12 1 0
BITMAP
30
30
48
30
FC
84
80
F0
1C
84
84
FC
ENDCHAR
STARTCHAR char350
ENCODING 350
SWIDTH 4 0
DWIDTH 11 0
BBX 9 15 1 -3
BITMAP
3C00
6700
C100
C180
C000
7800
1F00
0380
8180
8180
C180
7F00
1000
1C00
3C00
ENDCHAR
STARTCHAR char351
ENCODING 351
SWIDTH 44 0
DWIDTH 8 0
BBX 6 12 1 -3
BITMAP
30
FC
84
80
F0
1C
84
84
FC
20
10
70
ENDCHAR
STARTCHAR char352
ENCODING 352
SWIDTH 4 0
DWIDTH 11 0
BBX 9 15 1 0
BITMAP
2600
1C00
0000
3C00
6700
C100
C180
C000
7800
1F00
0380
8180
8180
C100
7F00
ENDCHAR
STARTCHAR char353
ENCODING 353
SWIDTH 44 0
DWIDTH 8 0
BBX 6 12 1 0
BITMAP
48
70
30
30
FC
84
80
F0
1C
84
84
FC
ENDCHAR
STARTCHAR char354
ENCODING 354
SWIDTH 56 0
DWIDTH 10 0
BBX 10 15 0 -3
BITMAP
FFC0
FFC0
0C00
0C00
0C00
0C00
0C00
0C00
0C00
0C00
0C00
0C00
0800
0E00
1E00
ENDCHAR
STARTCHAR char355
ENCODING 355
SWIDTH 28 0
DWIDTH 5 0
BBX 5 15 0 -4
BITMAP
60
60
60
F0
60
60
60
60
60
60
30
20
38
08
70
ENDCHAR
STARTCHAR char356
ENCODING 356
SWIDTH 56 0
DWIDTH 10 0
BBX 10 15 0 0
BITMAP
1200
1C00
0000
FFC0
FFC0
0C00
0C00
0C00
0C00
0C00
0C00
0C00
0C00
0C00
0C00
ENDCHAR
STARTCHAR char357
ENCODING 357
SWIDTH 33 0
DWIDTH 6 0
BBX 6 12 0 0
BITMAP
0C
64
68
60
F0
60
60
60
60
60
60
30
ENDCHAR
STARTCHAR char358
ENCODING 358
SWIDTH 56 0
DWIDTH 10 0
BBX 10 12 0 0
BITMAP
FFC0
FFC0
0C00
0C00
0C00
3F00
0C00
0C00
0C00
0C00
0C00
0C00
ENDCHAR
STARTCHAR char359
ENCODING 359
SWIDTH 28 0
DWIDTH 5 0
BBX 4 11 0 0
BITMAP
20
20
20
F0
20
20
F0
20
20
20
30
ENDCHAR
STARTCHAR char360
ENCODING 360
SWIDTH 10 0
DWIDTH 12 0
BBX 9 14 1 0
BITMAP
1A00
2600
C080
C080
C080
C080
C080
C080
C080
C080
C080
C080
6180
3F00
ENDCHAR
STARTCHAR char361
ENCODING 361
SWIDTH 50 0
DWIDTH 9 0
BBX 7 11 1 0
BITMAP
7C
00
00
86
86
86
86
86
86
C6
FE
ENDCHAR
STARTCHAR char362
ENCODING 362
SWIDTH 10 0
DWIDTH 12 0
BBX 9 14 1 0
BITMAP
1E00
0000
C080
C080
C080
C080
C080
C080
C080
C080
C080
C080
6180
3F00
ENDCHAR
STARTCHAR char363
ENCODING 363
SWIDTH 50 0
DWIDTH 9 0
BBX 7 11 1 0
BITMAP
7C
00
00
86
86
86
86
86
86
C6
FE
ENDCHAR
STARTCHAR char364
ENCODING 364
SWIDTH 10 0
DWIDTH 12 0
BBX 9 14 1 0
BITMAP
1200
0C00
C080
C080
C080
C080
C080
C080
C080
C080
C080
C080
6180
3F00
ENDCHAR
STARTCHAR char365
ENCODING 365
SWIDTH 50 0
DWIDTH 9 0
BBX 7 12 1 0
BITMAP
44
78
10
00
86
86
86
86
86
86
C6
FE
ENDCHAR
STARTCHAR char366
ENCODING 366
SWIDTH 10 0
DWIDTH 12 0
BBX 9 15 1 0
BITMAP
1C00
1600
0C00
C080
C080
C080
C080
C080
C080
C080
C080
C080
C080
6180
3F00
ENDCHAR
STARTCHAR char367
ENCODING 367
SWIDTH 50 0
DWIDTH 9 0
BBX 7 12 1 0
BITMAP
38
28
38
00
86
86
86
86
86
86
C6
FE
ENDCHAR
STARTCHAR char368
ENCODING 368
SWIDTH 10 0
DWIDTH 12 0
BBX 9 14 1 0
BITMAP
1B00
1400
C080
C080
C080
C080
C080
C080
C080
C080
C080
C080
6180
3F00
ENDCHAR
STARTCHAR char369
ENCODING 369
SWIDTH 50 0
DWIDTH 9 0
BBX 7 12 1 0
BITMAP
34
28
48
00
86
86
86
86
86
86
C6
FE
ENDCHAR
STARTCHAR char370
ENCODING 370
SWIDTH 10 0
DWIDTH 12 0
BBX 9 15 1 -3
BITMAP
C080
C080
C080
C080
C080
C080
C080
C080
C080
C080
6180
3F00
0200
0400
0780
ENDCHAR
STARTCHAR char371
ENCODING 371
SWIDTH 50 0
DWIDTH 9 0
BBX 7 11 1 -3
BITMAP
86
86
86
86
86
86
C6
FE
04
08
0E
ENDCHAR
STARTCHAR char372
ENCODING 372
SWIDTH 27 0
DWIDTH 15 0
BBX 15 14 0 0
BITMAP
0380
0440
C106
4384
4384
628C
628C
26C8
2448
3458
3C78
1C70
1830
1830
ENDCHAR
STARTCHAR char373
ENCODING 373
SWIDTH 10 0
DWIDTH 12 0
BBX 11 12 0 0
BITMAP
0600
0E00
0900
0000
C620
4E60
4A60
6B40
2940
39C0
3180
3180
ENDCHAR
STARTCHAR char374
ENCODING 374
SWIDTH 4 0
DWIDTH 11 0
BBX 11 14 0 0
BITMAP
0E00
1100
C060
60C0
2080
3180
1B00
0A00
0E00
0400
0400
0400
0400
0400
ENDCHAR
STARTCHAR char375
ENCODING 375
SWIDTH 44 0
DWIDTH 8 0
BBX 7 15 0 -3
BITMAP
18
18
24
00
C2
46
64
64
2C
38
38
18
10
30
60
ENDCHAR
STARTCHAR char376
ENCODING 376
SWIDTH 4 0
DWIDTH 11 0
BBX 11 14 0 0
BITMAP
1B00
1B00
C060
60C0
2080
3180
1B00
0A00
0E00
0400
0400
0400
0400
0400
ENDCHAR
STARTCHAR char377
ENCODING 377
SWIDTH 56 0
DWIDTH 10 0
BBX 9 14 0 0
BITMAP
0600
0800
7F80
7F80
0180
0300
0600
0C00
0C00
1800
3000
6000
6000
FF80
ENDCHAR
STARTCHAR char378
ENCODING 378
SWIDTH 44 0
DWIDTH 8 0
BBX 7 12 0 0
BITMAP
0C
08
10
00
7E
04
0C
18
30
20
40
FE
ENDCHAR
STARTCHAR char379
ENCODING 379
SWIDTH 56 0
DWIDTH 10 0
BBX 9 14 0 0
BITMAP
0C00
0C00
7F80
7F80
0180
0300
0600
0C00
0C00
1800
3000
6000
6000
FF80
ENDCHAR
STARTCHAR char380
ENCODING 380
SWIDTH 44 0
DWIDTH 8 0
BBX 7 12 0 0
BITMAP
18
18
00
00
7E
04
0C
18
30
20
40
FE
ENDCHAR
STARTCHAR char381
ENCODING 381
SWIDTH 56 0
DWIDTH 10 0
BBX 9 15 0 0
BITMAP
1200
0E00
0000
7F80
7F80
0180
0300
0600
0C00
0C00
1800
3000
6000
6000
FF80
ENDCHAR
STARTCHAR char382
ENCODING 382
SWIDTH 44 0
DWIDTH 8 0
BBX 7 12 0 0
BITMAP
24
3C
18
00
7E
04
0C
18
30
20
40
FE
ENDCHAR
STARTCHAR char383
ENCODING 383
SWIDTH 22 0
DWIDTH 4 0
BBX 4 12 0 0
BITMAP
30
20
60
60
E0
60
60
60
60
60
60
60
ENDCHAR
STARTCHAR char384
ENCODING 384
SWIDTH 50 0
DWIDTH 9 0
BBX 8 12 1 0
BITMAP
C0
C0
F0
D8
FE
C2
C3
C3
C3
C3
E6
FC
ENDCHAR
STARTCHAR char385
ENCODING 385
SWIDTH 16 0
DWIDTH 13 0
BBX 12 12 1 0
BITMAP
7F80
FFE0
9820
D820
D820
1FC0
1FE0
1830
1830
1830
1860
1FC0
ENDCHAR
STARTCHAR char386
ENCODING 386
SWIDTH 4 0
DWIDTH 11 0
BBX 9 12 1 0
BITMAP
FF00
FF00
C000
C000
C000
FE00
C300
C180
C180
C180
C300
FF00
ENDCHAR
STARTCHAR char387
ENCODING 387
SWIDTH 50 0
DWIDTH 9 0
BBX 7 12 1 0
BITMAP
FC
FC
80
98
FC
C6
82
82
82
C2
C6
BC
ENDCHAR
STARTCHAR char388
ENCODING 388
SWIDTH 4 0
DWIDTH 11 0
BBX 11 12 0 0
BITMAP
3000
7000
F000
7000
3000
3F80
30C0
3060
3060
3060
30C0
3F80
ENDCHAR
STARTCHAR char389
ENCODING 389
SWIDTH 50 0
DWIDTH 9 0
BBX 9 12 0 0
BITMAP
6000
6000
E000
6C00
7F00
6180
6180
6080
6080
6180
7100
7F00
ENDCHAR
STARTCHAR char390
ENCODING 390
SWIDTH 4 0
DWIDTH 11 0
BBX 10 12 1 0
BITMAP
3C00
7700
C180
8080
80C0
00C0
00C0
00C0
0080
C180
4300
7E00
ENDCHAR
STARTCHAR char391
ENCODING 391
SWIDTH 10 0
DWIDTH 12 0
BBX 11 12 1 0
BITMAP
1E20
77E0
4180
C080
8000
8000
8000
8000
80C0
C080
6180
3F00
ENDCHAR
STARTCHAR char392
ENCODING 392
SWIDTH 50 0
DWIDTH 9 0
BBX 9 9 0 0
BITMAP
1980
3F00
4300
4000
C000
4000
4300
6200
3E00
ENDCHAR
STARTCHAR char393
ENCODING 393
SWIDTH 4 0
DWIDTH 11 0
BBX 11 12 0 0
BITMAP
7E00
7F80
60C0
6040
6060
FC60
FC60
6060
6040
60C0
6180
7F00
ENDCHAR
STARTCHAR char394
ENCODING 394
SWIDTH 21 0
DWIDTH 14 0
BBX 12 12 1 0
BITMAP
7F80
FFE0
9830
D830
D810
1810
1810
1810
1810
1830
1860
1FC0
ENDCHAR
STARTCHAR char395
ENCODING 395
SWIDTH 4 0
DWIDTH 11 0
BBX 8 12 1 0
BITMAP
7F
7F
01
01
01
7F
C1
81
81
81
C1
7F
ENDCHAR
STARTCHAR char396
ENCODING 396
SWIDTH 50 0
DWIDTH 9 0
BBX 8 12 0 0
BITMAP
3F
3F
01
19
7D
63
43
C1
41
43
63
3D
ENDCHAR
STARTCHAR char397
ENCODING 397
SWIDTH 50 0
DWIDTH 9 0
BBX 8 12 0 -3
BITMAP
1C
7E
43
41
C1
41
43
3E
18
0C
06
7F
ENDCHAR
STARTCHAR char398
ENCODING 398
SWIDTH 56 0
DWIDTH 10 0
BBX 9 12 0 0
BITMAP
7F80
7F80
0180
0180
0180
7F80
7F80
0180
0180
0180
0180
FF80
ENDCHAR
STARTCHAR char399
ENCODING 399
SWIDTH 4 0
DWIDTH 11 0
BBX 10 12 1 0
BITMAP
3C00
7700
C180
C080
00C0
00C0
00C0
FFC0
8080
C180
4300
7E00
ENDCHAR
STARTCHAR char400
ENCODING 400
SWIDTH 56 0
DWIDTH 10 0
BBX 9 12 1 0
BITMAP
3C00
6700
C100
C100
C000
7000
7800
C000
8180
8180
C300
7E00
ENDCHAR
STARTCHAR char401
ENCODING 401
SWIDTH 56 0
DWIDTH 10 0
BBX 9 15 0 -3
BITMAP
7F80
7F80
6000
6000
6000
7F80
7F80
6000
6000
6000
6000
6000
6000
6000
E000
ENDCHAR
STARTCHAR char402
ENCODING 402
SWIDTH 22 0
DWIDTH 4 0
BBX 4 15 0 -3
BITMAP
30
20
60
60
F0
60
60
60
60
60
60
60
60
60
E0
ENDCHAR
STARTCHAR char403
ENCODING 403
SWIDTH 16 0
DWIDTH 13 0
BBX 12 12 1 0
BITMAP
1E30
7BF0
40C0
C0C0
8000
8000
87C0
8040
C040
C0C0
61C0
3F40
ENDCHAR
STARTCHAR char404
ENCODING 404
SWIDTH 4 0
DWIDTH 11 0
BBX 11 12 0 0
BITMAP
C060
60C0
2080
3180
1B00
0A00
0E00
0400
0E00
0A00
0A00
0E00
ENDCHAR
STARTCHAR char405
ENCODING 405
SWIDTH 21 0
DWIDTH 14 0
BBX 12 12 1 0
BITMAP
8000
8000
8000
9800
FC00
C660
8630
8610
8610
8630
8620
87C0
ENDCHAR
STARTCHAR char406
ENCODING 406
SWIDTH 22 0
DWIDTH 4 0
BBX 3 12 1 0
BITMAP
80
80
80
80
80
80
80
80
80
80
80
E0
ENDCHAR
STARTCHAR char407
ENCODING 407
SWIDTH 33 0
DWIDTH 6 0
BBX 6 12 0 0
BITMAP
30
30
30
30
30
FC
FC
30
30
30
30
30
ENDCHAR
STARTCHAR char408
ENCODING 408
SWIDTH 4 0
DWIDTH 11 0
BBX 9 12 1 0
BITMAP
C000
C380
C600
CC00
D800
F800
EC00
C400
C600
C300
C180
C180
ENDCHAR
STARTCHAR char409
ENCODING 409
SWIDTH 44 0
DWIDTH 8 0
BBX 7 12 1 0
BITMAP
60
C0
80
80
8C
98
B0
F0
D8
8C
8C
86
ENDCHAR
STARTCHAR char410
ENCODING 410
SWIDTH 33 0
DWIDTH 6 0
BBX 5 12 0 0
BITMAP
20
20
20
20
20
F8
F8
20
20
20
20
20
ENDCHAR
STARTCHAR char411
ENCODING 411
SWIDTH 50 0
DWIDTH 9 0
BBX 8 12 0 0
BITMAP
60
7C
10
78
58
18
3C
24
64
66
42
C3
ENDCHAR
STARTCHAR char412
ENCODING 412
SWIDTH 21 0
DWIDTH 14 0
BBX 12 12 1 0
BITMAP
C630
C630
C630
C630
C630
C630
C630
C630
C630
C630
CE70
7BF0
ENDCHAR
STARTCHAR char413
ENCODING 413
SWIDTH 10 0
DWIDTH 12 0
BBX 10 15 0 -3
BITMAP
6040
7040
7040
7840
6C40
6440
6640
6240
6340
61C0
60C0
60C0
6000
6000
E000
ENDCHAR
STARTCHAR char414
ENCODING 414
SWIDTH 50 0
DWIDTH 9 0
BBX 7 12 1 -3
BITMAP
18
BC
C6
86
86
86
86
86
86
06
06
06
ENDCHAR
STARTCHAR char415
ENCODING 415
SWIDTH 16 0
DWIDTH 13 0
BBX 11 12 1 0
BITMAP
1E00
3B80
60C0
C040
8060
8060
FFE0
8060
C060
C0C0
61C0
3F00
ENDCHAR
STARTCHAR char416
ENCODING 416
SWIDTH 16 0
DWIDTH 13 0
BBX 12 12 1 1
BITMAP
1E30
3BF0
60C0
C040
8060
8060
8060
8060
C060
C0C0
61C0
3F00
ENDCHAR
STARTCHAR char417
ENCODING 417
SWIDTH 50 0
DWIDTH 9 0
BBX 9 10 0 0
BITMAP
0080
1880
3F80
6300
4100
C100
4100
4300
6300
3E00
ENDCHAR
STARTCHAR char418
ENCODING 418
SWIDTH 32 0
DWIDTH 16 0
BBX 14 12 1 0
BITMAP
1E78
3BCC
60CC
C04C
806C
806C
806C
806C
C06C
C0CC
61CC
3F0C
ENDCHAR
STARTCHAR char419
ENCODING 419
SWIDTH 10 0
DWIDTH 12 0
BBX 11 12 0 -3
BITMAP
1880
3F40
6360
4160
C160
4160
4360
6360
3E60
0060
0060
0060
ENDCHAR
STARTCHAR char420
ENCODING 420
SWIDTH 16 0
DWIDTH 13 0
BBX 12 12 1 0
BITMAP
7F80
FFE0
9820
D830
D820
1860
1FC0
1800
1800
1800
1800
1800
ENDCHAR
STARTCHAR char421
ENCODING 421
SWIDTH 50 0
DWIDTH 9 0
BBX 7 15 1 -3
BITMAP
60
C0
80
98
FC
C6
82
82
82
C2
C6
BC
80
80
80
ENDCHAR
STARTCHAR char422
ENCODING 422
SWIDTH 56 0
DWIDTH 10 0
BBX 9 14 1 -2
BITMAP
C000
C000
FE00
FF00
C180
C180
C180
C300
FE00
C100
C100
C100
0180
0180
ENDCHAR
STARTCHAR char423
ENCODING 423
SWIDTH 4 0
DWIDTH 11 0
BBX 9 12 1 0
BITMAP
3E00
6700
C100
C180
0100
0F00
7800
C000
8080
8180
C300
7E00
ENDCHAR
STARTCHAR char424
ENCODING 424
SWIDTH 44 0
DWIDTH 8 0
BBX 6 9 1 0
BITMAP
30
FC
84
0C
7C
E0
84
84
FC
ENDCHAR
STARTCHAR char425
ENCODING 425
SWIDTH 56 0
DWIDTH 10 0
BBX 9 12 0 0
BITMAP
7F80
7F80
6000
3000
1800
1800
0C00
1800
3000
6000
6000
FF80
ENDCHAR
STARTCHAR char426
ENCODING 426
SWIDTH 33 0
DWIDTH 6 0
BBX 5 15 0 -3
BITMAP
60
90
90
F0
10
10
10
10
10
10
10
10
10
10
18
ENDCHAR
STARTCHAR char427
ENCODING 427
SWIDTH 22 0
DWIDTH 4 0
BBX 4 14 0 -3
BITMAP
60
60
60
F0
60
60
60
60
60
60
30
10
10
70
ENDCHAR
STARTCHAR char428
ENCODING 428
SWIDTH 56 0
DWIDTH 10 0
BBX 10 12 0 0
BITMAP
7FC0
FFC0
CC00
EC00
6C00
0C00
0C00
0C00
0C00
0C00
0C00
0C00
ENDCHAR
STARTCHAR char429
ENCODING 429
SWIDTH 28 0
DWIDTH 5 0
BBX 4 12 0 0
BITMAP
30
20
60
60
F0
60
60
60
60
60
60
30
ENDCHAR
STARTCHAR char430
ENCODING 430
SWIDTH 56 0
DWIDTH 10 0
BBX 10 15 0 -3
BITMAP
FFC0
FFC0
0C00
0C00
0C00
0C00
0C00
0C00
0C00
0C00
0C00
0C00
0C00
0C00
0E00
ENDCHAR
STARTCHAR char431
ENCODING 431
SWIDTH 10 0
DWIDTH 12 0
BBX 11 13 1 1
BITMAP
0020
C0E0
C0C0
C080
C080
C080
C080
C080
C080
C080
C080
6180
3F00
ENDCHAR
STARTCHAR char432
ENCODING 432
SWIDTH 56 0
DWIDTH 10 0
BBX 9 10 1 0
BITMAP
0180
0180
8700
8600
8600
8600
8600
8600
C600
FE00
ENDCHAR
STARTCHAR char433
ENCODING 433
SWIDTH 10 0
DWIDTH 12 0
BBX 10 12 1 0
BITMAP
F3C0
F3C0
6180
40C0
C040
8040
8040
8040
8040
C0C0
6180
1F00
ENDCHAR
STARTCHAR char434
ENCODING 434
SWIDTH 4 0
DWIDTH 11 0
BBX 9 12 1 0
BITMAP
C200
C300
C180
C180
C080
C080
C080
C080
C080
C180
4300
7E00
ENDCHAR
STARTCHAR char435
ENCODING 435
SWIDTH 10 0
DWIDTH 12 0
BBX 11 12 0 0
BITMAP
C060
60E0
2080
3180
1B00
0A00
0E00
0400
0400
0400
0400
0400
ENDCHAR
STARTCHAR char436
ENCODING 436
SWIDTH 56 0
DWIDTH 10 0
BBX 10 15 0 -3
BITMAP
00C0
0180
0300
0300
C200
4600
6400
6400
2C00
3800
3800
1800
1000
3000
6000
ENDCHAR
STARTCHAR char437
ENCODING 437
SWIDTH 56 0
DWIDTH 10 0
BBX 9 12 0 0
BITMAP
7F80
7F80
0180
0300
0600
3F00
3F00
1800
3000
6000
6000
FF80
ENDCHAR
STARTCHAR char438
ENCODING 438
SWIDTH 44 0
DWIDTH 8 0
BBX 7 8 0 0
BITMAP
7E
04
0C
7C
30
20
40
FE
ENDCHAR
STARTCHAR char439
ENCODING 439
SWIDTH 56 0
DWIDTH 10 0
BBX 8 12 1 0
BITMAP
FF
FF
03
06
0C
1C
07
01
01
81
C3
7E
ENDCHAR
STARTCHAR char440
ENCODING 440
SWIDTH 56 0
DWIDTH 10 0
BBX 9 12 0 0
BITMAP
FF80
FF80
6000
3000
1800
1C00
7000
4000
4000
4080
6180
3F00
ENDCHAR
STARTCHAR char441
ENCODING 441
SWIDTH 44 0
DWIDTH 8 0
BBX 8 10 0 -2
BITMAP
7E
20
10
18
78
40
C0
41
63
3E
ENDCHAR
STARTCHAR char442
ENCODING 442
SWIDTH 44 0
DWIDTH 8 0
BBX 7 11 1 -3
BITMAP
FC
08
18
30
3C
06
06
04
F8
84
FC
ENDCHAR
STARTCHAR char443
ENCODING 443
SWIDTH 50 0
DWIDTH 9 0
BBX 7 11 1 0
BITMAP
7C
C6
82
82
06
6C
3C
64
C0
80
FE
ENDCHAR
STARTCHAR char446
ENCODING 446
SWIDTH 44 0
DWIDTH 8 0
BBX 6 11 1 0
BITMAP
20
20
20
78
30
30
0C
04
84
84
78
ENDCHAR
STARTCHAR char447
ENCODING 447
SWIDTH 50 0
DWIDTH 9 0
BBX 7 12 1 -3
BITMAP
0C
BE
C2
82
82
86
8C
98
B0
C0
80
80
ENDCHAR
STARTCHAR char448
ENCODING 448
SWIDTH 22 0
DWIDTH 4 0
BBX 1 14 2 -2
BITMAP
80
80
80
80
80
80
80
80
80
80
80
80
80
80
ENDCHAR
STARTCHAR char449
ENCODING 449
SWIDTH 33 0
DWIDTH 6 0
BBX 2 15 2 -3
BITMAP
40
C0
C0
C0
C0
C0
C0
C0
C0
C0
C0
C0
C0
C0
C0
ENDCHAR
STARTCHAR char450
ENCODING 450
SWIDTH 50 0
DWIDTH 9 0
BBX 8 15 1 -3
BITMAP
10
10
10
10
10
10
FF
10
10
FF
10
10
10
10
10
ENDCHAR
STARTCHAR char451
ENCODING 451
SWIDTH 22 0
DWIDTH 4 0
BBX 1 12 2 0
BITMAP
80
80
80
80
80
80
80
80
80
00
80
80
ENDCHAR
STARTCHAR char452
ENCODING 452
SWIDTH 55 0
DWIDTH 20 0
BBX 19 15 1 0
BITMAP
000C80
000700
000000
FC3FE0
FF3FE0
C180C0
C08080
C08180
C0C300
C0C600
C08400
C08C00
C19800
C33000
FE3FE0
ENDCHAR
STARTCHAR char453
ENCODING 453
SWIDTH 49 0
DWIDTH 19 0
BBX 17 12 1 0
BITMAP
FC0900
FF0700
C18600
C08000
C09F80
C0C180
C0C300
C08600
C08C00
C18800
C31000
FE3F80
ENDCHAR
STARTCHAR char454
ENCODING 454
SWIDTH 38 0
DWIDTH 17 0
BBX 16 12 0 0
BITMAP
0112
0114
010C
1900
3F3F
6302
4304
C10C
4118
4330
6360
3D7F
ENDCHAR
STARTCHAR char455
ENCODING 455
SWIDTH 38 0
DWIDTH 17 0
BBX 15 12 1 0
BITMAP
C006
C006
C006
C006
C006
C006
C006
C006
C0C6
C0C6
C0C4
FF7C
ENDCHAR
STARTCHAR char456
ENCODING 456
SWIDTH 10 0
DWIDTH 12 0
BBX 11 15 1 -3
BITMAP
C060
C060
C000
C000
C060
C060
C060
C060
C060
C060
C060
FF60
0060
0060
00C0
ENDCHAR
STARTCHAR char457
ENCODING 457
SWIDTH 39 0
DWIDTH 7 0
BBX 5 15 1 -3
BITMAP
88
88
80
80
88
88
88
88
88
88
88
88
08
08
38
ENDCHAR
STARTCHAR char458
ENCODING 458
SWIDTH 49 0
DWIDTH 19 0
BBX 17 12 1 0
BITMAP
C08080
E08080
E08080
F08080
D88080
C88080
CC8080
C48080
C69080
C39080
C19180
C19F00
ENDCHAR
STARTCHAR char459
ENCODING 459
SWIDTH 27 0
DWIDTH 15 0
BBX 13 15 1 -3
BITMAP
C088
E088
E080
F080
D888
C888
CC88
C488
C688
C388
C188
C188
0008
0008
0038
ENDCHAR
STARTCHAR char460
ENCODING 460
SWIDTH 10 0
DWIDTH 12 0
BBX 10 15 1 -3
BITMAP
0040
0040
0000
1800
BC40
C640
8640
8640
8640
8640
8640
8640
0040
0040
00C0
ENDCHAR
STARTCHAR char461
ENCODING 461
SWIDTH 4 0
DWIDTH 11 0
BBX 10 15 0 0
BITMAP
1300
0E00
0000
0C00
0E00
0A00
1A00
1300
1100
3100
3F80
7F80
60C0
40C0
C040
ENDCHAR
STARTCHAR char462
ENCODING 462
SWIDTH 50 0
DWIDTH 9 0
BBX 7 12 1 0
BITMAP
44
28
30
30
FC
84
04
7C
C4
84
8C
FE
ENDCHAR
STARTCHAR char463
ENCODING 463
SWIDTH 28 0
DWIDTH 5 0
BBX 5 15 0 0
BITMAP
88
70
00
20
20
20
20
20
20
20
20
20
20
20
20
ENDCHAR
STARTCHAR char464
ENCODING 464
SWIDTH 22 0
DWIDTH 4 0
BBX 4 12 0 0
BITMAP
90
70
60
00
60
60
60
60
60
60
60
60
ENDCHAR
STARTCHAR char465
ENCODING 465
SWIDTH 16 0
DWIDTH 13 0
BBX 11 15 1 0
BITMAP
1200
0E00
0000
1E00
3B80
60C0
C040
8060
8060
8060
8060
C060
C0C0
61C0
3F00
ENDCHAR
STARTCHAR char466
ENCODING 466
SWIDTH 50 0
DWIDTH 9 0
BBX 8 12 0 0
BITMAP
26
14
18
18
3E
63
41
C1
41
43
63
3E
ENDCHAR
STARTCHAR char467
ENCODING 467
SWIDTH 10 0
DWIDTH 12 0
BBX 9 15 1 0
BITMAP
1200
1C00
0000
C080
C080
C080
C080
C080
C080
C080
C080
C080
C080
6180
3F00
ENDCHAR
STARTCHAR char468
ENCODING 468
SWIDTH 50 0
DWIDTH 9 0
BBX 7 12 1 0
BITMAP
44
28
30
00
86
86
86
86
86
86
C6
FE
ENDCHAR
STARTCHAR char469
ENCODING 469
SWIDTH 10 0
DWIDTH 12 0
BBX 9 15 1 0
BITMAP
1E00
1600
1600
C080
C080
C080
C080
C080
C080
C080
C080
C080
C080
6180
3F00
ENDCHAR
STARTCHAR char470
ENCODING 470
SWIDTH 50 0
DWIDTH 9 0
BBX 7 13 1 0
BITMAP
7C
00
6C
6C
00
86
86
86
86
86
86
C6
FE
ENDCHAR
STARTCHAR char471
ENCODING 471
SWIDTH 10 0
DWIDTH 12 0
BBX 9 15 1 0
BITMAP
0600
0800
1600
C080
C080
C080
C080
C080
C080
C080
C080
C080
C080
6180
3F00
ENDCHAR
STARTCHAR char472
ENCODING 472
SWIDTH 50 0
DWIDTH 9 0
BBX 7 14 1 0
BITMAP
0C
10
00
6C
00
00
86
86
86
86
86
86
C6
FE
ENDCHAR
STARTCHAR char473
ENCODING 473
SWIDTH 10 0
DWIDTH 12 0
BBX 9 16 1 0
BITMAP
1200
1C00
0000
1600
C080
C080
C080
C080
C080
C080
C080
C080
C080
C080
6180
3F00
ENDCHAR
STARTCHAR char474
ENCODING 474
SWIDTH 50 0
DWIDTH 9 0
BBX 7 14 1 0
BITMAP
28
30
00
6C
6C
00
86
86
86
86
86
86
C6
FE
ENDCHAR
STARTCHAR char475
ENCODING 475
SWIDTH 10 0
DWIDTH 12 0
BBX 9 15 1 0
BITMAP
1800
0400
1600
C080
C080
C080
C080
C080
C080
C080
C080
C080
C080
6180
3F00
ENDCHAR
STARTCHAR char476
ENCODING 476
SWIDTH 50 0
DWIDTH 9 0
BBX 7 14 1 0
BITMAP
60
30
00
6C
6C
00
86
86
86
86
86
86
C6
FE
ENDCHAR
STARTCHAR char477
ENCODING 477
SWIDTH 50 0
DWIDTH 9 0
BBX 8 9 0 0
BITMAP
18
7E
43
01
FF
7F
43
62
3E
ENDCHAR
STARTCHAR char478
ENCODING 478
SWIDTH 4 0
DWIDTH 11 0
BBX 10 15 0 0
BITMAP
1F00
1B00
1B00
0C00
0E00
0A00
1A00
1300
1100
3100
3F80
7F80
60C0
40C0
C040
ENDCHAR
STARTCHAR char479
ENCODING 479
SWIDTH 50 0
DWIDTH 9 0
BBX 7 13 1 0
BITMAP
7C
00
6C
6C
30
FC
84
04
7C
C4
84
8C
FE
ENDCHAR
STARTCHAR char480
ENCODING 480
SWIDTH 4 0
DWIDTH 11 0
BBX 10 15 0 0
BITMAP
1F00
0400
0400
0C00
0E00
0A00
1A00
1300
1100
3100
3F80
7F80
60C0
40C0
C040
ENDCHAR
STARTCHAR char481
ENCODING 481
SWIDTH 50 0
DWIDTH 9 0
BBX 7 13 1 0
BITMAP
7C
00
10
10
30
FC
84
04
7C
C4
84
8C
FE
ENDCHAR
STARTCHAR char482
ENCODING 482
SWIDTH 32 0
DWIDTH 16 0
BBX 15 14 0 0
BITMAP
00F0
0000
07FE
07FE
0C80
0880
1880
10FE
30FE
3F80
3F80
6080
4080
C0FE
ENDCHAR
STARTCHAR char483
ENCODING 483
SWIDTH 21 0
DWIDTH 14 0
BBX 12 11 1 0
BITMAP
0F00
0000
30C0
FFE0
8610
0410
7FF0
C400
8410
8E30
FBE0
ENDCHAR
STARTCHAR char484
ENCODING 484
SWIDTH 10 0
DWIDTH 12 0
BBX 11 12 1 0
BITMAP
1E00
7B80
40C0
C0C0
8000
8000
87C0
8040
C7E0
C0C0
61C0
3F40
ENDCHAR
STARTCHAR char485
ENCODING 485
SWIDTH 50 0
DWIDTH 9 0
BBX 8 12 0 -3
BITMAP
18
3D
43
43
C3
43
43
63
3F
03
4F
7E
ENDCHAR
STARTCHAR char486
ENCODING 486
SWIDTH 10 0
DWIDTH 12 0
BBX 10 15 1 0
BITMAP
1200
0E00
0000
1E00
7B80
40C0
C0C0
8000
8000
87C0
8040
C040
C0C0
61C0
3F40
ENDCHAR
STARTCHAR char487
ENCODING 487
SWIDTH 50 0
DWIDTH 9 0
BBX 8 15 0 -3
BITMAP
24
3C
18
18
3D
43
43
C3
43
43
63
3F
03
42
7E
ENDCHAR
STARTCHAR char488
ENCODING 488
SWIDTH 4 0
DWIDTH 11 0
BBX 9 15 1 0
BITMAP
1200
1C00
0000
C180
C300
C600
CC00
D800
F800
EC00
C400
C600
C300
C180
C180
ENDCHAR
STARTCHAR char489
ENCODING 489
SWIDTH 44 0
DWIDTH 8 0
BBX 7 14 1 0
BITMAP
68
30
80
80
80
80
8C
98
B0
F0
D8
8C
8C
86
ENDCHAR
STARTCHAR char490
ENCODING 490
SWIDTH 16 0
DWIDTH 13 0
BBX 11 16 1 -4
BITMAP
1E00
3B80
60C0
C040
8060
8060
8060
8060
C060
C0C0
61C0
3F00
0800
1000
1800
0400
ENDCHAR
STARTCHAR char491
ENCODING 491
SWIDTH 50 0
DWIDTH 9 0
BBX 8 13 0 -4
BITMAP
18
3E
63
41
C1
41
43
63
3E
10
20
30
08
ENDCHAR
STARTCHAR char492
ENCODING 492
SWIDTH 16 0
DWIDTH 13 0
BBX 11 18 1 -4
BITMAP
1E00
0000
1E00
3B80
60C0
C040
8060
8060
8060
8060
C060
C0C0
61C0
3F00
0800
1000
1800
0400
ENDCHAR
STARTCHAR char493
ENCODING 493
SWIDTH 50 0
DWIDTH 9 0
BBX 8 14 0 -4
BITMAP
3E
18
3E
63
41
C1
41
43
63
3E
10
20
30
08
ENDCHAR
STARTCHAR char494
ENCODING 494
SWIDTH 56 0
DWIDTH 10 0
BBX 8 15 1 0
BITMAP
24
1C
00
FF
FF
03
06
0C
1C
07
01
01
81
C3
7E
ENDCHAR
STARTCHAR char495
ENCODING 495
SWIDTH 44 0
DWIDTH 8 0
BBX 8 14 0 -2
BITMAP
24
1C
18
00
7E
06
0C
18
1E
03
03
C3
43
3E
ENDCHAR
STARTCHAR char496
ENCODING 496
SWIDTH 22 0
DWIDTH 4 0
BBX 4 14 0 -3
BITMAP
B0
60
00
40
40
40
40
40
40
40
40
40
40
C0
ENDCHAR
STARTCHAR char497
ENCODING 497
SWIDTH 4 0
DWIDTH 21 0
BBX 19 12 1 0
BITMAP
FC1FE0
FF1FE0
C18060
C080C0
C08180
C0C300
C0C300
C08600
C08C00
C19800
C31000
FE3FE0
ENDCHAR
STARTCHAR char498
ENCODING 498
SWIDTH 49 0
DWIDTH 19 0
BBX 17 12 1 0
BITMAP
FC0000
FF0000
C18000
C08000
C09F80
C0C180
C0C300
C08600
C08C00
C18800
C31000
FE1F80
ENDCHAR
STARTCHAR char499
ENCODING 499
SWIDTH 38 0
DWIDTH 17 0
BBX 16 12 0 0
BITMAP
0100
0100
0100
1900
3F3F
6302
4306
C10C
4118
4330
6320
3D7F
ENDCHAR
STARTCHAR char500
ENCODING 500
SWIDTH 10 0
DWIDTH 12 0
BBX 10 14 1 0
BITMAP
0600
0800
1E00
7B80
40C0
C0C0
8000
8000
87C0
8040
C040
C0C0
61C0
3F40
ENDCHAR
STARTCHAR char501
ENCODING 501
SWIDTH 50 0
DWIDTH 9 0
BBX 8 15 0 -3
BITMAP
06
0C
08
18
3D
43
43
C3
43
43
63
3F
03
42
7E
ENDCHAR
STARTCHAR char503
ENCODING 503
SWIDTH 56 0
DWIDTH 10 0
BBX 8 12 1 0
BITMAP
DE
FF
C1
C3
C3
C6
CC
D8
F0
C0
C0
C0
ENDCHAR
STARTCHAR char504
ENCODING 504
SWIDTH 10 0
DWIDTH 12 0
BBX 9 14 1 0
BITMAP
0C00
0400
C080
E080
E080
F080
D880
C880
CC80
C480
C680
C380
C180
C180
ENDCHAR
STARTCHAR char505
ENCODING 505
SWIDTH 50 0
DWIDTH 9 0
BBX 7 12 1 0
BITMAP
60
30
10
18
BC
C6
86
86
86
86
86
86
ENDCHAR
STARTCHAR char506
ENCODING 506
SWIDTH 4 0
DWIDTH 11 0
BBX 10 14 0 0
BITMAP
0C00
1C00
0A00
0A00
0C00
0C00
0E00
1A00
1300
3100
3F80
6080
60C0
C040
ENDCHAR
STARTCHAR char507
ENCODING 507
SWIDTH 50 0
DWIDTH 9 0
BBX 7 14 1 0
BITMAP
18
20
38
28
38
30
FC
84
04
7C
C4
84
8C
FE
ENDCHAR
STARTCHAR char508
ENCODING 508
SWIDTH 32 0
DWIDTH 16 0
BBX 15 14 0 0
BITMAP
0030
0040
07FE
07FE
0C80
0880
1880
10FE
30FE
3F80
3F80
6080
4080
C0FE
ENDCHAR
STARTCHAR char509
ENCODING 509
SWIDTH 21 0
DWIDTH 14 0
BBX 12 12 1 0
BITMAP
0180
0300
0200
30C0
FFE0
8610
0410
7FF0
C400
8410
8E30
FBE0
ENDCHAR
STARTCHAR char510
ENCODING 510
SWIDTH 16 0
DWIDTH 13 0
BBX 11 14 1 0
BITMAP
0600
0800
1E20
3BC0
60C0
C140
8260
8460
8860
9860
F060
E0C0
61C0
BF00
ENDCHAR
STARTCHAR char511
ENCODING 511
SWIDTH 56 0
DWIDTH 10 0
BBX 8 12 0 0
BITMAP
06
04
08
18
3F
43
47
C9
D1
63
62
7E
ENDCHAR
STARTCHAR char512
ENCODING 512
SWIDTH 4 0
DWIDTH 11 0
BBX 10 14 0 0
BITMAP
3600
0A00
0C00
0E00
0A00
1A00
1300
1100
3100
3F80
7F80
60C0
40C0
C040
ENDCHAR
STARTCHAR char513
ENCODING 513
SWIDTH 50 0
DWIDTH 9 0
BBX 7 12 1 0
BITMAP
D0
58
28
30
FC
84
04
7C
C4
84
8C
FE
ENDCHAR
STARTCHAR char514
ENCODING 514
SWIDTH 4 0
DWIDTH 11 0
BBX 10 14 0 0
BITMAP
1E00
1100
0C00
0E00
0A00
1A00
1300
1100
3100
3F80
7F80
60C0
40C0
C040
ENDCHAR
STARTCHAR char515
ENCODING 515
SWIDTH 50 0
DWIDTH 9 0
BBX 7 11 1 0
BITMAP
78
44
30
FC
84
04
7C
C4
84
8C
FE
ENDCHAR
STARTCHAR char516
ENCODING 516
SWIDTH 56 0
DWIDTH 10 0
BBX 9 14 1 0
BITMAP
3C00
1600
FF00
FF00
C000
C000
C000
FF00
FF00
C000
C000
C000
C000
FF80
ENDCHAR
STARTCHAR char517
ENCODING 517
SWIDTH 50 0
DWIDTH 9 0
BBX 8 12 0 0
BITMAP
6C
24
14
18
3E
43
41
FF
40
41
63
3E
ENDCHAR
STARTCHAR char518
ENCODING 518
SWIDTH 56 0
DWIDTH 10 0
BBX 9 14 1 0
BITMAP
3C00
2200
FF00
FF00
C000
C000
C000
FF00
FF00
C000
C000
C000
C000
FF80
ENDCHAR
STARTCHAR char519
ENCODING 519
SWIDTH 50 0
DWIDTH 9 0
BBX 8 11 0 0
BITMAP
3E
22
18
3E
43
41
FF
40
41
63
3E
ENDCHAR
STARTCHAR char520
ENCODING 520
SWIDTH 28 0
DWIDTH 5 0
BBX 5 14 0 0
BITMAP
D0
48
20
20
20
20
20
20
20
20
20
20
20
20
ENDCHAR
STARTCHAR char521
ENCODING 521
SWIDTH 22 0
DWIDTH 4 0
BBX 5 12 -1 0
BITMAP
D0
58
28
00
30
30
30
30
30
30
30
30
ENDCHAR
STARTCHAR char522
ENCODING 522
SWIDTH 28 0
DWIDTH 5 0
BBX 5 14 0 0
BITMAP
F0
88
20
20
20
20
20
20
20
20
20
20
20
20
ENDCHAR
STARTCHAR char523
ENCODING 523
SWIDTH 22 0
DWIDTH 4 0
BBX 5 11 0 0
BITMAP
F0
88
00
60
60
60
60
60
60
60
60
ENDCHAR
STARTCHAR char524
ENCODING 524
SWIDTH 16 0
DWIDTH 13 0
BBX 11 14 1 0
BITMAP
3600
0A00
1E00
3B80
60C0
C040
8060
8060
8060
8060
C060
C0C0
61C0
3F00
ENDCHAR
STARTCHAR char525
ENCODING 525
SWIDTH 50 0
DWIDTH 9 0
BBX 8 12 0 0
BITMAP
68
2C
14
18
3E
63
41
C1
41
43
63
3E
ENDCHAR
STARTCHAR char526
ENCODING 526
SWIDTH 16 0
DWIDTH 13 0
BBX 11 14 1 0
BITMAP
1E00
1100
1E00
3B80
60C0
C040
8060
8060
8060
8060
C060
C0C0
61C0
3F00
ENDCHAR
STARTCHAR char527
ENCODING 527
SWIDTH 50 0
DWIDTH 9 0
BBX 8 11 0 0
BITMAP
3C
22
18
3E
63
41
C1
41
43
63
3E
ENDCHAR
STARTCHAR char528
ENCODING 528
SWIDTH 4 0
DWIDTH 11 0
BBX 9 14 1 0
BITMAP
6C00
1400
FE00
FF80
C180
C080
C080
C100
FF00
C180
C180
C080
C080
C080
ENDCHAR
STARTCHAR char529
ENCODING 529
SWIDTH 28 0
DWIDTH 5 0
BBX 5 12 0 0
BITMAP
F0
58
28
08
58
60
40
40
40
40
40
40
ENDCHAR
STARTCHAR char530
ENCODING 530
SWIDTH 4 0
DWIDTH 11 0
BBX 9 14 1 0
BITMAP
1E00
2200
FE00
FF80
C180
C080
C080
C100
FF00
C180
C180
C080
C080
C080
ENDCHAR
STARTCHAR char531
ENCODING 531
SWIDTH 28 0
DWIDTH 5 0
BBX 5 11 1 0
BITMAP
F0
88
10
B0
C0
80
80
80
80
80
80
ENDCHAR
STARTCHAR char532
ENCODING 532
SWIDTH 10 0
DWIDTH 12 0
BBX 9 14 1 0
BITMAP
3C00
1600
C080
C080
C080
C080
C080
C080
C080
C080
C080
C080
6180
3F00
ENDCHAR
STARTCHAR char533
ENCODING 533
SWIDTH 50 0
DWIDTH 9 0
BBX 7 12 1 0
BITMAP
D8
68
24
00
86
86
86
86
86
86
C6
FE
ENDCHAR
STARTCHAR char534
ENCODING 534
SWIDTH 10 0
DWIDTH 12 0
BBX 9 14 1 0
BITMAP
1E00
2200
C080
C080
C080
C080
C080
C080
C080
C080
C080
C080
6180
3F00
ENDCHAR
STARTCHAR char535
ENCODING 535
SWIDTH 50 0
DWIDTH 9 0
BBX 7 11 1 0
BITMAP
78
44
00
86
86
86
86
86
86
C6
FE
ENDCHAR
STARTCHAR char536
ENCODING 536
SWIDTH 4 0
DWIDTH 11 0
BBX 9 17 1 -5
BITMAP
3C00
6700
C100
C180
C000
7800
1F00
0380
8180
8180
C100
7F00
0000
0800
0800
0800
0800
ENDCHAR
STARTCHAR char537
ENCODING 537
SWIDTH 44 0
DWIDTH 8 0
BBX 6 14 1 -5
BITMAP
30
FC
84
80
F0
1C
84
84
FC
00
30
30
10
20
ENDCHAR
STARTCHAR char538
ENCODING 538
SWIDTH 56 0
DWIDTH 10 0
BBX 10 17 0 -5
BITMAP
FFC0
FFC0
0C00
0C00
0C00
0C00
0C00
0C00
0C00
0C00
0C00
0C00
0000
0C00
0C00
0400
0800
ENDCHAR
STARTCHAR char539
ENCODING 539
SWIDTH 22 0
DWIDTH 4 0
BBX 4 15 0 -5
BITMAP
60
60
60
F0
60
60
60
60
60
60
30
00
20
20
20
ENDCHAR
STARTCHAR char540
ENCODING 540
SWIDTH 50 0
DWIDTH 9 0
BBX 7 12 1 -2
BITMAP
7C
C4
86
06
0C
3C
26
02
06
0C
38
E0
ENDCHAR
STARTCHAR char541
ENCODING 541
SWIDTH 39 0
DWIDTH 7 0
BBX 6 10 0 -1
BITMAP
30
7C
CC
0C
18
3C
04
0C
18
60
ENDCHAR
STARTCHAR char542
ENCODING 542
SWIDTH 10 0
DWIDTH 12 0
BBX 9 15 1 0
BITMAP
1200
1C00
0000
C080
C080
C080
C080
C080
FF80
FF80
C080
C080
C080
C080
C080
ENDCHAR
STARTCHAR char543
ENCODING 543
SWIDTH 50 0
DWIDTH 9 0
BBX 7 14 1 0
BITMAP
2C
18
80
80
80
98
FC
C6
86
86
86
86
86
86
ENDCHAR
STARTCHAR char544
ENCODING 544
SWIDTH 10 0
DWIDTH 12 0
BBX 9 16 1 -4
BITMAP
DE00
F700
C180
C080
C080
C080
C080
C080
C080
C080
C080
C080
0080
0080
0080
0080
ENDCHAR
STARTCHAR char548
ENCODING 548
SWIDTH 56 0
DWIDTH 10 0
BBX 9 15 0 -3
BITMAP
7F80
7F80
0180
0300
0600
0C00
0C00
1800
3000
6000
6000
FF80
0080
0080
0180
ENDCHAR
STARTCHAR char549
ENCODING 549
SWIDTH 44 0
DWIDTH 8 0
BBX 7 11 0 -3
BITMAP
7E
04
0C
18
30
20
40
FE
02
02
06
ENDCHAR
STARTCHAR char550
ENCODING 550
SWIDTH 4 0
DWIDTH 11 0
BBX 10 14 0 0
BITMAP
0400
0000
0C00
0E00
0A00
1A00
1300
1100
3100
3F80
7F80
60C0
40C0
C040
ENDCHAR
STARTCHAR char551
ENCODING 551
SWIDTH 50 0
DWIDTH 9 0
BBX 7 12 1 0
BITMAP
10
10
00
30
FC
84
04
7C
C4
84
8C
FE
ENDCHAR
STARTCHAR char552
ENCODING 552
SWIDTH 56 0
DWIDTH 10 0
BBX 9 15 1 -3
BITMAP
FF00
FF00
C000
C000
C000
FF00
FF00
C000
C000
C000
C000
FF80
0800
0400
3C00
ENDCHAR
STARTCHAR char553
ENCODING 553
SWIDTH 50 0
DWIDTH 9 0
BBX 8 13 0 -4
BITMAP
18
3E
43
41
FF
40
41
63
3E
10
1C
04
38
ENDCHAR
STARTCHAR char554
ENCODING 554
SWIDTH 16 0
DWIDTH 13 0
BBX 11 15 1 0
BITMAP
1E00
1B00
1B00
1E00
3B80
60C0
C040
8060
8060
8060
8060
C060
C0C0
61C0
3F00
ENDCHAR
STARTCHAR char555
ENCODING 555
SWIDTH 50 0
DWIDTH 9 0
BBX 8 13 0 0
BITMAP
3E
00
36
36
18
3E
63
41
C1
41
43
63
3E
ENDCHAR
STARTCHAR char556
ENCODING 556
SWIDTH 16 0
DWIDTH 13 0
BBX 11 16 1 0
BITMAP
1F00
0000
1F00
1200
1E00
3B80
60C0
C040
8060
8060
8060
8060
C060
C0C0
61C0
3F00
ENDCHAR
STARTCHAR char557
ENCODING 557
SWIDTH 50 0
DWIDTH 9 0
BBX 8 13 0 0
BITMAP
3E
00
32
2C
18
3E
63
41
C1
41
43
63
3E
ENDCHAR
STARTCHAR char558
ENCODING 558
SWIDTH 16 0
DWIDTH 13 0
BBX 11 14 1 0
BITMAP
0C00
0000
1E00
3B80
60C0
C040
8060
8060
8060
8060
C060
C0C0
61C0
3F00
ENDCHAR
STARTCHAR char559
ENCODING 559
SWIDTH 50 0
DWIDTH 9 0
BBX 8 11 0 0
BITMAP
08
00
18
3E
63
41
C1
41
43
63
3E
ENDCHAR
STARTCHAR char560
ENCODING 560
SWIDTH 16 0
DWIDTH 13 0
BBX 11 16 1 0
BITMAP
1E00
0000
0C00
0C00
1E00
3B80
60C0
C040
8060
8060
8060
8060
C060
C0C0
61C0
3F00
ENDCHAR
STARTCHAR char561
ENCODING 561
SWIDTH 50 0
DWIDTH 9 0
BBX 8 13 0 0
BITMAP
3E
00
08
08
18
3E
63
41
C1
41
43
63
3E
ENDCHAR
STARTCHAR char562
ENCODING 562
SWIDTH 4 0
DWIDTH 11 0
BBX 11 14 0 0
BITMAP
1F00
1F00
C060
60C0
2080
3180
1B00
0A00
0E00
0400
0400
0400
0400
0400
ENDCHAR
STARTCHAR char563
ENCODING 563
SWIDTH 44 0
DWIDTH 8 0
BBX 7 13 0 -3
BITMAP
3C
00
C2
46
64
64
2C
38
38
18
10
30
60
ENDCHAR
STARTCHAR char567
ENCODING 567
SWIDTH 22 0
DWIDTH 4 0
BBX 2 11 0 -3
BITMAP
40
40
40
40
40
40
40
40
40
40
C0
ENDCHAR
STARTCHAR char568
ENCODING 568
SWIDTH 27 0
DWIDTH 15 0
BBX 14 12 0 0
BITMAP
0100
0100
0100
1930
3FF8
638C
4304
C104
4104
430C
638C
3DF8
ENDCHAR
STARTCHAR char569
ENCODING 569
SWIDTH 27 0
DWIDTH 15 0
BBX 14 12 0 -3
BITMAP
1830
3FF8
638C
4304
C104
4104
430C
638C
3DF8
0100
0100
0100
ENDCHAR
STARTCHAR char592
ENCODING 592
SWIDTH 50 0
DWIDTH 9 0
BBX 8 9 0 0
BITMAP
C4
FF
61
61
6F
78
60
63
3E
ENDCHAR
STARTCHAR char593
ENCODING 593
SWIDTH 50 0
DWIDTH 9 0
BBX 9 9 0 0
BITMAP
1800
7F00
4300
4300
C300
4300
4300
6300
3D80
ENDCHAR
STARTCHAR char594
ENCODING 594
SWIDTH 50 0
DWIDTH 9 0
BBX 9 9 0 0
BITMAP
CC00
7F00
6100
6180
6180
6180
6100
7300
7E00
ENDCHAR
STARTCHAR char595
ENCODING 595
SWIDTH 50 0
DWIDTH 9 0
BBX 7 12 1 0
BITMAP
60
C0
80
98
FC
C6
82
82
82
C2
C6
BC
ENDCHAR
STARTCHAR char596
ENCODING 596
SWIDTH 44 0
DWIDTH 8 0
BBX 8 9 0 0
BITMAP
18
7E
42
C2
03
03
42
46
7C
ENDCHAR
STARTCHAR char597
ENCODING 597
SWIDTH 44 0
DWIDTH 8 0
BBX 7 9 0 -1
BITMAP
18
3E
62
40
40
4C
5E
72
FE
ENDCHAR
STARTCHAR char598
ENCODING 598
SWIDTH 56 0
DWIDTH 10 0
BBX 9 15 0 -3
BITMAP
0100
0100
0100
1900
3F00
6300
4300
C100
4100
4300
6300
3D00
0100
0100
0180
ENDCHAR
STARTCHAR char599
ENCODING 599
SWIDTH 56 0
DWIDTH 10 0
BBX 9 12 0 0
BITMAP
0080
0180
0100
1900
3F00
6300
4300
C100
4100
4300
6300
3D00
ENDCHAR
STARTCHAR char600
ENCODING 600
SWIDTH 50 0
DWIDTH 9 0
BBX 7 9 1 0
BITMAP
30
7C
86
82
FE
02
86
C4
7C
ENDCHAR
STARTCHAR char601
ENCODING 601
SWIDTH 50 0
DWIDTH 9 0
BBX 8 9 0 0
BITMAP
18
7E
43
01
FF
7F
43
62
3E
ENDCHAR
STARTCHAR char602
ENCODING 602
SWIDTH 16 0
DWIDTH 13 0
BBX 12 9 0 0
BITMAP
18C0
7F40
4340
0170
FF30
7F00
4300
6200
3E00
ENDCHAR
STARTCHAR char603
ENCODING 603
SWIDTH 44 0
DWIDTH 8 0
BBX 7 9 0 0
BITMAP
18
7E
42
40
38
60
C2
42
7E
ENDCHAR
STARTCHAR char604
ENCODING 604
SWIDTH 44 0
DWIDTH 8 0
BBX 7 9 0 0
BITMAP
18
7C
46
06
1C
06
C2
42
7E
ENDCHAR
STARTCHAR char605
ENCODING 605
SWIDTH 10 0
DWIDTH 12 0
BBX 11 9 0 0
BITMAP
1980
7E80
4680
0640
1C60
0600
C200
4200
7E00
ENDCHAR
STARTCHAR char606
ENCODING 606
SWIDTH 44 0
DWIDTH 8 0
BBX 8 9 0 0
BITMAP
18
7E
42
42
CE
46
43
62
3E
ENDCHAR
STARTCHAR char607
ENCODING 607
SWIDTH 28 0
DWIDTH 5 0
BBX 4 11 0 -3
BITMAP
20
20
20
F0
20
20
20
20
20
20
E0
ENDCHAR
STARTCHAR char608
ENCODING 608
SWIDTH 50 0
DWIDTH 9 0
BBX 9 13 0 -3
BITMAP
0180
1900
3D00
4300
4300
C300
4300
4300
6300
3F00
0300
4200
7E00
ENDCHAR
STARTCHAR char609
ENCODING 609
SWIDTH 50 0
DWIDTH 9 0
BBX 9 12 0 -3
BITMAP
1800
3D80
4300
4300
C300
4300
4300
6300
3F00
0300
4200
7E00
ENDCHAR
STARTCHAR char610
ENCODING 610
SWIDTH 50 0
DWIDTH 9 0
BBX 8 9 0 0
BITMAP
0C
3E
61
40
C0
47
41
63
3F
ENDCHAR
STARTCHAR char611
ENCODING 611
SWIDTH 44 0
DWIDTH 8 0
BBX 6 12 1 -4
BITMAP
84
8C
C8
58
70
30
30
30
78
48
78
30
ENDCHAR
STARTCHAR char612
ENCODING 612
SWIDTH 50 0
DWIDTH 9 0
BBX 9 9 0 0
BITMAP
2600
7F00
D900
9D80
3400
2600
2200
2600
1C00
ENDCHAR
STARTCHAR char613
ENCODING 613
SWIDTH 50 0
DWIDTH 9 0
BBX 7 11 1 -3
BITMAP
86
86
86
86
86
86
CE
7E
06
06
06
ENDCHAR
STARTCHAR char614
ENCODING 614
SWIDTH 50 0
DWIDTH 9 0
BBX 7 12 1 0
BITMAP
60
C0
80
98
FC
C6
86
86
86
86
86
86
ENDCHAR
STARTCHAR char615
ENCODING 615
SWIDTH 50 0
DWIDTH 9 0
BBX 7 15 1 -3
BITMAP
60
C0
80
98
FC
C6
86
86
86
86
86
86
06
06
0C
ENDCHAR
STARTCHAR char616
ENCODING 616
SWIDTH 22 0
DWIDTH 4 0
BBX 4 12 0 0
BITMAP
60
60
00
00
60
60
60
F0
60
60
60
60
ENDCHAR
STARTCHAR char617
ENCODING 617
SWIDTH 22 0
DWIDTH 4 0
BBX 3 8 1 0
BITMAP
80
80
80
80
80
80
80
E0
ENDCHAR
STARTCHAR char618
ENCODING 618
SWIDTH 22 0
DWIDTH 4 0
BBX 4 8 0 0
BITMAP
F0
20
20
20
20
20
20
F0
ENDCHAR
STARTCHAR char619
ENCODING 619
SWIDTH 44 0
DWIDTH 8 0
BBX 7 12 0 0
BITMAP
10
10
10
10
10
72
9A
14
10
10
10
10
ENDCHAR
STARTCHAR char620
ENCODING 620
SWIDTH 39 0
DWIDTH 7 0
BBX 7 12 0 0
BITMAP
10
10
10
10
70
D0
FE
3E
10
10
10
10
ENDCHAR
STARTCHAR char621
ENCODING 621
SWIDTH 22 0
DWIDTH 4 0
BBX 3 15 1 -3
BITMAP
80
80
80
80
80
80
80
80
80
80
80
80
80
80
E0
ENDCHAR
STARTCHAR char622
ENCODING 622
SWIDTH 56 0
DWIDTH 10 0
BBX 8 14 1 -2
BITMAP
80
80
80
80
FF
86
84
88
8E
83
81
81
63
3E
ENDCHAR
STARTCHAR char623
ENCODING 623
SWIDTH 16 0
DWIDTH 13 0
BBX 11 8 1 0
BITMAP
8420
8420
8420
8420
8420
8420
CC60
F7A0
ENDCHAR
STARTCHAR char624
ENCODING 624
SWIDTH 16 0
DWIDTH 13 0
BBX 11 11 1 -3
BITMAP
8420
8420
8420
8420
8420
8420
CC60
F7A0
0020
0020
0020
ENDCHAR
STARTCHAR char625
ENCODING 625
SWIDTH 16 0
DWIDTH 13 0
BBX 11 12 1 -3
BITMAP
18C0
FFE0
C620
8420
8420
8420
8420
8420
8420
0020
0020
00E0
ENDCHAR
STARTCHAR char626
ENCODING 626
SWIDTH 50 0
DWIDTH 9 0
BBX 8 12 0 -3
BITMAP
06
3F
21
21
21
21
21
21
21
20
20
E0
ENDCHAR
STARTCHAR char627
ENCODING 627
SWIDTH 50 0
DWIDTH 9 0
BBX 8 12 1 -3
BITMAP
18
BC
C6
86
86
86
86
86
86
06
06
07
ENDCHAR
STARTCHAR char628
ENCODING 628
SWIDTH 50 0
DWIDTH 9 0
BBX 7 8 1 0
BITMAP
C6
E6
A6
B6
96
8E
8E
86
ENDCHAR
STARTCHAR char629
ENCODING 629
SWIDTH 50 0
DWIDTH 9 0
BBX 8 9 0 0
BITMAP
18
3E
43
41
FF
41
43
63
3E
ENDCHAR
STARTCHAR char630
ENCODING 630
SWIDTH 10 0
DWIDTH 12 0
BBX 12 9 0 0
BITMAP
1800
3FF0
6300
4300
C3E0
4300
4300
6300
3FF0
ENDCHAR
STARTCHAR char631
ENCODING 631
SWIDTH 10 0
DWIDTH 12 0
BBX 11 9 0 0
BITMAP
0F00
3FC0
6060
4620
4620
C620
4620
4660
3BC0
ENDCHAR
STARTCHAR char632
ENCODING 632
SWIDTH 4 0
DWIDTH 11 0
BBX 11 14 0 -3
BITMAP
0400
0400
0E00
3F80
64C0
4440
C460
C460
4440
64C0
3F80
0400
0400
0400
ENDCHAR
STARTCHAR char633
ENCODING 633
SWIDTH 28 0
DWIDTH 5 0
BBX 4 8 0 0
BITMAP
10
10
10
10
10
10
30
D0
ENDCHAR
STARTCHAR char634
ENCODING 634
SWIDTH 28 0
DWIDTH 5 0
BBX 4 12 0 0
BITMAP
10
10
10
10
10
10
10
10
10
10
30
D0
ENDCHAR
STARTCHAR char635
ENCODING 635
SWIDTH 33 0
DWIDTH 6 0
BBX 6 11 0 -3
BITMAP
10
10
10
10
10
10
30
D0
10
10
1C
ENDCHAR
STARTCHAR char636
ENCODING 636
SWIDTH 28 0
DWIDTH 5 0
BBX 4 12 1 -3
BITMAP
10
B0
C0
80
80
80
80
80
80
80
80
80
ENDCHAR
STARTCHAR char637
ENCODING 637
SWIDTH 28 0
DWIDTH 5 0
BBX 4 12 1 -3
BITMAP
10
B0
C0
80
80
80
80
80
80
80
80
E0
ENDCHAR
STARTCHAR char638
ENCODING 638
SWIDTH 33 0
DWIDTH 6 0
BBX 5 9 1 0
BITMAP
60
F0
98
80
80
80
80
80
80
ENDCHAR
STARTCHAR char639
ENCODING 639
SWIDTH 33 0
DWIDTH 6 0
BBX 5 12 0 -3
BITMAP
30
F8
C8
08
08
08
08
08
08
08
08
08
ENDCHAR
STARTCHAR char640
ENCODING 640
SWIDTH 44 0
DWIDTH 8 0
BBX 7 8 1 0
BITMAP
FC
84
84
FC
F0
98
8C
86
ENDCHAR
STARTCHAR char641
ENCODING 641
SWIDTH 50 0
DWIDTH 9 0
BBX 7 8 1 0
BITMAP
86
8C
98
F8
84
84
84
FC
ENDCHAR
STARTCHAR char642
ENCODING 642
SWIDTH 44 0
DWIDTH 8 0
BBX 6 12 1 -3
BITMAP
30
FC
84
80
F0
1C
84
84
FC
80
80
C0
ENDCHAR
STARTCHAR char643
ENCODING 643
SWIDTH 28 0
DWIDTH 5 0
BBX 4 15 0 -3
BITMAP
10
30
20
20
20
20
20
20
20
20
20
20
20
20
E0
ENDCHAR
STARTCHAR char644
ENCODING 644
SWIDTH 28 0
DWIDTH 5 0
BBX 4 15 0 -3
BITMAP
10
30
20
20
20
20
20
70
20
20
20
20
20
20
E0
ENDCHAR
STARTCHAR char645
ENCODING 645
SWIDTH 28 0
DWIDTH 5 0
BBX 5 12 0 -3
BITMAP
C0
E0
20
20
20
20
20
20
20
20
20
38
ENDCHAR
STARTCHAR char646
ENCODING 646
SWIDTH 39 0
DWIDTH 7 0
BBX 7 15 0 -3
BITMAP
06
0C
08
08
08
08
08
08
08
08
08
08
7C
8E
78
ENDCHAR
STARTCHAR char647
ENCODING 647
SWIDTH 22 0
DWIDTH 4 0
BBX 4 11 0 0
BITMAP
E0
20
20
20
20
20
20
20
F0
20
20
ENDCHAR
STARTCHAR char648
ENCODING 648
SWIDTH 22 0
DWIDTH 4 0
BBX 4 14 0 -3
BITMAP
60
60
60
F0
60
60
60
60
60
60
60
60
60
70
ENDCHAR
STARTCHAR char649
ENCODING 649
SWIDTH 56 0
DWIDTH 10 0
BBX 9 8 0 0
BITMAP
6100
6100
6100
FF80
6100
6100
6300
3D00
ENDCHAR
STARTCHAR char650
ENCODING 650
SWIDTH 56 0
DWIDTH 10 0
BBX 8 9 1 0
BITMAP
E7
64
C2
83
81
81
83
C2
7C
ENDCHAR
STARTCHAR char651
ENCODING 651
SWIDTH 44 0
DWIDTH 8 0
BBX 7 8 1 0
BITMAP
88
8C
86
86
86
84
8C
F8
ENDCHAR
STARTCHAR char652
ENCODING 652
SWIDTH 44 0
DWIDTH 8 0
BBX 8 8 0 0
BITMAP
18
18
3C
24
66
66
42
C3
ENDCHAR
STARTCHAR char653
ENCODING 653
SWIDTH 10 0
DWIDTH 12 0
BBX 11 8 0 0
BITMAP
3180
39C0
29C0
6B40
6A40
4E60
4620
C620
ENDCHAR
STARTCHAR char654
ENCODING 654
SWIDTH 44 0
DWIDTH 8 0
BBX 7 12 0 0
BITMAP
06
0C
08
18
18
18
3C
24
64
46
42
C2
ENDCHAR
STARTCHAR char655
ENCODING 655
SWIDTH 44 0
DWIDTH 8 0
BBX 6 8 1 0
BITMAP
84
CC
48
38
30
30
30
30
ENDCHAR
STARTCHAR char656
ENCODING 656
SWIDTH 50 0
DWIDTH 9 0
BBX 9 11 0 -3
BITMAP
7E00
0600
0C00
1800
3000
2000
4000
FE00
0200
0200
0380
ENDCHAR
STARTCHAR char657
ENCODING 657
SWIDTH 44 0
DWIDTH 8 0
BBX 8 10 0 -2
BITMAP
7E
04
0C
18
30
2E
4B
FE
08
08
ENDCHAR
STARTCHAR char658
ENCODING 658
SWIDTH 44 0
DWIDTH 8 0
BBX 8 10 0 -2
BITMAP
7E
06
0C
18
1E
03
03
C3
43
3E
ENDCHAR
STARTCHAR char659
ENCODING 659
SWIDTH 44 0
DWIDTH 8 0
BBX 8 10 0 -2
BITMAP
FE
04
08
18
1E
02
02
7E
47
3C
ENDCHAR
STARTCHAR char660
ENCODING 660
SWIDTH 44 0
DWIDTH 8 0
BBX 6 11 1 0
BITMAP
FC
84
84
04
1C
38
30
30
30
30
30
ENDCHAR
STARTCHAR char661
ENCODING 661
SWIDTH 44 0
DWIDTH 8 0
BBX 7 11 0 0
BITMAP
7C
42
C2
40
70
38
18
18
18
18
18
ENDCHAR
STARTCHAR char662
ENCODING 662
SWIDTH 44 0
DWIDTH 8 0
BBX 6 11 1 0
BITMAP
30
30
30
30
30
70
80
84
84
CC
78
ENDCHAR
STARTCHAR char663
ENCODING 663
SWIDTH 4 0
DWIDTH 11 0
BBX 10 15 1 -3
BITMAP
1E00
7700
4180
C080
8000
8000
8000
8000
8000
8000
8000
80C0
C080
6180
3F00
ENDCHAR
STARTCHAR char664
ENCODING 664
SWIDTH 16 0
DWIDTH 13 0
BBX 11 12 1 0
BITMAP
1E00
3B80
60C0
C040
8060
8C60
8C60
8060
C060
C0C0
61C0
3F00
ENDCHAR
STARTCHAR char665
ENCODING 665
SWIDTH 44 0
DWIDTH 8 0
BBX 6 8 1 0
BITMAP
FC
8C
8C
F8
8C
84
8C
F8
ENDCHAR
STARTCHAR char666
ENCODING 666
SWIDTH 44 0
DWIDTH 8 0
BBX 8 9 0 0
BITMAP
18
7E
42
43
33
63
C2
42
7E
ENDCHAR
STARTCHAR char667
ENCODING 667
SWIDTH 56 0
DWIDTH 10 0
BBX 10 9 0 0
BITMAP
0CC0
3F80
6100
4000
C000
4700
4100
6300
3F00
ENDCHAR
STARTCHAR char668
ENCODING 668
SWIDTH 50 0
DWIDTH 9 0
BBX 7 8 1 0
BITMAP
86
86
86
FE
86
86
86
86
ENDCHAR
STARTCHAR char669
ENCODING 669
SWIDTH 39 0
DWIDTH 7 0
BBX 7 15 0 -3
BITMAP
08
08
00
00
08
08
08
08
08
08
08
08
7C
8E
F8
ENDCHAR
STARTCHAR char670
ENCODING 670
SWIDTH 44 0
DWIDTH 8 0
BBX 6 11 1 -3
BITMAP
84
C4
64
2C
3C
34
64
C4
04
04
04
ENDCHAR
STARTCHAR char671
ENCODING 671
SWIDTH 33 0
DWIDTH 6 0
BBX 5 8 1 0
BITMAP
80
80
80
80
80
80
80
F8
ENDCHAR
STARTCHAR char672
ENCODING 672
SWIDTH 56 0
DWIDTH 10 0
BBX 9 13 0 -3
BITMAP
0180
1900
3F00
6300
4300
C100
4100
4300
6300
3D00
0100
0100
0100
ENDCHAR
STARTCHAR char673
ENCODING 673
SWIDTH 44 0
DWIDTH 8 0
BBX 6 11 1 0
BITMAP
FC
84
84
04
1C
38
78
30
30
30
30
ENDCHAR
STARTCHAR char674
ENCODING 674
SWIDTH 44 0
DWIDTH 8 0
BBX 7 11 0 0
BITMAP
7C
42
C2
40
70
38
3C
18
18
18
18
ENDCHAR
STARTCHAR char675
ENCODING 675
SWIDTH 27 0
DWIDTH 15 0
BBX 14 12 0 0
BITMAP
0100
0100
0100
1900
3FFC
630C
4318
C130
4120
4340
6380
3DFC
ENDCHAR
STARTCHAR char676
ENCODING 676
SWIDTH 27 0
DWIDTH 15 0
BBX 15 14 0 -2
BITMAP
0100
0100
0100
1900
3FFC
630C
4318
C130
413C
4306
6306
3D06
0084
00FC
ENDCHAR
STARTCHAR char677
ENCODING 677
SWIDTH 27 0
DWIDTH 15 0
BBX 15 14 0 -2
BITMAP
0100
0100
0100
1900
3FFC
630C
4318
C130
4120
435E
63D2
3DFC
0010
0010
ENDCHAR
STARTCHAR char678
ENCODING 678
SWIDTH 4 0
DWIDTH 11 0
BBX 11 11 0 0
BITMAP
6000
6000
6380
F7C0
6C40
6C00
6780
61C0
6060
6060
3FC0
ENDCHAR
STARTCHAR char679
ENCODING 679
SWIDTH 44 0
DWIDTH 8 0
BBX 8 15 0 -3
BITMAP
03
66
66
66
FE
66
66
66
66
66
66
3E
06
06
0E
ENDCHAR
STARTCHAR char680
ENCODING 680
SWIDTH 10 0
DWIDTH 12 0
BBX 12 13 0 -2
BITMAP
6000
6000
6180
F3E0
6620
6400
6400
6400
6470
6690
3FF0
0080
0080
ENDCHAR
STARTCHAR char681
ENCODING 681
SWIDTH 16 0
DWIDTH 13 0
BBX 12 15 0 -3
BITMAP
3000
2000
6000
60C0
FDF0
6630
6630
6430
6430
6430
6430
6430
0030
0030
0060
ENDCHAR
STARTCHAR char682
ENCODING 682
SWIDTH 56 0
DWIDTH 10 0
BBX 9 12 1 0
BITMAP
8000
8000
8000
8600
9F00
B180
B000
9E00
8380
8080
E180
BF00
ENDCHAR
STARTCHAR char683
ENCODING 683
SWIDTH 50 0
DWIDTH 9 0
BBX 8 12 1 0
BITMAP
80
80
80
80
FF
86
84
88
98
B0
E0
FF
ENDCHAR
STARTCHAR char684
ENCODING 684
SWIDTH 44 0
DWIDTH 8 0
BBX 7 11 1 0
BITMAP
92
B2
6C
6C
4C
00
92
B2
6C
6C
4C
ENDCHAR
STARTCHAR char685
ENCODING 685
SWIDTH 44 0
DWIDTH 8 0
BBX 7 8 0 2
BITMAP
FE
C2
00
00
00
00
FE
C2
ENDCHAR
STARTCHAR char686
ENCODING 686
SWIDTH 50 0
DWIDTH 9 0
BBX 8 15 0 -3
BITMAP
C0
60
20
20
21
21
21
21
21
21
23
3D
01
01
01
ENDCHAR
STARTCHAR char687
ENCODING 687
SWIDTH 56 0
DWIDTH 10 0
BBX 10 15 0 -3
BITMAP
C000
6000
2000
2000
2100
2100
2100
2100
2100
2100
2300
3D00
0100
0100
01C0
ENDCHAR
STARTCHAR char688
ENCODING 688
SWIDTH 28 0
DWIDTH 5 0
BBX 5 8 0 6
BITMAP
80
80
B0
C8
88
88
88
88
ENDCHAR
STARTCHAR char689
ENCODING 689
SWIDTH 28 0
DWIDTH 5 0
BBX 5 8 0 6
BITMAP
40
80
B0
C8
88
88
88
88
ENDCHAR
STARTCHAR char690
ENCODING 690
SWIDTH 16 0
DWIDTH 3 0
BBX 1 10 1 5
BITMAP
80
80
00
80
80
80
80
80
80
80
ENDCHAR
STARTCHAR char691
ENCODING 691
SWIDTH 22 0
DWIDTH 4 0
BBX 2 6 1 6
BITMAP
40
80
80
80
80
80
ENDCHAR
STARTCHAR char692
ENCODING 692
SWIDTH 22 0
DWIDTH 4 0
BBX 2 6 1 6
BITMAP
40
40
40
40
40
80
ENDCHAR
STARTCHAR char693
ENCODING 693
SWIDTH 22 0
DWIDTH 4 0
BBX 4 8 0 4
BITMAP
20
20
20
20
20
E0
20
30
ENDCHAR
STARTCHAR char694
ENCODING 694
SWIDTH 33 0
DWIDTH 6 0
BBX 4 6 1 6
BITMAP
90
A0
C0
B0
90
E0
ENDCHAR
STARTCHAR char695
ENCODING 695
SWIDTH 44 0
DWIDTH 8 0
BBX 6 5 1 6
BITMAP
B4
B4
B4
CC
48
ENDCHAR
STARTCHAR char696
ENCODING 696
SWIDTH 28 0
DWIDTH 5 0
BBX 5 7 0 4
BITMAP
88
50
50
60
20
20
40
ENDCHAR
STARTCHAR char697
ENCODING 697
SWIDTH 22 0
DWIDTH 4 0
BBX 2 4 1 7
BITMAP
40
C0
80
80
ENDCHAR
STARTCHAR char698
ENCODING 698
SWIDTH 39 0
DWIDTH 7 0
BBX 6 4 1 7
BITMAP
4C
C8
98
90
ENDCHAR
STARTCHAR char699
ENCODING 699
SWIDTH 22 0
DWIDTH 4 0
BBX 2 4 1 8
BITMAP
40
80
C0
C0
ENDCHAR
STARTCHAR char700
ENCODING 700
SWIDTH 22 0
DWIDTH 4 0
BBX 2 4 1 7
BITMAP
C0
40
40
80
ENDCHAR
STARTCHAR char701
ENCODING 701
SWIDTH 22 0
DWIDTH 4 0
BBX 2 4 1 7
BITMAP
C0
80
80
40
ENDCHAR
STARTCHAR char702
ENCODING 702
SWIDTH 22 0
DWIDTH 4 0
BBX 2 3 1 9
BITMAP
80
40
C0
ENDCHAR
STARTCHAR char703
ENCODING 703
SWIDTH 22 0
DWIDTH 4 0
BBX 2 3 1 9
BITMAP
40
80
40
ENDCHAR
STARTCHAR char704
ENCODING 704
SWIDTH 28 0
DWIDTH 5 0
BBX 5 6 0 6
BITMAP
78
88
08
30
20
20
ENDCHAR
STARTCHAR char705
ENCODING 705
SWIDTH 28 0
DWIDTH 5 0
BBX 5 6 0 6
BITMAP
70
88
80
60
20
20
ENDCHAR
STARTCHAR char706
ENCODING 706
SWIDTH 28 0
DWIDTH 5 0
BBX 5 3 0 9
BITMAP
18
E0
30
ENDCHAR
STARTCHAR char707
ENCODING 707
SWIDTH 28 0
DWIDTH 5 0
BBX 5 3 0 9
BITMAP
60
18
F0
ENDCHAR
STARTCHAR char708
ENCODING 708
SWIDTH 28 0
DWIDTH 5 0
BBX 3 3 1 9
BITMAP
40
A0
80
ENDCHAR
STARTCHAR char709
ENCODING 709
SWIDTH 28 0
DWIDTH 5 0
BBX 3 3 1 9
BITMAP
80
A0
40
ENDCHAR
STARTCHAR char710
ENCODING 710
SWIDTH 28 0
DWIDTH 5 0
BBX 5 3 0 9
BITMAP
30
50
88
ENDCHAR
STARTCHAR char711
ENCODING 711
SWIDTH 28 0
DWIDTH 5 0
BBX 4 3 1 9
BITMAP
90
A0
40
ENDCHAR
STARTCHAR char712
ENCODING 712
SWIDTH 22 0
DWIDTH 4 0
BBX 2 4 1 9
BITMAP
C0
C0
C0
C0
ENDCHAR
STARTCHAR char713
ENCODING 713
SWIDTH 28 0
DWIDTH 5 0
BBX 5 1 0 10
BITMAP
F8
ENDCHAR
STARTCHAR char714
ENCODING 714
SWIDTH 28 0
DWIDTH 5 0
BBX 3 3 1 9
BITMAP
20
40
80
ENDCHAR
STARTCHAR char715
ENCODING 715
SWIDTH 28 0
DWIDTH 5 0
BBX 3 3 1 9
BITMAP
80
40
20
ENDCHAR
STARTCHAR char716
ENCODING 716
SWIDTH 22 0
DWIDTH 4 0
BBX 2 3 1 -4
BITMAP
C0
C0
C0
ENDCHAR
STARTCHAR char717
ENCODING 717
SWIDTH 28 0
DWIDTH 5 0
BBX 5 1 0 -2
BITMAP
F8
ENDCHAR
STARTCHAR char718
ENCODING 718
SWIDTH 28 0
DWIDTH 5 0
BBX 2 2 2 -3
BITMAP
C0
40
ENDCHAR
STARTCHAR char719
ENCODING 719
SWIDTH 28 0
DWIDTH 5 0
BBX 3 3 1 -4
BITMAP
60
C0
80
ENDCHAR
STARTCHAR char720
ENCODING 720
SWIDTH 28 0
DWIDTH 5 0
BBX 2 9 2 0
BITMAP
C0
80
00
00
00
00
00
80
C0
ENDCHAR
STARTCHAR char721
ENCODING 721
SWIDTH 28 0
DWIDTH 5 0
BBX 2 2 2 7
BITMAP
C0
80
ENDCHAR
STARTCHAR char722
ENCODING 722
SWIDTH 22 0
DWIDTH 4 0
BBX 2 3 1 0
BITMAP
80
40
C0
ENDCHAR
STARTCHAR char723
ENCODING 723
SWIDTH 22 0
DWIDTH 4 0
BBX 2 3 1 0
BITMAP
40
80
40
ENDCHAR
STARTCHAR char724
ENCODING 724
SWIDTH 28 0
DWIDTH 5 0
BBX 5 4 0 2
BITMAP
20
20
F8
F8
ENDCHAR
STARTCHAR char725
ENCODING 725
SWIDTH 28 0
DWIDTH 5 0
BBX 5 4 0 3
BITMAP
F8
F8
20
20
ENDCHAR
STARTCHAR char726
ENCODING 726
SWIDTH 28 0
DWIDTH 5 0
BBX 5 5 0 2
BITMAP
20
20
F8
20
20
ENDCHAR
STARTCHAR char727
ENCODING 727
SWIDTH 28 0
DWIDTH 5 0
BBX 5 1 0 4
BITMAP
F8
ENDCHAR
STARTCHAR char728
ENCODING 728
SWIDTH 28 0
DWIDTH 5 0
BBX 5 2 0 10
BITMAP
88
78
ENDCHAR
STARTCHAR char729
ENCODING 729
SWIDTH 28 0
DWIDTH 5 0
BBX 2 1 2 10
BITMAP
C0
ENDCHAR
STARTCHAR char730
ENCODING 730
SWIDTH 28 0
DWIDTH 5 0
BBX 3 3 1 9
BITMAP
E0
A0
E0
ENDCHAR
STARTCHAR char731
ENCODING 731
SWIDTH 28 0
DWIDTH 5 0
BBX 3 3 1 -3
BITMAP
40
80
E0
ENDCHAR
STARTCHAR char732
ENCODING 732
SWIDTH 28 0
DWIDTH 5 0
BBX 5 1 0 10
BITMAP
F8
ENDCHAR
STARTCHAR char733
ENCODING 733
SWIDTH 28 0
DWIDTH 5 0
BBX 5 3 0 9
BITMAP
58
D0
A0
ENDCHAR
STARTCHAR char734
ENCODING 734
SWIDTH 28 0
DWIDTH 5 0
BBX 5 5 0 4
BITMAP
40
A0
20
30
18
ENDCHAR
STARTCHAR char735
ENCODING 735
SWIDTH 28 0
DWIDTH 5 0
BBX 4 3 1 9
BITMAP
B0
60
90
ENDCHAR
STARTCHAR char736
ENCODING 736
SWIDTH 28 0
DWIDTH 5 0
BBX 4 7 1 4
BITMAP
90
A0
A0
40
40
A0
E0
ENDCHAR
STARTCHAR char737
ENCODING 737
SWIDTH 16 0
DWIDTH 3 0
BBX 1 8 1 6
BITMAP
80
80
80
80
80
80
80
80
ENDCHAR
STARTCHAR char738
ENCODING 738
SWIDTH 28 0
DWIDTH 5 0
BBX 5 6 0 6
BITMAP
30
48
40
30
88
78
ENDCHAR
STARTCHAR char739
ENCODING 739
SWIDTH 28 0
DWIDTH 5 0
BBX 4 5 1 6
BITMAP
A0
60
40
A0
90
ENDCHAR
STARTCHAR char740
ENCODING 740
SWIDTH 28 0
DWIDTH 5 0
BBX 5 7 0 6
BITMAP
70
88
80
60
20
20
20
ENDCHAR
STARTCHAR char741
ENCODING 741
SWIDTH 44 0
DWIDTH 8 0
BBX 6 13 1 0
BITMAP
FC
04
04
04
04
04
04
04
04
04
04
04
04
ENDCHAR
STARTCHAR char742
ENCODING 742
SWIDTH 44 0
DWIDTH 8 0
BBX 6 13 1 0
BITMAP
04
04
04
FC
04
04
04
04
04
04
04
04
04
ENDCHAR
STARTCHAR char743
ENCODING 743
SWIDTH 44 0
DWIDTH 8 0
BBX 6 13 1 0
BITMAP
04
04
04
04
04
04
FC
04
04
04
04
04
04
ENDCHAR
STARTCHAR char744
ENCODING 744
SWIDTH 44 0
DWIDTH 8 0
BBX 6 13 1 0
BITMAP
04
04
04
04
04
04
04
04
04
FC
04
04
04
ENDCHAR
STARTCHAR char745
ENCODING 745
SWIDTH 44 0
DWIDTH 8 0
BBX 6 13 1 0
BITMAP
04
04
04
04
04
04
04
04
04
04
04
04
FC
ENDCHAR
STARTCHAR char746
ENCODING 746
SWIDTH 44 0
DWIDTH 8 0
BBX 7 10 1 0
BITMAP
80
80
80
80
80
80
80
80
80
FE
ENDCHAR
STARTCHAR char747
ENCODING 747
SWIDTH 44 0
DWIDTH 8 0
BBX 7 10 1 0
BITMAP
80
80
80
80
FE
FE
80
80
80
80
ENDCHAR
STARTCHAR char748
ENCODING 748
SWIDTH 28 0
DWIDTH 5 0
BBX 4 3 1 -4
BITMAP
90
E0
40
ENDCHAR
STARTCHAR char749
ENCODING 749
SWIDTH 28 0
DWIDTH 5 0
BBX 5 4 0 9
BITMAP
F8
00
00
F8
ENDCHAR
STARTCHAR char750
ENCODING 750
SWIDTH 33 0
DWIDTH 6 0
BBX 4 4 1 8
BITMAP
D0
D0
50
90
ENDCHAR
STARTCHAR char751
ENCODING 751
SWIDTH 28 0
DWIDTH 5 0
BBX 3 3 1 -3
BITMAP
80
A0
40
ENDCHAR
STARTCHAR char752
ENCODING 752
SWIDTH 28 0
DWIDTH 5 0
BBX 3 3 1 -3
BITMAP
40
A0
80
ENDCHAR
STARTCHAR char753
ENCODING 753
SWIDTH 28 0
DWIDTH 5 0
BBX 5 3 0 -3
BITMAP
18
E0
30
ENDCHAR
STARTCHAR char754
ENCODING 754
SWIDTH 28 0
DWIDTH 5 0
BBX 5 3 0 -3
BITMAP
60
18
F0
ENDCHAR
STARTCHAR char755
ENCODING 755
SWIDTH 28 0
DWIDTH 5 0
BBX 3 3 1 -4
BITMAP
E0
A0
E0
ENDCHAR
STARTCHAR char756
ENCODING 756
SWIDTH 22 0
DWIDTH 4 0
BBX 3 3 1 5
BITMAP
80
40
20
ENDCHAR
STARTCHAR char757
ENCODING 757
SWIDTH 28 0
DWIDTH 5 0
BBX 5 3 0 5
BITMAP
D8
48
28
ENDCHAR
STARTCHAR char758
ENCODING 758
SWIDTH 28 0
DWIDTH 5 0
BBX 5 3 0 5
BITMAP
58
D0
A0
ENDCHAR
STARTCHAR char759
ENCODING 759
SWIDTH 28 0
DWIDTH 5 0
BBX 5 1 0 -2
BITMAP
F8
ENDCHAR
STARTCHAR char760
ENCODING 760
SWIDTH 22 0
DWIDTH 4 0
BBX 2 8 1 1
BITMAP
C0
00
00
00
00
00
C0
C0
ENDCHAR
STARTCHAR char761
ENCODING 761
SWIDTH 16 0
DWIDTH 3 0
BBX 3 4 0 8
BITMAP
E0
C0
C0
C0
ENDCHAR
STARTCHAR char762
ENCODING 762
SWIDTH 16 0
DWIDTH 3 0
BBX 3 4 0 8
BITMAP
E0
20
20
20
ENDCHAR
STARTCHAR char763
ENCODING 763
SWIDTH 16 0
DWIDTH 3 0
BBX 3 4 0 -1
BITMAP
C0
C0
C0
E0
ENDCHAR
STARTCHAR char764
ENCODING 764
SWIDTH 16 0
DWIDTH 3 0
BBX 3 4 0 -1
BITMAP
20
20
20
E0
ENDCHAR
STARTCHAR char765
ENCODING 765
SWIDTH 28 0
DWIDTH 5 0
BBX 5 3 0 -3
BITMAP
88
88
F8
ENDCHAR
STARTCHAR char766
ENCODING 766
SWIDTH 28 0
DWIDTH 5 0
BBX 5 3 0 -3
BITMAP
80
80
F8
ENDCHAR
STARTCHAR char767
ENCODING 767
SWIDTH 28 0
DWIDTH 5 0
BBX 5 3 0 -4
BITMAP
40
80
F8
ENDCHAR
STARTCHAR char768
ENCODING 768
SWIDTH 0 0
DWIDTH 0 0
BBX 3 3 -5 9
BITMAP
C0
60
20
ENDCHAR
STARTCHAR char769
ENCODING 769
SWIDTH 0 0
DWIDTH 0 0
BBX 3 3 -4 9
BITMAP
60
40
80
ENDCHAR
STARTCHAR char770
ENCODING 770
SWIDTH 0 0
DWIDTH 0 0
BBX 5 3 -5 9
BITMAP
60
50
88
ENDCHAR
STARTCHAR char771
ENCODING 771
SWIDTH 0 0
DWIDTH 0 0
BBX 4 1 -5 10
BITMAP
F0
ENDCHAR
STARTCHAR char772
ENCODING 772
SWIDTH 0 0
DWIDTH 0 0
BBX 5 1 -5 10
BITMAP
F8
ENDCHAR
STARTCHAR char773
ENCODING 773
SWIDTH 0 0
DWIDTH 0 0
BBX 9 1 -7 10
BITMAP
FF80
ENDCHAR
STARTCHAR char774
ENCODING 774
SWIDTH 0 0
DWIDTH 0 0
BBX 5 2 -5 10
BITMAP
88
F0
ENDCHAR
STARTCHAR char775
ENCODING 775
SWIDTH 0 0
DWIDTH 0 0
BBX 1 1 -3 10
BITMAP
80
ENDCHAR
STARTCHAR char776
ENCODING 776
SWIDTH 0 0
DWIDTH 0 0
BBX 5 1 -5 10
BITMAP
D8
ENDCHAR
STARTCHAR char777
ENCODING 777
SWIDTH 0 0
DWIDTH 0 0
BBX 2 3 -4 9
BITMAP
C0
40
80
ENDCHAR
STARTCHAR char778
ENCODING 778
SWIDTH 0 0
DWIDTH 0 0
BBX 3 3 -4 9
BITMAP
E0
A0
E0
ENDCHAR
STARTCHAR char779
ENCODING 779
SWIDTH 0 0
DWIDTH 0 0
BBX 5 3 -5 9
BITMAP
58
D0
A0
ENDCHAR
STARTCHAR char780
ENCODING 780
SWIDTH 0 0
DWIDTH 0 0
BBX 4 3 -5 9
BITMAP
90
70
60
ENDCHAR
STARTCHAR char781
ENCODING 781
SWIDTH 0 0
DWIDTH 0 0
BBX 1 4 -3 9
BITMAP
80
80
80
80
ENDCHAR
STARTCHAR char782
ENCODING 782
SWIDTH 0 0
DWIDTH 0 0
BBX 3 4 -4 9
BITMAP
A0
A0
A0
A0
ENDCHAR
STARTCHAR char783
ENCODING 783
SWIDTH 0 0
DWIDTH 0 0
BBX 5 3 -6 9
BITMAP
B0
50
48
ENDCHAR
STARTCHAR char784
ENCODING 784
SWIDTH 0 0
DWIDTH 0 0
BBX 5 3 -5 10
BITMAP
20
A8
F0
ENDCHAR
STARTCHAR char785
ENCODING 785
SWIDTH 0 0
DWIDTH 0 0
BBX 5 2 -5 10
BITMAP
70
D8
ENDCHAR
STARTCHAR char786
ENCODING 786
SWIDTH 0 0
DWIDTH 0 0
BBX 1 3 -3 9
BITMAP
80
80
80
ENDCHAR
STARTCHAR char787
ENCODING 787
SWIDTH 0 0
DWIDTH 0 0
BBX 1 3 -3 9
BITMAP
80
80
80
ENDCHAR
STARTCHAR char788
ENCODING 788
SWIDTH 0 0
DWIDTH 0 0
BBX 1 3 -3 9
BITMAP
80
80
80
ENDCHAR
STARTCHAR char789
ENCODING 789
SWIDTH 0 0
DWIDTH 0 0
BBX 1 3 0 9
BITMAP
80
80
80
ENDCHAR
STARTCHAR char790
ENCODING 790
SWIDTH 0 0
DWIDTH 0 0
BBX 2 2 -4 -3
BITMAP
80
40
ENDCHAR
STARTCHAR char791
ENCODING 791
SWIDTH 0 0
DWIDTH 0 0
BBX 3 2 -4 -3
BITMAP
60
C0
ENDCHAR
STARTCHAR char792
ENCODING 792
SWIDTH 0 0
DWIDTH 0 0
BBX 3 4 -4 -5
BITMAP
20
E0
20
20
ENDCHAR
STARTCHAR char793
ENCODING 793
SWIDTH 0 0
DWIDTH 0 0
BBX 3 4 -4 -4
BITMAP
80
80
E0
80
ENDCHAR
STARTCHAR char794
ENCODING 794
SWIDTH 0 0
DWIDTH 0 0
BBX 4 4 -3 7
BITMAP
F0
10
10
10
ENDCHAR
STARTCHAR char795
ENCODING 795
SWIDTH 0 0
DWIDTH 0 0
BBX 3 3 -2 7
BITMAP
60
20
C0
ENDCHAR
STARTCHAR char796
ENCODING 796
SWIDTH 0 0
DWIDTH 0 0
BBX 2 3 -4 -4
BITMAP
40
80
40
ENDCHAR
STARTCHAR char797
ENCODING 797
SWIDTH 0 0
DWIDTH 0 0
BBX 4 2 -5 -3
BITMAP
20
F0
ENDCHAR
STARTCHAR char798
ENCODING 798
SWIDTH 0 0
DWIDTH 0 0
BBX 4 2 -5 -3
BITMAP
F0
20
ENDCHAR
STARTCHAR char799
ENCODING 799
SWIDTH 0 0
DWIDTH 0 0
BBX 4 4 -5 -5
BITMAP
20
F0
20
20
ENDCHAR
STARTCHAR char800
ENCODING 800
SWIDTH 0 0
DWIDTH 0 0
BBX 5 1 -7 -2
BITMAP
F8
ENDCHAR
STARTCHAR char801
ENCODING 801
SWIDTH 0 0
DWIDTH 0 0
BBX 3 4 -3 -3
BITMAP
20
20
20
E0
ENDCHAR
STARTCHAR char802
ENCODING 802
SWIDTH 0 0
DWIDTH 0 0
BBX 2 4 -1 -3
BITMAP
80
80
80
C0
ENDCHAR
STARTCHAR char803
ENCODING 803
SWIDTH 0 0
DWIDTH 0 0
BBX 1 2 -4 -3
BITMAP
80
80
ENDCHAR
STARTCHAR char804
ENCODING 804
SWIDTH 0 0
DWIDTH 0 0
BBX 5 2 -6 -3
BITMAP
D8
D8
ENDCHAR
STARTCHAR char805
ENCODING 805
SWIDTH 0 0
DWIDTH 0 0
BBX 3 3 -5 -4
BITMAP
E0
A0
E0
ENDCHAR
STARTCHAR char806
ENCODING 806
SWIDTH 0 0
DWIDTH 0 0
BBX 1 4 -4 -5
BITMAP
80
80
80
80
ENDCHAR
STARTCHAR char807
ENCODING 807
SWIDTH 0 0
DWIDTH 0 0
BBX 4 3 -6 -3
BITMAP
20
30
F0
ENDCHAR
STARTCHAR char808
ENCODING 808
SWIDTH 0 0
DWIDTH 0 0
BBX 2 3 -4 -3
BITMAP
80
80
C0
ENDCHAR
STARTCHAR char809
ENCODING 809
SWIDTH 0 0
DWIDTH 0 0
BBX 1 4 -4 -4
BITMAP
80
80
80
80
ENDCHAR
STARTCHAR char810
ENCODING 810
SWIDTH 0 0
DWIDTH 0 0
BBX 5 2 -5 -3
BITMAP
F8
98
ENDCHAR
STARTCHAR char811
ENCODING 811
SWIDTH 0 0
DWIDTH 0 0
BBX 5 2 -5 -3
BITMAP
A8
D0
ENDCHAR
STARTCHAR char812
ENCODING 812
SWIDTH 0 0
DWIDTH 0 0
BBX 4 2 -5 -3
BITMAP
D0
60
ENDCHAR
STARTCHAR char813
ENCODING 813
SWIDTH 0 0
DWIDTH 0 0
BBX 4 2 -5 -3
BITMAP
60
D0
ENDCHAR
STARTCHAR char814
ENCODING 814
SWIDTH 0 0
DWIDTH 0 0
BBX 5 2 -5 -3
BITMAP
88
F0
ENDCHAR
STARTCHAR char815
ENCODING 815
SWIDTH 0 0
DWIDTH 0 0
BBX 5 2 -5 -3
BITMAP
70
98
ENDCHAR
STARTCHAR char816
ENCODING 816
SWIDTH 0 0
DWIDTH 0 0
BBX 5 2 -6 -3
BITMAP
48
B0
ENDCHAR
STARTCHAR char817
ENCODING 817
SWIDTH 0 0
DWIDTH 0 0
BBX 4 1 -6 -2
BITMAP
F0
ENDCHAR
STARTCHAR char818
ENCODING 818
SWIDTH 0 0
DWIDTH 0 0
BBX 10 1 -10 -3
BITMAP
FFC0
ENDCHAR
STARTCHAR char819
ENCODING 819
SWIDTH 0 0
DWIDTH 0 0
BBX 10 3 -10 -5
BITMAP
FFC0
0000
FFC0
ENDCHAR
STARTCHAR char820
ENCODING 820
SWIDTH 0 0
DWIDTH 0 0
BBX 5 1 -7 4
BITMAP
F8
ENDCHAR
STARTCHAR char821
ENCODING 821
SWIDTH 0 0
DWIDTH 0 0
BBX 5 1 -7 4
BITMAP
F8
ENDCHAR
STARTCHAR char822
ENCODING 822
SWIDTH 0 0
DWIDTH 0 0
BBX 9 1 -11 3
BITMAP
FF80
ENDCHAR
STARTCHAR char823
ENCODING 823
SWIDTH 0 0
DWIDTH 0 0
BBX 10 10 -11 0
BITMAP
0040
0080
0100
0200
0400
0800
1000
2000
4000
8000
ENDCHAR
STARTCHAR char824
ENCODING 824
SWIDTH 0 0
DWIDTH 0 0
BBX 10 13 -11 -1
BITMAP
0040
00C0
0080
0100
0200
0600
0400
0800
1000
3000
2000
4000
8000
ENDCHAR
STARTCHAR char825
ENCODING 825
SWIDTH 0 0
DWIDTH 0 0
BBX 1 3 -4 -4
BITMAP
80
80
80
ENDCHAR
STARTCHAR char826
ENCODING 826
SWIDTH 0 0
DWIDTH 0 0
BBX 5 2 -6 -3
BITMAP
98
F8
ENDCHAR
STARTCHAR char827
ENCODING 827
SWIDTH 0 0
DWIDTH 0 0
BBX 4 4 -6 -5
BITMAP
F0
90
90
F0
ENDCHAR
STARTCHAR char828
ENCODING 828
SWIDTH 0 0
DWIDTH 0 0
BBX 4 2 -6 -3
BITMAP
F0
20
ENDCHAR
STARTCHAR char829
ENCODING 829
SWIDTH 0 0
DWIDTH 0 0
BBX 4 3 -5 9
BITMAP
90
60
D0
ENDCHAR
STARTCHAR char830
ENCODING 830
SWIDTH 0 0
DWIDTH 0 0
BBX 2 4 -4 10
BITMAP
C0
40
40
80
ENDCHAR
STARTCHAR char831
ENCODING 831
SWIDTH 0 0
DWIDTH 0 0
BBX 10 3 -10 9
BITMAP
FFC0
0000
FFC0
ENDCHAR
STARTCHAR char832
ENCODING 832
SWIDTH 0 0
DWIDTH 0 0
BBX 3 3 -5 9
BITMAP
C0
60
20
ENDCHAR
STARTCHAR char833
ENCODING 833
SWIDTH 0 0
DWIDTH 0 0
BBX 3 3 -4 9
BITMAP
60
40
80
ENDCHAR
STARTCHAR char834
ENCODING 834
SWIDTH 0 0
DWIDTH 0 0
BBX 4 1 -5 10
BITMAP
F0
ENDCHAR
STARTCHAR char835
ENCODING 835
SWIDTH 0 0
DWIDTH 0 0
BBX 1 3 -3 9
BITMAP
80
80
80
ENDCHAR
STARTCHAR char836
ENCODING 836
SWIDTH 0 0
DWIDTH 0 0
BBX 6 2 -6 10
BITMAP
10
EC
ENDCHAR
STARTCHAR char837
ENCODING 837
SWIDTH 0 0
DWIDTH 0 0
BBX 2 3 -5 -3
BITMAP
80
80
C0
ENDCHAR
STARTCHAR char838
ENCODING 838
SWIDTH 0 0
DWIDTH 0 0
BBX 5 2 -5 10
BITMAP
F8
98
ENDCHAR
STARTCHAR char839
ENCODING 839
SWIDTH 0 0
DWIDTH 0 0
BBX 4 3 -6 -3
BITMAP
F0
00
F0
ENDCHAR
STARTCHAR char840
ENCODING 840
SWIDTH 0 0
DWIDTH 0 0
BBX 3 4 -5 -4
BITMAP
A0
A0
A0
A0
ENDCHAR
STARTCHAR char841
ENCODING 841
SWIDTH 0 0
DWIDTH 0 0
BBX 2 3 -4 -4
BITMAP
C0
40
40
ENDCHAR
STARTCHAR char842
ENCODING 842
SWIDTH 0 0
DWIDTH 0 0
BBX 5 3 -6 10
BITMAP
10
68
B8
ENDCHAR
STARTCHAR char843
ENCODING 843
SWIDTH 0 0
DWIDTH 0 0
BBX 4 5 -6 9
BITMAP
30
00
F0
C0
C0
ENDCHAR
STARTCHAR char844
ENCODING 844
SWIDTH 0 0
DWIDTH 0 0
BBX 5 4 -6 9
BITMAP
68
90
68
98
ENDCHAR
STARTCHAR char845
ENCODING 845
SWIDTH 0 0
DWIDTH 0 0
BBX 8 3 -9 -4
BITMAP
42
FF
42
ENDCHAR
STARTCHAR char846
ENCODING 846
SWIDTH 0 0
DWIDTH 0 0
BBX 2 3 -6 -5
BITMAP
40
C0
40
ENDCHAR
STARTCHAR char847
ENCODING 847
SWIDTH 0 0
DWIDTH 0 0
BBX 0 0 0 0
BITMAP
ENDCHAR
STARTCHAR char848
ENCODING 848
SWIDTH 0 0
DWIDTH 0 0
BBX 4 3 -5 9
BITMAP
C0
30
E0
ENDCHAR
STARTCHAR char849
ENCODING 849
SWIDTH 0 0
DWIDTH 0 0
BBX 1 3 -3 9
BITMAP
80
80
80
ENDCHAR
STARTCHAR char850
ENCODING 850
SWIDTH 0 0
DWIDTH 0 0
BBX 4 4 -5 9
BITMAP
E0
90
60
60
ENDCHAR
STARTCHAR char851
ENCODING 851
SWIDTH 0 0
DWIDTH 0 0
BBX 4 3 -7 -4
BITMAP
90
60
D0
ENDCHAR
STARTCHAR char852
ENCODING 852
SWIDTH 0 0
DWIDTH 0 0
BBX 4 3 -6 -3
BITMAP
30
C0
60
ENDCHAR
STARTCHAR char853
ENCODING 853
SWIDTH 0 0
DWIDTH 0 0
BBX 4 3 -6 -3
BITMAP
C0
30
E0
ENDCHAR
STARTCHAR char854
ENCODING 854
SWIDTH 0 0
DWIDTH 0 0
BBX 6 2 -7 -3
BITMAP
C8
D4
ENDCHAR
STARTCHAR char855
ENCODING 855
SWIDTH 0 0
DWIDTH 0 0
BBX 1 3 -3 9
BITMAP
80
80
80
ENDCHAR
STARTCHAR char856
ENCODING 856
SWIDTH 0 0
DWIDTH 0 0
BBX 1 2 -5 10
BITMAP
80
80
ENDCHAR
STARTCHAR char857
ENCODING 857
SWIDTH 0 0
DWIDTH 0 0
BBX 3 3 -6 -5
BITMAP
40
E0
40
ENDCHAR
STARTCHAR char858
ENCODING 858
SWIDTH 0 0
DWIDTH 0 0
BBX 7 3 -8 -4
BITMAP
FC
92
6C
ENDCHAR
STARTCHAR char859
ENCODING 859
SWIDTH 0 0
DWIDTH 0 0
BBX 3 4 -5 9
BITMAP
80
80
E0
20
ENDCHAR
STARTCHAR char860
ENCODING 860
SWIDTH 0 0
DWIDTH 0 0
BBX 10 2 -5 -3
BITMAP
8040
7F80
ENDCHAR
STARTCHAR char861
ENCODING 861
SWIDTH 0 0
DWIDTH 0 0
BBX 10 2 -5 10
BITMAP
8040
7F80
ENDCHAR
STARTCHAR char862
ENCODING 862
SWIDTH 0 0
DWIDTH 0 0
BBX 10 1 -5 10
BITMAP
FFC0
ENDCHAR
STARTCHAR char863
ENCODING 863
SWIDTH 0 0
DWIDTH 0 0
BBX 10 1 -5 -2
BITMAP
FFC0
ENDCHAR
STARTCHAR char864
ENCODING 864
SWIDTH 0 0
DWIDTH 0 0
BBX 10 3 -5 9
BITMAP
7000
9C40
0380
ENDCHAR
STARTCHAR char865
ENCODING 865
SWIDTH 0 0
DWIDTH 0 0
BBX 10 2 -5 11
BITMAP
7F80
8040
ENDCHAR
STARTCHAR char866
ENCODING 866
SWIDTH 0 0
DWIDTH 0 0
BBX 10 3 -5 -3
BITMAP
0180
FFC0
0100
ENDCHAR
STARTCHAR char867
ENCODING 867
SWIDTH 0 0
DWIDTH 0 0
BBX 3 3 -6 9
BITMAP
20
60
E0
ENDCHAR
STARTCHAR char868
ENCODING 868
SWIDTH 0 0
DWIDTH 0 0
BBX 3 3 -6 9
BITMAP
E0
E0
E0
ENDCHAR
STARTCHAR char869
ENCODING 869
SWIDTH 0 0
DWIDTH 0 0
BBX 1 3 -5 10
BITMAP
80
80
80
ENDCHAR
STARTCHAR char870
ENCODING 870
SWIDTH 0 0
DWIDTH 0 0
BBX 3 3 -6 9
BITMAP
E0
A0
E0
ENDCHAR
STARTCHAR char871
ENCODING 871
SWIDTH 0 0
DWIDTH 0 0
BBX 2 3 -5 9
BITMAP
C0
C0
C0
ENDCHAR
STARTCHAR char872
ENCODING 872
SWIDTH 0 0
DWIDTH 0 0
BBX 2 3 -5 9
BITMAP
C0
80
C0
ENDCHAR
STARTCHAR char873
ENCODING 873
SWIDTH 0 0
DWIDTH 0 0
BBX 3 4 -6 9
BITMAP
20
E0
A0
E0
ENDCHAR
STARTCHAR char874
ENCODING 874
SWIDTH 0 0
DWIDTH 0 0
BBX 2 4 -5 9
BITMAP
80
C0
C0
C0
ENDCHAR
STARTCHAR char875
ENCODING 875
SWIDTH 0 0
DWIDTH 0 0
BBX 4 3 -6 9
BITMAP
F0
D0
D0
ENDCHAR
STARTCHAR char876
ENCODING 876
SWIDTH 0 0
DWIDTH 0 0
BBX 1 3 -5 9
BITMAP
80
80
80
ENDCHAR
STARTCHAR char877
ENCODING 877
SWIDTH 0 0
DWIDTH 0 0
BBX 1 4 -5 9
BITMAP
80
80
80
80
ENDCHAR
STARTCHAR char878
ENCODING 878
SWIDTH 0 0
DWIDTH 0 0
BBX 3 3 -6 9
BITMAP
A0
C0
40
ENDCHAR
STARTCHAR char879
ENCODING 879
SWIDTH 0 0
DWIDTH 0 0
BBX 3 3 -6 9
BITMAP
A0
40
A0
ENDCHAR
STARTCHAR char884
ENCODING 884
SWIDTH 22 0
DWIDTH 4 0
BBX 2 4 1 7
BITMAP
40
C0
80
80
ENDCHAR
STARTCHAR char885
ENCODING 885
SWIDTH 16 0
DWIDTH 3 0
BBX 2 3 0 -3
BITMAP
40
40
80
ENDCHAR
STARTCHAR char890
ENCODING 890
SWIDTH 28 0
DWIDTH 5 0
BBX 3 2 2 -3
BITMAP
80
E0
ENDCHAR
STARTCHAR char891
ENCODING 891
SWIDTH 39 0
DWIDTH 7 0
BBX 6 8 1 0
BITMAP
F0
18
08
0C
0C
08
18
F0
ENDCHAR
STARTCHAR char892
ENCODING 892
SWIDTH 39 0
DWIDTH 7 0
BBX 6 8 0 0
BITMAP
3C
60
40
CC
40
40
60
3C
ENDCHAR
STARTCHAR char893
ENCODING 893
SWIDTH 39 0
DWIDTH 7 0
BBX 6 8 1 0
BITMAP
F0
18
08
4C
0C
08
18
F0
ENDCHAR
STARTCHAR char894
ENCODING 894
SWIDTH 22 0
DWIDTH 4 0
BBX 2 11 1 -2
BITMAP
C0
C0
00
00
00
00
00
C0
C0
40
40
ENDCHAR
STARTCHAR char900
ENCODING 900
SWIDTH 28 0
DWIDTH 5 0
BBX 3 3 2 9
BITMAP
60
40
80
ENDCHAR
STARTCHAR char901
ENCODING 901
SWIDTH 28 0
DWIDTH 5 0
BBX 5 2 0 10
BITMAP
30
A8
ENDCHAR
STARTCHAR char902
ENCODING 902
SWIDTH 4 0
DWIDTH 11 0
BBX 10 12 0 0
BITMAP
6C00
4E00
8A00
1A00
1300
1100
3100
3F80
7F80
60C0
40C0
C040
ENDCHAR
STARTCHAR char903
ENCODING 903
SWIDTH 22 0
DWIDTH 4 0
BBX 2 1 1 7
BITMAP
C0
ENDCHAR
STARTCHAR char904
ENCODING 904
SWIDTH 16 0
DWIDTH 13 0
BBX 12 12 0 0
BITMAP
6FF0
4FF0
8800
0800
0800
0FF0
0FF0
0800
0800
0800
0800
0FF0
ENDCHAR
STARTCHAR char905
ENCODING 905
SWIDTH 21 0
DWIDTH 14 0
BBX 13 12 0 0
BITMAP
6818
4818
8818
0818
0818
0FF8
0FF8
0818
0818
0818
0818
0818
ENDCHAR
STARTCHAR char906
ENCODING 906
SWIDTH 39 0
DWIDTH 7 0
BBX 5 12 0 0
BITMAP
68
48
88
08
08
08
08
08
08
08
08
08
ENDCHAR
STARTCHAR char908
ENCODING 908
SWIDTH 21 0
DWIDTH 14 0
BBX 13 12 0 0
BITMAP
67C0
4EE0
9830
3018
3008
2008
2008
3008
3018
1010
1830
0FE0
ENDCHAR
STARTCHAR char910
ENCODING 910
SWIDTH 21 0
DWIDTH 14 0
BBX 14 12 0 0
BITMAP
6C0C
4C08
8618
0230
0320
01E0
00C0
00C0
00C0
00C0
00C0
00C0
ENDCHAR
STARTCHAR char911
ENCODING 911
SWIDTH 16 0
DWIDTH 13 0
BBX 12 12 0 0
BITMAP
6700
5DC0
B060
2030
6010
6010
6010
2030
2020
3060
18C0
7CF0
ENDCHAR
STARTCHAR char912
ENCODING 912
SWIDTH 28 0
DWIDTH 5 0
BBX 5 12 0 0
BITMAP
20
A8
00
00
40
40
40
40
40
40
60
70
ENDCHAR
STARTCHAR char913
ENCODING 913
SWIDTH 4 0
DWIDTH 11 0
BBX 10 12 0 0
BITMAP
0C00
0E00
0A00
1A00
1300
1100
3100
3F80
7F80
60C0
40C0
C040
ENDCHAR
STARTCHAR char914
ENCODING 914
SWIDTH 4 0
DWIDTH 11 0
BBX 9 12 1 0
BITMAP
FC00
FF00
C100
C100
C100
FE00
FF00
C180
C180
C180
C380
FF00
ENDCHAR
STARTCHAR char915
ENCODING 915
SWIDTH 56 0
DWIDTH 10 0
BBX 8 12 1 0
BITMAP
FF
FF
C0
C0
C0
C0
C0
C0
C0
C0
C0
C0
ENDCHAR
STARTCHAR char916
ENCODING 916
SWIDTH 4 0
DWIDTH 11 0
BBX 11 12 0 0
BITMAP
0C00
0E00
0A00
1B00
1300
1100
3180
2080
60C0
60C0
4040
FFE0
ENDCHAR
STARTCHAR char917
ENCODING 917
SWIDTH 56 0
DWIDTH 10 0
BBX 9 12 1 0
BITMAP
FF00
FF00
C000
C000
C000
FF00
FF00
C000
C000
C000
C000
FF80
ENDCHAR
STARTCHAR char918
ENCODING 918
SWIDTH 56 0
DWIDTH 10 0
BBX 9 12 0 0
BITMAP
7F80
7F80
0180
0300
0600
0C00
0C00
1800
3000
6000
6000
FF80
ENDCHAR
STARTCHAR char919
ENCODING 919
SWIDTH 10 0
DWIDTH 12 0
BBX 9 12 1 0
BITMAP
C080
C080
C080
C080
C080
FF80
FF80
C080
C080
C080
C080
C080
ENDCHAR
STARTCHAR char920
ENCODING 920
SWIDTH 16 0
DWIDTH 13 0
BBX 11 12 1 0
BITMAP
1E00
3B80
60C0
C040
8060
8060
BF60
8060
C060
C0C0
61C0
3F00
ENDCHAR
STARTCHAR char921
ENCODING 921
SWIDTH 22 0
DWIDTH 4 0
BBX 1 12 2 0
BITMAP
80
80
80
80
80
80
80
80
80
80
80
80
ENDCHAR
STARTCHAR char922
ENCODING 922
SWIDTH 4 0
DWIDTH 11 0
BBX 9 12 1 0
BITMAP
C180
C300
C600
CC00
D800
F800
EC00
C400
C600
C300
C180
C180
ENDCHAR
STARTCHAR char923
ENCODING 923
SWIDTH 4 0
DWIDTH 11 0
BBX 10 12 0 0
BITMAP
0C00
0E00
0A00
1A00
1300
1100
3100
2180
6080
60C0
40C0
C040
ENDCHAR
STARTCHAR char924
ENCODING 924
SWIDTH 21 0
DWIDTH 14 0
BBX 11 12 1 0
BITMAP
C060
E060
E0E0
E0A0
F0A0
D1A0
D120
D920
CB20
CA20
CE20
C620
ENDCHAR
STARTCHAR char925
ENCODING 925
SWIDTH 10 0
DWIDTH 12 0
BBX 9 12 1 0
BITMAP
C080
E080
E080
F080
D880
C880
CC80
C480
C680
C380
C180
C180
ENDCHAR
STARTCHAR char926
ENCODING 926
SWIDTH 56 0
DWIDTH 10 0
BBX 8 12 1 0
BITMAP
FF
FF
00
00
00
7E
7E
00
00
00
00
FF
ENDCHAR
STARTCHAR char927
ENCODING 927
SWIDTH 16 0
DWIDTH 13 0
BBX 11 12 1 0
BITMAP
1E00
3B80
60C0
C040
8060
8060
8060
8060
C060
C0C0
61C0
3F00
ENDCHAR
STARTCHAR char928
ENCODING 928
SWIDTH 10 0
DWIDTH 12 0
BBX 9 12 1 0
BITMAP
FF80
FF80
C080
C080
C080
C080
C080
C080
C080
C080
C080
C080
ENDCHAR
STARTCHAR char929
ENCODING 929
SWIDTH 4 0
DWIDTH 11 0
BBX 9 12 1 0
BITMAP
FC00
FF00
C180
C180
C180
C300
FE00
C000
C000
C000
C000
C000
ENDCHAR
STARTCHAR char931
ENCODING 931
SWIDTH 56 0
DWIDTH 10 0
BBX 9 12 1 0
BITMAP
FF00
FF00
6000
2000
3000
1800
1800
3000
6000
4000
C000
FF80
ENDCHAR
STARTCHAR char932
ENCODING 932
SWIDTH 56 0
DWIDTH 10 0
BBX 10 12 0 0
BITMAP
FFC0
FFC0
0C00
0C00
0C00
0C00
0C00
0C00
0C00
0C00
0C00
0C00
ENDCHAR
STARTCHAR char933
ENCODING 933
SWIDTH 4 0
DWIDTH 11 0
BBX 10 12 0 0
BITMAP
C040
60C0
2080
3180
1B00
0A00
0E00
0400
0400
0400
0400
0400
ENDCHAR
STARTCHAR char934
ENCODING 934
SWIDTH 10 0
DWIDTH 12 0
BBX 10 12 1 0
BITMAP
0C00
0C00
7F00
CC80
8CC0
8C40
8C40
8CC0
CCC0
7F80
0C00
0C00
ENDCHAR
STARTCHAR char935
ENCODING 935
SWIDTH 4 0
DWIDTH 11 0
BBX 9 12 1 0
BITMAP
8180
C100
6300
2600
3400
1800
1800
3C00
2600
6300
C300
8180
ENDCHAR
STARTCHAR char936
ENCODING 936
SWIDTH 10 0
DWIDTH 12 0
BBX 10 12 1 0
BITMAP
8000
8C40
8C40
8C40
8C40
8C40
8C40
CCC0
7F80
0C00
0C00
0C00
ENDCHAR
STARTCHAR char937
ENCODING 937
SWIDTH 10 0
DWIDTH 12 0
BBX 10 12 1 0
BITMAP
1E00
3380
4080
C0C0
8040
8040
8040
8040
C0C0
4080
2300
F3C0
ENDCHAR
STARTCHAR char938
ENCODING 938
SWIDTH 22 0
DWIDTH 4 0
BBX 4 14 0 0
BITMAP
D0
00
20
20
20
20
20
20
20
20
20
20
20
20
ENDCHAR
STARTCHAR char939
ENCODING 939
SWIDTH 4 0
DWIDTH 11 0
BBX 10 14 0 0
BITMAP
1B00
0000
C040
60C0
2080
3180
1B00
0A00
0E00
0400
0400
0400
0400
0400
ENDCHAR
STARTCHAR char940
ENCODING 940
SWIDTH 50 0
DWIDTH 9 0
BBX 9 12 0 0
BITMAP
0200
0400
0800
0000
3F00
4300
4300
C300
4300
4300
6300
3D80
ENDCHAR
STARTCHAR char941
ENCODING 941
SWIDTH 44 0
DWIDTH 8 0
BBX 6 12 1 0
BITMAP
0C
18
10
00
FC
84
80
F0
C0
80
84
FC
ENDCHAR
STARTCHAR char942
ENCODING 942
SWIDTH 50 0
DWIDTH 9 0
BBX 8 15 0 -3
BITMAP
06
04
08
00
DE
63
63
43
43
43
43
43
03
03
03
ENDCHAR
STARTCHAR char943
ENCODING 943
SWIDTH 28 0
DWIDTH 5 0
BBX 3 12 1 0
BITMAP
20
40
00
00
80
80
80
80
80
80
C0
E0
ENDCHAR
STARTCHAR char944
ENCODING 944
SWIDTH 50 0
DWIDTH 9 0
BBX 7 12 1 0
BITMAP
10
54
00
00
82
82
82
82
82
86
C6
7C
ENDCHAR
STARTCHAR char945
ENCODING 945
SWIDTH 50 0
DWIDTH 9 0
BBX 9 8 0 1
BITMAP
3F00
4300
4300
C300
4300
4300
6300
3D80
ENDCHAR
STARTCHAR char946
ENCODING 946
SWIDTH 50 0
DWIDTH 9 0
BBX 7 15 1 -3
BITMAP
38
6C
C4
84
84
B8
BC
86
82
82
C6
BC
80
80
80
ENDCHAR
STARTCHAR char947
ENCODING 947
SWIDTH 44 0
DWIDTH 8 0
BBX 8 12 0 -3
BITMAP
80
C3
62
22
36
14
14
18
08
08
08
08
ENDCHAR
STARTCHAR char948
ENCODING 948
SWIDTH 50 0
DWIDTH 9 0
BBX 8 12 0 0
BITMAP
7E
60
30
0C
3E
63
41
41
C1
41
63
3E
ENDCHAR
STARTCHAR char949
ENCODING 949
SWIDTH 44 0
DWIDTH 8 0
BBX 6 8 1 1
BITMAP
FC
84
80
F0
C0
80
84
FC
ENDCHAR
STARTCHAR char950
ENCODING 950
SWIDTH 39 0
DWIDTH 7 0
BBX 7 14 0 -3
BITMAP
7C
18
30
20
60
40
40
C0
40
60
3E
02
02
06
ENDCHAR
STARTCHAR char951
ENCODING 951
SWIDTH 50 0
DWIDTH 9 0
BBX 8 11 0 -2
BITMAP
DE
63
63
43
43
43
43
43
03
03
03
ENDCHAR
STARTCHAR char952
ENCODING 952
SWIDTH 44 0
DWIDTH 8 0
BBX 8 12 0 0
BITMAP
18
3E
42
42
42
C3
FF
43
42
42
66
3C
ENDCHAR
STARTCHAR char953
ENCODING 953
SWIDTH 28 0
DWIDTH 5 0
BBX 3 8 1 0
BITMAP
80
80
80
80
80
80
C0
E0
ENDCHAR
STARTCHAR char954
ENCODING 954
SWIDTH 44 0
DWIDTH 8 0
BBX 7 8 1 0
BITMAP
8C
98
B0
F0
D8
98
8C
86
ENDCHAR
STARTCHAR char955
ENCODING 955
SWIDTH 50 0
DWIDTH 9 0
BBX 8 12 0 0
BITMAP
60
70
10
18
18
18
3C
24
64
66
42
C3
ENDCHAR
STARTCHAR char956
ENCODING 956
SWIDTH 50 0
DWIDTH 9 0
BBX 7 11 1 -3
BITMAP
86
86
86
86
86
C6
CE
BE
80
80
80
ENDCHAR
STARTCHAR char957
ENCODING 957
SWIDTH 44 0
DWIDTH 8 0
BBX 7 8 0 0
BITMAP
C2
42
66
24
24
3C
18
18
ENDCHAR
STARTCHAR char958
ENCODING 958
SWIDTH 44 0
DWIDTH 8 0
BBX 7 14 0 -3
BITMAP
7E
20
40
60
30
3C
40
40
C0
60
3E
02
02
02
ENDCHAR
STARTCHAR char959
ENCODING 959
SWIDTH 50 0
DWIDTH 9 0
BBX 8 9 0 0
BITMAP
08
3E
63
41
C1
41
41
63
3E
ENDCHAR
STARTCHAR char960
ENCODING 960
SWIDTH 56 0
DWIDTH 10 0
BBX 9 8 0 0
BITMAP
FF80
6100
6100
6100
6100
6100
6100
6180
ENDCHAR
STARTCHAR char961
ENCODING 961
SWIDTH 50 0
DWIDTH 9 0
BBX 8 12 1 -3
BITMAP
10
7E
C2
C3
83
83
C2
C6
BC
80
80
80
ENDCHAR
STARTCHAR char962
ENCODING 962
SWIDTH 50 0
DWIDTH 9 0
BBX 8 12 0 -3
BITMAP
08
3E
63
41
C0
40
60
38
1F
01
03
03
ENDCHAR
STARTCHAR char963
ENCODING 963
SWIDTH 56 0
DWIDTH 10 0
BBX 9 9 0 0
BITMAP
0800
3F80
6300
4100
C100
4100
4100
6300
3E00
ENDCHAR
STARTCHAR char964
ENCODING 964
SWIDTH 44 0
DWIDTH 8 0
BBX 8 8 0 0
BITMAP
FF
10
10
10
10
10
10
1C
ENDCHAR
STARTCHAR char965
ENCODING 965
SWIDTH 50 0
DWIDTH 9 0
BBX 7 8 1 0
BITMAP
82
82
82
82
82
86
C6
7C
ENDCHAR
STARTCHAR char966
ENCODING 966
SWIDTH 4 0
DWIDTH 11 0
BBX 10 11 1 -3
BITMAP
4F00
C980
88C0
8840
8840
88C0
C980
7F00
0800
0800
0800
ENDCHAR
STARTCHAR char967
ENCODING 967
SWIDTH 50 0
DWIDTH 9 0
BBX 9 12 0 -3
BITMAP
C000
E100
2300
3200
1600
1C00
0C00
1C00
1600
3200
6300
4180
ENDCHAR
STARTCHAR char968
ENCODING 968
SWIDTH 4 0
DWIDTH 11 0
BBX 9 11 1 -3
BITMAP
8880
8880
8880
8880
8880
C880
C980
7F00
0800
0800
0800
ENDCHAR
STARTCHAR char969
ENCODING 969
SWIDTH 10 0
DWIDTH 12 0
BBX 11 8 0 0
BITMAP
6040
4060
4620
4620
C620
4620
4660
3BC0
ENDCHAR
STARTCHAR char970
ENCODING 970
SWIDTH 28 0
DWIDTH 5 0
BBX 5 11 -1 0
BITMAP
D8
00
00
20
20
20
20
20
20
30
38
ENDCHAR
STARTCHAR char971
ENCODING 971
SWIDTH 50 0
DWIDTH 9 0
BBX 7 11 1 0
BITMAP
6C
00
00
82
82
82
82
82
86
C6
7C
ENDCHAR
STARTCHAR char972
ENCODING 972
SWIDTH 50 0
DWIDTH 9 0
BBX 8 12 0 0
BITMAP
06
04
00
08
3E
63
41
C1
41
41
63
3E
ENDCHAR
STARTCHAR char973
ENCODING 973
SWIDTH 50 0
DWIDTH 9 0
BBX 7 12 1 0
BITMAP
0C
18
00
00
82
82
82
82
82
86
C6
7C
ENDCHAR
STARTCHAR char974
ENCODING 974
SWIDTH 10 0
DWIDTH 12 0
BBX 11 12 0 0
BITMAP
0180
0300
0000
0000
6040
4060
4620
4620
C620
4620
4660
3BC0
ENDCHAR
STARTCHAR char977
ENCODING 977
SWIDTH 50 0
DWIDTH 9 0
BBX 8 12 1 0
BITMAP
18
3C
64
44
44
44
7F
04
84
84
CC
78
ENDCHAR
STARTCHAR char978
ENCODING 978
SWIDTH 4 0
DWIDTH 11 0
BBX 11 12 0 0
BITMAP
C1C0
E3E0
3200
1400
1C00
0C00
0C00
0C00
0C00
0C00
0C00
0C00
ENDCHAR
STARTCHAR char979
ENCODING 979
SWIDTH 21 0
DWIDTH 14 0
BBX 14 12 0 0
BITMAP
7818
5E7C
8640
03C0
0180
0180
0180
0180
0180
0180
0180
0180
ENDCHAR
STARTCHAR char980
ENCODING 980
SWIDTH 4 0
DWIDTH 11 0
BBX 11 14 0 0
BITMAP
1600
0000
C1C0
E3E0
3200
1400
1C00
0C00
0C00
0C00
0C00
0C00
0C00
0C00
ENDCHAR
STARTCHAR char981
ENCODING 981
SWIDTH 4 0
DWIDTH 11 0
BBX 11 14 0 -3
BITMAP
0400
0400
0E00
3F80
64C0
4460
C460
4460
4440
64C0
3F80
0400
0400
0400
ENDCHAR
STARTCHAR char982
ENCODING 982
SWIDTH 10 0
DWIDTH 12 0
BBX 11 9 0 0
BITMAP
FFE0
FFE0
4060
4620
4620
C620
4620
4660
3BC0
ENDCHAR
STARTCHAR char983
ENCODING 983
SWIDTH 50 0
DWIDTH 9 0
BBX 9 11 0 -3
BITMAP
F300
1A00
1C00
1C00
1800
3800
6600
4380
0180
0180
0380
ENDCHAR
STARTCHAR char1008
ENCODING 1008
SWIDTH 50 0
DWIDTH 9 0
BBX 9 9 0 0
BITMAP
2000
F100
1A00
0E00
1C00
1C00
3C00
2C80
4780
ENDCHAR
STARTCHAR char1009
ENCODING 1009
SWIDTH 50 0
DWIDTH 9 0
BBX 8 12 1 -3
BITMAP
10
7E
C2
C3
83
83
C3
C6
BC
80
C6
7E
ENDCHAR
STARTCHAR char1010
ENCODING 1010
SWIDTH 39 0
DWIDTH 7 0
BBX 6 8 0 0
BITMAP
3C
60
40
C0
40
40
60
3C
ENDCHAR
STARTCHAR char1011
ENCODING 1011
SWIDTH 22 0
DWIDTH 4 0
BBX 3 15 0 -3
BITMAP
60
60
00
00
60
60
60
60
60
60
60
60
60
60
E0
ENDCHAR
STARTCHAR char1012
ENCODING 1012
SWIDTH 16 0
DWIDTH 13 0
BBX 11 12 1 0
BITMAP
1E00
3B80
60C0
C040
8060
8060
FFE0
8060
C060
C0C0
61C0
3F00
ENDCHAR
STARTCHAR char1013
ENCODING 1013
SWIDTH 28 0
DWIDTH 5 0
BBX 4 8 0 0
BITMAP
30
40
40
F0
40
40
60
30
ENDCHAR
STARTCHAR char1014
ENCODING 1014
SWIDTH 28 0
DWIDTH 5 0
BBX 3 8 1 0
BITMAP
C0
60
20
20
E0
20
60
C0
ENDCHAR
STARTCHAR char1017
ENCODING 1017
SWIDTH 56 0
DWIDTH 10 0
BBX 8 12 1 0
BITMAP
1F
73
40
C0
80
80
80
80
80
C0
60
3F
ENDCHAR
STARTCHAR char1021
ENCODING 1021
SWIDTH 56 0
DWIDTH 10 0
BBX 9 12 0 -1
BITMAP
FE00
0300
0180
0180
0080
0080
0080
0080
0180
0100
E700
FC00
ENDCHAR
STARTCHAR char1022
ENCODING 1022
SWIDTH 56 0
DWIDTH 10 0
BBX 8 12 1 0
BITMAP
1F
73
40
C0
80
80
84
80
80
C0
60
3F
ENDCHAR
STARTCHAR char1023
ENCODING 1023
SWIDTH 56 0
DWIDTH 10 0
BBX 9 12 0 -1
BITMAP
FE00
0300
0180
0180
0080
1880
0080
0080
0180
0100
E700
FC00
ENDCHAR
STARTCHAR char1024
ENCODING 1024
SWIDTH 56 0
DWIDTH 10 0
BBX 9 14 1 0
BITMAP
1800
0400
FF00
FF00
C000
C000
C000
FF00
FF00
C000
C000
C000
C000
FF80
ENDCHAR
STARTCHAR char1025
ENCODING 1025
SWIDTH 56 0
DWIDTH 10 0
BBX 9 14 1 0
BITMAP
3600
0000
FF00
FF00
C000
C000
C000
FF00
FF00
C000
C000
C000
C000
FF80
ENDCHAR
STARTCHAR char1026
ENCODING 1026
SWIDTH 10 0
DWIDTH 12 0
BBX 12 14 0 -2
BITMAP
FF00
FF00
0800
0800
0800
0FE0
0820
0830
0830
0830
0830
0830
0020
00E0
ENDCHAR
STARTCHAR char1027
ENCODING 1027
SWIDTH 56 0
DWIDTH 10 0
BBX 8 14 1 0
BITMAP
0C
10
FF
FF
C0
C0
C0
C0
C0
C0
C0
C0
C0
C0
ENDCHAR
STARTCHAR char1028
ENCODING 1028
SWIDTH 4 0
DWIDTH 11 0
BBX 10 12 1 0
BITMAP
1E00
7700
4180
C080
8000
FE00
FE00
8000
80C0
C080
6180
3F00
ENDCHAR
STARTCHAR char1029
ENCODING 1029
SWIDTH 4 0
DWIDTH 11 0
BBX 9 12 1 0
BITMAP
3C00
6700
C100
C180
C000
7800
1F00
0380
8180
8180
C100
7F00
ENDCHAR
STARTCHAR char1030
ENCODING 1030
SWIDTH 22 0
DWIDTH 4 0
BBX 1 12 2 0
BITMAP
80
80
80
80
80
80
80
80
80
80
80
80
ENDCHAR
STARTCHAR char1031
ENCODING 1031
SWIDTH 28 0
DWIDTH 5 0
BBX 5 14 0 0
BITMAP
D8
00
20
20
20
20
20
20
20
20
20
20
20
20
ENDCHAR
STARTCHAR char1032
ENCODING 1032
SWIDTH 44 0
DWIDTH 8 0
BBX 6 12 1 0
BITMAP
04
04
04
04
04
04
04
04
84
84
8C
F8
ENDCHAR
STARTCHAR char1033
ENCODING 1033
SWIDTH 32 0
DWIDTH 16 0
BBX 15 12 0 0
BITMAP
3F80
3F80
3180
3180
3180
31F8
31FE
3182
2182
2182
E186
C1FC
ENDCHAR
STARTCHAR char1034
ENCODING 1034
SWIDTH 32 0
DWIDTH 16 0
BBX 14 12 1 0
BITMAP
C100
C100
C100
C100
C100
FFF0
FFFC
C104
C104
C104
C10C
C1F8
ENDCHAR
STARTCHAR char1035
ENCODING 1035
SWIDTH 10 0
DWIDTH 12 0
BBX 12 12 0 0
BITMAP
FF00
FF00
0800
0800
0800
0FE0
0820
0830
0830
0830
0830
0830
ENDCHAR
STARTCHAR char1036
ENCODING 1036
SWIDTH 56 0
DWIDTH 10 0
BBX 8 14 1 0
BITMAP
0C
10
C3
C6
CC
D8
F0
E0
F0
D8
CC
C4
C2
C3
ENDCHAR
STARTCHAR char1037
ENCODING 1037
SWIDTH 10 0
DWIDTH 12 0
BBX 9 14 1 0
BITMAP
1800
0400
C080
C180
C380
C280
C680
C480
C880
D880
D080
F080
E080
C080
ENDCHAR
STARTCHAR char1038
ENCODING 1038
SWIDTH 56 0
DWIDTH 10 0
BBX 10 14 0 0
BITMAP
1200
0C00
C0C0
6180
6180
3300
3300
1E00
1E00
0C00
0C00
1800
1800
3000
ENDCHAR
STARTCHAR char1039
ENCODING 1039
SWIDTH 10 0
DWIDTH 12 0
BBX 9 14 1 -2
BITMAP
C080
C080
C080
C080
C080
C080
C080
C080
C080
C080
C080
FF80
0800
0800
ENDCHAR
STARTCHAR char1040
ENCODING 1040
SWIDTH 4 0
DWIDTH 11 0
BBX 10 12 0 0
BITMAP
0C00
0E00
0A00
1A00
1300
1100
3100
3F80
7F80
60C0
40C0
C040
ENDCHAR
STARTCHAR char1041
ENCODING 1041
SWIDTH 4 0
DWIDTH 11 0
BBX 9 12 1 0
BITMAP
FF00
FF00
C000
C000
C000
FE00
C300
C180
C180
C180
C300
FF00
ENDCHAR
STARTCHAR char1042
ENCODING 1042
SWIDTH 4 0
DWIDTH 11 0
BBX 9 12 1 0
BITMAP
FC00
FF00
C100
C100
C100
FE00
FF00
C180
C180
C180
C380
FF00
ENDCHAR
STARTCHAR char1043
ENCODING 1043
SWIDTH 56 0
DWIDTH 10 0
BBX 8 12 1 0
BITMAP
FF
FF
C0
C0
C0
C0
C0
C0
C0
C0
C0
C0
ENDCHAR
STARTCHAR char1044
ENCODING 1044
SWIDTH 16 0
DWIDTH 13 0
BBX 11 14 1 -2
BITMAP
1FC0
1FC0
10C0
10C0
10C0
10C0
10C0
10C0
30C0
30C0
60C0
FFE0
8020
8020
ENDCHAR
STARTCHAR char1045
ENCODING 1045
SWIDTH 56 0
DWIDTH 10 0
BBX 9 12 1 0
BITMAP
FF00
FF00
C000
C000
C000
FF00
FF00
C000
C000
C000
C000
FF80
ENDCHAR
STARTCHAR char1046
ENCODING 1046
SWIDTH 27 0
DWIDTH 15 0
BBX 13 12 1 0
BITMAP
C218
6230
2260
32C0
1A80
0F80
0F80
1AC0
3240
6260
4230
8218
ENDCHAR
STARTCHAR char1047
ENCODING 1047
SWIDTH 56 0
DWIDTH 10 0
BBX 9 12 1 0
BITMAP
3C00
6700
C100
8100
0300
0700
1F00
0180
8180
8180
C100
7E00
ENDCHAR
STARTCHAR char1048
ENCODING 1048
SWIDTH 10 0
DWIDTH 12 0
BBX 9 12 1 0
BITMAP
C080
C180
C380
C280
C680
C480
C880
D880
D080
F080
E080
C080
ENDCHAR
STARTCHAR char1049
ENCODING 1049
SWIDTH 10 0
DWIDTH 12 0
BBX 9 14 1 0
BITMAP
1200
1C00
C080
C180
C380
C280
C680
C480
C880
D880
D080
F080
E080
C080
ENDCHAR
STARTCHAR char1050
ENCODING 1050
SWIDTH 56 0
DWIDTH 10 0
BBX 8 12 1 0
BITMAP
C3
C6
CC
D8
F0
E0
F0
D8
CC
C4
C2
C3
ENDCHAR
STARTCHAR char1051
ENCODING 1051
SWIDTH 4 0
DWIDTH 11 0
BBX 9 12 0 0
BITMAP
3F80
3F80
3080
3080
3080
3080
3080
3080
2080
2080
6080
C080
ENDCHAR
STARTCHAR char1052
ENCODING 1052
SWIDTH 21 0
DWIDTH 14 0
BBX 11 12 1 0
BITMAP
C060
E060
E0E0
E0A0
F0A0
D1A0
D120
D920
CB20
CA20
CE20
C620
ENDCHAR
STARTCHAR char1053
ENCODING 1053
SWIDTH 10 0
DWIDTH 12 0
BBX 9 12 1 0
BITMAP
C080
C080
C080
C080
C080
FF80
FF80
C080
C080
C080
C080
C080
ENDCHAR
STARTCHAR char1054
ENCODING 1054
SWIDTH 16 0
DWIDTH 13 0
BBX 11 12 1 0
BITMAP
1E00
3B80
60C0
C040
8060
8060
8060
8060
C060
C0C0
61C0
3F00
ENDCHAR
STARTCHAR char1055
ENCODING 1055
SWIDTH 10 0
DWIDTH 12 0
BBX 9 12 1 0
BITMAP
FF80
FF80
C080
C080
C080
C080
C080
C080
C080
C080
C080
C080
ENDCHAR
STARTCHAR char1056
ENCODING 1056
SWIDTH 56 0
DWIDTH 10 0
BBX 9 12 1 0
BITMAP
FC00
FF00
C180
C180
C180
C300
FE00
C000
C000
C000
C000
C000
ENDCHAR
STARTCHAR char1057
ENCODING 1057
SWIDTH 4 0
DWIDTH 11 0
BBX 10 12 1 0
BITMAP
1E00
7700
4180
C080
8000
8000
8000
8000
80C0
C080
6180
3F00
ENDCHAR
STARTCHAR char1058
ENCODING 1058
SWIDTH 56 0
DWIDTH 10 0
BBX 10 12 0 0
BITMAP
FFC0
FFC0
0C00
0C00
0C00
0C00
0C00
0C00
0C00
0C00
0C00
0C00
ENDCHAR
STARTCHAR char1059
ENCODING 1059
SWIDTH 56 0
DWIDTH 10 0
BBX 10 12 0 0
BITMAP
C0C0
6180
6180
3300
3300
1E00
1E00
0C00
0C00
1800
1800
3000
ENDCHAR
STARTCHAR char1060
ENCODING 1060
SWIDTH 21 0
DWIDTH 14 0
BBX 12 12 1 0
BITMAP
0600
0600
3FC0
E660
C630
8630
8630
C630
C660
7FE0
0600
0600
ENDCHAR
STARTCHAR char1061
ENCODING 1061
SWIDTH 4 0
DWIDTH 11 0
BBX 9 12 1 0
BITMAP
8180
C100
6300
2600
3400
1800
1800
3C00
2600
6300
C300
8180
ENDCHAR
STARTCHAR char1062
ENCODING 1062
SWIDTH 10 0
DWIDTH 12 0
BBX 10 14 1 -2
BITMAP
C080
C080
C080
C080
C080
C080
C080
C080
C080
C080
C080
FFC0
0040
0040
ENDCHAR
STARTCHAR char1063
ENCODING 1063
SWIDTH 56 0
DWIDTH 10 0
BBX 8 12 1 0
BITMAP
83
83
83
83
83
83
FF
3F
03
03
03
03
ENDCHAR
STARTCHAR char1064
ENCODING 1064
SWIDTH 16 0
DWIDTH 13 0
BBX 11 12 1 0
BITMAP
C460
C460
C460
C460
C460
C460
C460
C460
C460
C460
C460
FFE0
ENDCHAR
STARTCHAR char1065
ENCODING 1065
SWIDTH 21 0
DWIDTH 14 0
BBX 12 14 1 -2
BITMAP
C460
C460
C460
C460
C460
C460
C460
C460
C460
C460
C460
FFF0
0010
0010
ENDCHAR
STARTCHAR char1066
ENCODING 1066
SWIDTH 21 0
DWIDTH 14 0
BBX 13 12 0 0
BITMAP
FC00
FC00
0C00
0C00
0C00
0FE0
0C30
0C18
0C18
0C18
0C30
0FE0
ENDCHAR
STARTCHAR char1067
ENCODING 1067
SWIDTH 21 0
DWIDTH 14 0
BBX 12 12 1 0
BITMAP
C030
C030
C030
C030
C030
FF30
C1B0
C1B0
C1B0
C1B0
C330
FE30
ENDCHAR
STARTCHAR char1068
ENCODING 1068
SWIDTH 4 0
DWIDTH 11 0
BBX 9 12 1 0
BITMAP
C000
C000
C000
C000
C000
FF00
C180
C180
C180
C180
C300
FE00
ENDCHAR
STARTCHAR char1069
ENCODING 1069
SWIDTH 4 0
DWIDTH 11 0
BBX 10 12 1 0
BITMAP
3C00
7700
C180
C080
00C0
3FC0
3FC0
00C0
8080
C180
4300
7E00
ENDCHAR
STARTCHAR char1070
ENCODING 1070
SWIDTH 32 0
DWIDTH 16 0
BBX 14 12 1 0
BITMAP
C1E0
C738
C408
CC0C
C804
F804
F804
C804
C80C
CC0C
C618
C3F0
ENDCHAR
STARTCHAR char1071
ENCODING 1071
SWIDTH 4 0
DWIDTH 11 0
BBX 9 12 1 0
BITMAP
3F80
7F80
C180
8180
C180
6180
3F80
1980
3180
6180
4180
8180
ENDCHAR
STARTCHAR char1072
ENCODING 1072
SWIDTH 50 0
DWIDTH 9 0
BBX 7 9 1 0
BITMAP
30
FC
84
04
7C
C4
84
8C
FE
ENDCHAR
STARTCHAR char1073
ENCODING 1073
SWIDTH 50 0
DWIDTH 9 0
BBX 8 12 0 0
BITMAP
06
3C
60
58
7E
63
41
C1
41
43
63
3E
ENDCHAR
STARTCHAR char1074
ENCODING 1074
SWIDTH 44 0
DWIDTH 8 0
BBX 6 8 1 0
BITMAP
FC
8C
8C
F8
8C
84
8C
F8
ENDCHAR
STARTCHAR char1075
ENCODING 1075
SWIDTH 33 0
DWIDTH 6 0
BBX 5 8 1 0
BITMAP
F8
80
80
80
80
80
80
80
ENDCHAR
STARTCHAR char1076
ENCODING 1076
SWIDTH 50 0
DWIDTH 9 0
BBX 9 10 0 -2
BITMAP
1F00
1100
3100
3100
3100
3100
2100
FF80
8080
8080
ENDCHAR
STARTCHAR char1077
ENCODING 1077
SWIDTH 50 0
DWIDTH 9 0
BBX 8 9 0 0
BITMAP
18
3E
43
41
FF
40
41
63
3E
ENDCHAR
STARTCHAR char1078
ENCODING 1078
SWIDTH 10 0
DWIDTH 12 0
BBX 11 8 1 0
BITMAP
CCC0
2D80
3F00
1E00
1F00
2D80
4CC0
8C60
ENDCHAR
STARTCHAR char1079
ENCODING 1079
SWIDTH 44 0
DWIDTH 8 0
BBX 7 9 0 0
BITMAP
18
7C
46
06
1C
06
C2
42
7E
ENDCHAR
STARTCHAR char1080
ENCODING 1080
SWIDTH 50 0
DWIDTH 9 0
BBX 7 8 1 0
BITMAP
86
8E
9E
96
B6
A6
E6
C6
ENDCHAR
STARTCHAR char1081
ENCODING 1081
SWIDTH 50 0
DWIDTH 9 0
BBX 7 11 1 0
BITMAP
44
38
00
86
8E
9E
96
B6
A6
E6
C6
ENDCHAR
STARTCHAR char1082
ENCODING 1082
SWIDTH 44 0
DWIDTH 8 0
BBX 6 8 1 0
BITMAP
8C
90
A0
C0
E0
B0
98
8C
ENDCHAR
STARTCHAR char1083
ENCODING 1083
SWIDTH 44 0
DWIDTH 8 0
BBX 7 8 0 0
BITMAP
3E
22
22
22
62
62
42
C2
ENDCHAR
STARTCHAR char1084
ENCODING 1084
SWIDTH 56 0
DWIDTH 10 0
BBX 8 8 1 0
BITMAP
C3
C7
E7
AF
BB
9B
9B
83
ENDCHAR
STARTCHAR char1085
ENCODING 1085
SWIDTH 50 0
DWIDTH 9 0
BBX 7 8 1 0
BITMAP
86
86
86
FE
86
86
86
86
ENDCHAR
STARTCHAR char1086
ENCODING 1086
SWIDTH 50 0
DWIDTH 9 0
BBX 8 9 0 0
BITMAP
18
3E
63
41
C1
41
43
63
3E
ENDCHAR
STARTCHAR char1087
ENCODING 1087
SWIDTH 50 0
DWIDTH 9 0
BBX 7 8 1 0
BITMAP
FE
86
86
86
86
86
86
86
ENDCHAR
STARTCHAR char1088
ENCODING 1088
SWIDTH 50 0
DWIDTH 9 0
BBX 7 12 1 -3
BITMAP
18
FC
C6
82
82
82
C2
C6
BC
80
80
80
ENDCHAR
STARTCHAR char1089
ENCODING 1089
SWIDTH 44 0
DWIDTH 8 0
BBX 8 9 0 0
BITMAP
18
3E
42
40
C0
40
43
62
3E
ENDCHAR
STARTCHAR char1090
ENCODING 1090
SWIDTH 39 0
DWIDTH 7 0
BBX 6 8 0 0
BITMAP
FC
10
10
10
10
10
10
10
ENDCHAR
STARTCHAR char1091
ENCODING 1091
SWIDTH 44 0
DWIDTH 8 0
BBX 7 11 0 -3
BITMAP
C2
46
64
64
2C
38
38
18
10
30
60
ENDCHAR
STARTCHAR char1092
ENCODING 1092
SWIDTH 21 0
DWIDTH 14 0
BBX 13 14 0 -3
BITMAP
0200
0200
1A60
7EF0
4318
4308
C208
C208
4308
6718
3EF0
0200
0200
0200
ENDCHAR
STARTCHAR char1093
ENCODING 1093
SWIDTH 44 0
DWIDTH 8 0
BBX 6 8 1 0
BITMAP
8C
48
70
30
30
58
C8
84
ENDCHAR
STARTCHAR char1094
ENCODING 1094
SWIDTH 50 0
DWIDTH 9 0
BBX 8 10 1 -2
BITMAP
86
86
86
86
86
86
86
FF
03
03
ENDCHAR
STARTCHAR char1095
ENCODING 1095
SWIDTH 44 0
DWIDTH 8 0
BBX 6 8 1 0
BITMAP
84
84
84
C4
7C
04
04
04
ENDCHAR
STARTCHAR char1096
ENCODING 1096
SWIDTH 4 0
DWIDTH 11 0
BBX 9 8 1 0
BITMAP
8980
8980
8980
8980
8980
8980
8980
FF80
ENDCHAR
STARTCHAR char1097
ENCODING 1097
SWIDTH 4 0
DWIDTH 11 0
BBX 10 10 1 -2
BITMAP
8980
8980
8980
8980
8980
8980
8980
FFC0
0040
0040
ENDCHAR
STARTCHAR char1098
ENCODING 1098
SWIDTH 56 0
DWIDTH 10 0
BBX 10 8 0 0
BITMAP
F800
1800
1800
1F80
18C0
18C0
18C0
1F80
ENDCHAR
STARTCHAR char1099
ENCODING 1099
SWIDTH 4 0
DWIDTH 11 0
BBX 9 8 1 0
BITMAP
8180
8180
8180
FD80
8580
8780
8580
FD80
ENDCHAR
STARTCHAR char1100
ENCODING 1100
SWIDTH 44 0
DWIDTH 8 0
BBX 7 8 1 0
BITMAP
80
80
80
FC
84
86
84
FC
ENDCHAR
STARTCHAR char1101
ENCODING 1101
SWIDTH 44 0
DWIDTH 8 0
BBX 7 9 1 0
BITMAP
30
F8
84
04
3E
06
84
8C
F8
ENDCHAR
STARTCHAR char1102
ENCODING 1102
SWIDTH 10 0
DWIDTH 12 0
BBX 10 9 1 0
BITMAP
0300
8F80
98C0
9040
F040
9040
9040
98C0
8F80
ENDCHAR
STARTCHAR char1103
ENCODING 1103
SWIDTH 44 0
DWIDTH 8 0
BBX 7 8 1 0
BITMAP
7E
C6
C6
FE
3E
66
46
86
ENDCHAR
STARTCHAR char1104
ENCODING 1104
SWIDTH 50 0
DWIDTH 9 0
BBX 8 12 0 0
BITMAP
10
08
04
18
3E
43
41
FF
40
41
63
3E
ENDCHAR
STARTCHAR char1105
ENCODING 1105
SWIDTH 50 0
DWIDTH 9 0
BBX 8 11 0 0
BITMAP
36
00
18
3E
43
41
FF
40
41
63
3E
ENDCHAR
STARTCHAR char1106
ENCODING 1106
SWIDTH 50 0
DWIDTH 9 0
BBX 8 15 0 -3
BITMAP
20
FC
20
20
3F
31
21
21
21
21
21
21
03
06
08
ENDCHAR
STARTCHAR char1107
ENCODING 1107
SWIDTH 33 0
DWIDTH 6 0
BBX 5 12 1 0
BITMAP
30
20
40
00
F8
80
80
80
80
80
80
80
ENDCHAR
STARTCHAR char1108
ENCODING 1108
SWIDTH 44 0
DWIDTH 8 0
BBX 8 9 0 0
BITMAP
18
3E
42
40
F8
40
43
62
3E
ENDCHAR
STARTCHAR char1109
ENCODING 1109
SWIDTH 44 0
DWIDTH 8 0
BBX 6 9 1 0
BITMAP
30
FC
84
80
F0
1C
84
84
FC
ENDCHAR
STARTCHAR char1110
ENCODING 1110
SWIDTH 22 0
DWIDTH 4 0
BBX 1 12 1 0
BITMAP
80
80
00
00
80
80
80
80
80
80
80
80
ENDCHAR
STARTCHAR char1111
ENCODING 1111
SWIDTH 22 0
DWIDTH 4 0
BBX 4 11 0 0
BITMAP
D0
00
00
60
60
60
60
60
60
60
60
ENDCHAR
STARTCHAR char1112
ENCODING 1112
SWIDTH 22 0
DWIDTH 4 0
BBX 3 15 0 -3
BITMAP
60
60
00
00
60
60
60
60
60
60
60
60
60
60
E0
ENDCHAR
STARTCHAR char1113
ENCODING 1113
SWIDTH 16 0
DWIDTH 13 0
BBX 12 8 0 0
BITMAP
3E00
2200
2200
23E0
6230
6210
4230
C3E0
ENDCHAR
STARTCHAR char1114
ENCODING 1114
SWIDTH 16 0
DWIDTH 13 0
BBX 12 8 1 0
BITMAP
8600
8600
8600
FFE0
8630
8630
8630
87E0
ENDCHAR
STARTCHAR char1115
ENCODING 1115
SWIDTH 50 0
DWIDTH 9 0
BBX 8 12 0 0
BITMAP
20
FC
20
20
3F
31
21
21
21
21
21
21
ENDCHAR
STARTCHAR char1116
ENCODING 1116
SWIDTH 44 0
DWIDTH 8 0
BBX 6 12 1 0
BITMAP
18
30
20
00
8C
90
A0
C0
E0
B0
98
8C
ENDCHAR
STARTCHAR char1117
ENCODING 1117
SWIDTH 50 0
DWIDTH 9 0
BBX 7 12 1 0
BITMAP
60
30
10
00
86
8E
9E
96
B6
A6
E6
C6
ENDCHAR
STARTCHAR char1118
ENCODING 1118
SWIDTH 44 0
DWIDTH 8 0
BBX 7 14 0 -3
BITMAP
64
38
00
C2
46
64
64
2C
38
38
18
10
30
60
ENDCHAR
STARTCHAR char1119
ENCODING 1119
SWIDTH 50 0
DWIDTH 9 0
BBX 7 10 1 -2
BITMAP
86
86
86
86
86
86
86
FE
10
10
ENDCHAR
STARTCHAR char1120
ENCODING 1120
SWIDTH 27 0
DWIDTH 15 0
BBX 15 12 0 0
BITMAP
C006
C106
C106
C104
4384
438C
638C
6688
26D8
3CD8
3C70
1870
ENDCHAR
STARTCHAR char1121
ENCODING 1121
SWIDTH 4 0
DWIDTH 11 0
BBX 11 8 0 0
BITMAP
C460
C460
C440
4E40
4E40
6AC0
3B80
3180
ENDCHAR
STARTCHAR char1122
ENCODING 1122
SWIDTH 16 0
DWIDTH 13 0
BBX 12 12 0 0
BITMAP
0800
0800
FF00
0800
0800
0FE0
0830
0810
0810
0810
0830
0FE0
ENDCHAR
STARTCHAR char1123
ENCODING 1123
SWIDTH 56 0
DWIDTH 10 0
BBX 10 10 0 0
BITMAP
1000
1000
FE00
1000
1000
1F80
10C0
10C0
1080
1F80
ENDCHAR
STARTCHAR char1124
ENCODING 1124
SWIDTH 27 0
DWIDTH 15 0
BBX 12 12 2 0
BITMAP
83C0
8EE0
9830
9010
9000
FFC0
FFC0
9000
9010
9830
8C30
87E0
ENDCHAR
STARTCHAR char1125
ENCODING 1125
SWIDTH 4 0
DWIDTH 11 0
BBX 10 9 1 0
BITMAP
0600
8F80
9880
9000
FF00
9000
90C0
9880
8F80
ENDCHAR
STARTCHAR char1126
ENCODING 1126
SWIDTH 16 0
DWIDTH 13 0
BBX 12 12 0 0
BITMAP
0600
0700
0F00
0D00
0980
1880
10C0
3FC0
3FE0
6620
4630
C630
ENDCHAR
STARTCHAR char1127
ENCODING 1127
SWIDTH 50 0
DWIDTH 9 0
BBX 9 8 0 0
BITMAP
1C00
1400
1400
3600
3600
7700
5D00
D980
ENDCHAR
STARTCHAR char1128
ENCODING 1128
SWIDTH 32 0
DWIDTH 16 0
BBX 14 12 2 0
BITMAP
8180
8180
83C0
8240
8660
8620
8430
FFF0
FFF8
9998
9188
B18C
ENDCHAR
STARTCHAR char1129
ENCODING 1129
SWIDTH 10 0
DWIDTH 12 0
BBX 11 8 1 0
BITMAP
8300
8500
8580
8D80
FD80
9DC0
9740
B660
ENDCHAR
STARTCHAR char1130
ENCODING 1130
SWIDTH 27 0
DWIDTH 15 0
BBX 13 12 1 0
BITMAP
3FE0
1FC0
1880
0D80
0700
0700
0F80
1AC0
3240
6260
4230
8218
ENDCHAR
STARTCHAR char1131
ENCODING 1131
SWIDTH 10 0
DWIDTH 12 0
BBX 11 8 1 0
BITMAP
7F80
3300
1E00
0E00
1F00
2D80
4CC0
8C60
ENDCHAR
STARTCHAR char1132
ENCODING 1132
SWIDTH 44 0
DWIDTH 18 0
BBX 15 12 2 0
BITMAP
8FF8
87F0
8330
8360
81C0
FFC0
83E0
82B0
8498
8C8C
9884
B086
ENDCHAR
STARTCHAR char1133
ENCODING 1133
SWIDTH 27 0
DWIDTH 15 0
BBX 13 8 1 0
BITMAP
8FF0
8660
83C0
FF80
87C0
8DA0
9990
B188
ENDCHAR
STARTCHAR char1134
ENCODING 1134
SWIDTH 56 0
DWIDTH 10 0
BBX 9 16 1 -3
BITMAP
2200
3C00
6700
C100
8100
0300
0700
1F00
0180
0180
0180
0100
FE00
8000
DC00
FE00
ENDCHAR
STARTCHAR char1135
ENCODING 1135
SWIDTH 44 0
DWIDTH 8 0
BBX 6 13 1 -3
BITMAP
88
78
F8
8C
0C
38
0C
04
04
FC
80
D8
78
ENDCHAR
STARTCHAR char1136
ENCODING 1136
SWIDTH 10 0
DWIDTH 12 0
BBX 10 12 1 0
BITMAP
8000
8C40
8C40
8C40
8C40
8C40
8C40
CCC0
7F80
0C00
0C00
0C00
ENDCHAR
STARTCHAR char1137
ENCODING 1137
SWIDTH 4 0
DWIDTH 11 0
BBX 9 11 1 -3
BITMAP
8880
8880
8880
8880
8880
C880
C980
7F00
0800
0800
0800
ENDCHAR
STARTCHAR char1138
ENCODING 1138
SWIDTH 16 0
DWIDTH 13 0
BBX 11 12 1 0
BITMAP
1E00
3B80
60C0
C040
8060
8060
FFE0
8060
C060
C0C0
61C0
3F00
ENDCHAR
STARTCHAR char1139
ENCODING 1139
SWIDTH 50 0
DWIDTH 9 0
BBX 8 9 0 0
BITMAP
18
3E
43
41
FF
41
43
63
3E
ENDCHAR
STARTCHAR char1140
ENCODING 1140
SWIDTH 10 0
DWIDTH 12 0
BBX 12 12 0 0
BITMAP
C0F0
40F0
6080
6180
2180
3100
3300
1300
1A00
0E00
0E00
0C00
ENDCHAR
STARTCHAR char1141
ENCODING 1141
SWIDTH 50 0
DWIDTH 9 0
BBX 9 8 0 0
BITMAP
C380
4200
6600
2400
2400
3C00
1800
1800
ENDCHAR
STARTCHAR char1142
ENCODING 1142
SWIDTH 10 0
DWIDTH 12 0
BBX 12 14 0 0
BITMAP
1E00
0B00
C0F0
40F0
6080
6180
2180
3100
3300
1300
1A00
0E00
0E00
0C00
ENDCHAR
STARTCHAR char1143
ENCODING 1143
SWIDTH 50 0
DWIDTH 9 0
BBX 9 12 0 0
BITMAP
6C00
2400
1400
0000
C380
4200
6600
2400
2400
3C00
1800
1800
ENDCHAR
STARTCHAR char1144
ENCODING 1144
SWIDTH 49 0
DWIDTH 19 0
BBX 17 15 1 -3
BITMAP
1E0000
730000
408000
C0C000
805080
805180
805980
804900
80CB00
C0CE00
618600
3F0600
000400
000C00
001800
ENDCHAR
STARTCHAR char1145
ENCODING 1145
SWIDTH 27 0
DWIDTH 15 0
BBX 15 12 0 -3
BITMAP
1800
7E86
42C4
424C
C34C
4368
4238
6230
3C30
0030
0020
00E0
ENDCHAR
STARTCHAR char1146
ENCODING 1146
SWIDTH 21 0
DWIDTH 14 0
BBX 12 12 1 0
BITMAP
0600
3FC0
6060
C030
8030
8010
8010
8010
C030
6060
76C0
1F80
ENDCHAR
STARTCHAR char1147
ENCODING 1147
SWIDTH 56 0
DWIDTH 10 0
BBX 9 9 0 0
BITMAP
0C00
3E00
6100
4180
C080
4080
4180
6F00
3E00
ENDCHAR
STARTCHAR char1148
ENCODING 1148
SWIDTH 27 0
DWIDTH 15 0
BBX 15 16 0 0
BITMAP
07C0
0CF0
0808
0380
C006
C106
C106
C104
4384
438C
638C
6688
26D8
3CD8
3C70
1870
ENDCHAR
STARTCHAR char1149
ENCODING 1149
SWIDTH 4 0
DWIDTH 11 0
BBX 11 13 0 0
BITMAP
1F00
33C0
2020
0E00
0000
C460
C460
C440
4E40
4E40
6AC0
3B80
3180
ENDCHAR
STARTCHAR char1150
ENCODING 1150
SWIDTH 27 0
DWIDTH 15 0
BBX 15 15 0 0
BITMAP
1FF0
1110
0100
C006
C106
C106
C104
4384
438C
638C
6688
26D8
3CD8
3C70
1870
ENDCHAR
STARTCHAR char1151
ENCODING 1151
SWIDTH 4 0
DWIDTH 11 0
BBX 11 12 0 0
BITMAP
7FC0
4440
0400
0000
C460
C460
C440
4E40
4E40
6AC0
3B80
3180
ENDCHAR
STARTCHAR char1154
ENCODING 1154
SWIDTH 39 0
DWIDTH 7 0
BBX 7 11 0 -4
BITMAP
04
04
08
38
0E
10
10
F0
3C
20
20
ENDCHAR
STARTCHAR char1155
ENCODING 1155
SWIDTH 0 0
DWIDTH 0 0
BBX 6 3 -6 10
BITMAP
04
FC
84
ENDCHAR
STARTCHAR char1156
ENCODING 1156
SWIDTH 0 0
DWIDTH 0 0
BBX 4 2 -4 10
BITMAP
70
D0
ENDCHAR
STARTCHAR char1157
ENCODING 1157
SWIDTH 0 0
DWIDTH 0 0
BBX 3 1 -4 10
BITMAP
E0
ENDCHAR
STARTCHAR char1158
ENCODING 1158
SWIDTH 0 0
DWIDTH 0 0
BBX 3 1 -4 10
BITMAP
E0
ENDCHAR
STARTCHAR char1159
ENCODING 1159
SWIDTH 0 0
DWIDTH 0 0
BBX 9 3 -9 9
BITMAP
7C00
C700
8080
ENDCHAR
STARTCHAR char1160
ENCODING 1160
SWIDTH 0 0
DWIDTH 0 0
BBX 16 16 -12 -2
BITMAP
0080
0000
2004
0000
0000
0000
0000
8001
0000
0000
0000
0000
0000
2004
0000
0080
ENDCHAR
STARTCHAR char1161
ENCODING 1161
SWIDTH 0 0
DWIDTH 0 0
BBX 17 18 -12 -4
BITMAP
008000
008000
208000
300600
100400
000000
000000
000000
400180
C00100
000000
000000
000000
100400
300600
008200
008000
008000
ENDCHAR
STARTCHAR char1162
ENCODING 1162
SWIDTH 10 0
DWIDTH 12 0
BBX 10 16 1 -2
BITMAP
1200
1C00
C080
C180
C380
C280
C680
C480
C880
D880
D080
F080
E080
C0C0
0040
0040
ENDCHAR
STARTCHAR char1163
ENCODING 1163
SWIDTH 50 0
DWIDTH 9 0
BBX 8 13 1 -2
BITMAP
44
38
00
86
8E
9E
96
B6
A6
E6
C7
01
01
ENDCHAR
STARTCHAR char1164
ENCODING 1164
SWIDTH 4 0
DWIDTH 11 0
BBX 10 12 0 0
BITMAP
2000
2000
F800
2000
2000
3F00
3FC0
2040
2040
2040
20C0
3F80
ENDCHAR
STARTCHAR char1165
ENCODING 1165
SWIDTH 44 0
DWIDTH 8 0
BBX 8 8 0 0
BITMAP
60
F0
60
7E
63
63
63
7E
ENDCHAR
STARTCHAR char1166
ENCODING 1166
SWIDTH 56 0
DWIDTH 10 0
BBX 9 12 1 0
BITMAP
FC00
FF00
C180
C180
C580
C700
FF00
C100
C000
C000
C000
C000
ENDCHAR
STARTCHAR char1167
ENCODING 1167
SWIDTH 50 0
DWIDTH 9 0
BBX 7 12 1 -3
BITMAP
18
FC
C6
82
82
82
CA
CE
BE
82
80
80
ENDCHAR
STARTCHAR char1168
ENCODING 1168
SWIDTH 56 0
DWIDTH 10 0
BBX 8 13 1 0
BITMAP
01
FF
FF
C0
C0
C0
C0
C0
C0
C0
C0
C0
C0
ENDCHAR
STARTCHAR char1169
ENCODING 1169
SWIDTH 33 0
DWIDTH 6 0
BBX 5 10 1 0
BITMAP
18
18
F8
80
80
80
80
80
80
80
ENDCHAR
STARTCHAR char1170
ENCODING 1170
SWIDTH 56 0
DWIDTH 10 0
BBX 9 12 0 0
BITMAP
3F80
3F80
2000
2000
F800
2000
2000
2000
2000
2000
2000
2000
ENDCHAR
STARTCHAR char1171
ENCODING 1171
SWIDTH 39 0
DWIDTH 7 0
BBX 6 8 0 0
BITMAP
7C
60
60
F0
60
60
60
60
ENDCHAR
STARTCHAR char1172
ENCODING 1172
SWIDTH 56 0
DWIDTH 10 0
BBX 8 15 1 -3
BITMAP
FF
FF
C0
C0
F8
FE
C2
C2
C2
C2
C2
C2
02
0E
0C
ENDCHAR
STARTCHAR char1173
ENCODING 1173
SWIDTH 39 0
DWIDTH 7 0
BBX 6 10 1 -2
BITMAP
F8
80
90
F8
CC
8C
8C
8C
0C
18
ENDCHAR
STARTCHAR char1174
ENCODING 1174
SWIDTH 27 0
DWIDTH 15 0
BBX 13 14 1 -2
BITMAP
C218
6230
2260
32C0
1A80
0F80
0F80
1AC0
3240
6260
4230
8218
0008
0008
ENDCHAR
STARTCHAR char1175
ENCODING 1175
SWIDTH 16 0
DWIDTH 13 0
BBX 12 10 1 -2
BITMAP
C460
24C0
1580
0E00
1F00
3580
6440
8430
0010
0010
ENDCHAR
STARTCHAR char1176
ENCODING 1176
SWIDTH 56 0
DWIDTH 10 0
BBX 9 15 1 -3
BITMAP
3C00
6700
C100
8100
0300
0700
1F00
0180
8180
8180
C100
7E00
0800
0400
3C00
ENDCHAR
STARTCHAR char1177
ENCODING 1177
SWIDTH 44 0
DWIDTH 8 0
BBX 7 12 0 -3
BITMAP
18
7C
46
06
1C
06
C2
42
7E
18
08
38
ENDCHAR
STARTCHAR char1178
ENCODING 1178
SWIDTH 4 0
DWIDTH 11 0
BBX 9 14 1 -2
BITMAP
C300
C600
CC00
D800
F000
E000
F000
D800
CC00
C400
C200
C380
0080
0080
ENDCHAR
STARTCHAR char1179
ENCODING 1179
SWIDTH 44 0
DWIDTH 8 0
BBX 7 10 1 -2
BITMAP
8C
90
A0
C0
E0
B0
98
8E
06
06
ENDCHAR
STARTCHAR char1180
ENCODING 1180
SWIDTH 4 0
DWIDTH 11 0
BBX 9 12 1 0
BITMAP
C180
C300
C600
DC00
D800
F000
F000
D800
DC00
C600
C300
C180
ENDCHAR
STARTCHAR char1181
ENCODING 1181
SWIDTH 44 0
DWIDTH 8 0
BBX 6 8 1 0
BITMAP
8C
B8
B0
E0
E0
B0
A8
84
ENDCHAR
STARTCHAR char1182
ENCODING 1182
SWIDTH 4 0
DWIDTH 11 0
BBX 11 12 0 0
BITMAP
2060
2180
FB00
2600
2C00
3800
3800
2C00
2600
2300
2180
20C0
ENDCHAR
STARTCHAR char1183
ENCODING 1183
SWIDTH 44 0
DWIDTH 8 0
BBX 8 8 0 0
BITMAP
F6
4C
58
70
70
48
44
43
ENDCHAR
STARTCHAR char1184
ENCODING 1184
SWIDTH 21 0
DWIDTH 14 0
BBX 13 12 0 0
BITMAP
FC18
FC30
0C60
0CC0
0D00
0E00
0E00
0F00
0D80
0C60
0C30
0C18
ENDCHAR
STARTCHAR char1185
ENCODING 1185
SWIDTH 4 0
DWIDTH 11 0
BBX 10 8 0 0
BITMAP
F980
1B00
1E00
1C00
1C00
1A00
1980
18C0
ENDCHAR
STARTCHAR char1186
ENCODING 1186
SWIDTH 10 0
DWIDTH 12 0
BBX 10 14 1 -2
BITMAP
C080
C080
C080
C080
C080
FF80
FF80
C080
C080
C080
C080
C0C0
0040
0040
ENDCHAR
STARTCHAR char1187
ENCODING 1187
SWIDTH 50 0
DWIDTH 9 0
BBX 8 10 1 -2
BITMAP
86
86
86
FE
86
86
86
87
03
03
ENDCHAR
STARTCHAR char1188
ENCODING 1188
SWIDTH 32 0
DWIDTH 16 0
BBX 14 12 1 0
BITMAP
C0FC
C0FC
C080
C080
C080
FF80
FF80
C080
C080
C080
C080
C080
ENDCHAR
STARTCHAR char1189
ENCODING 1189
SWIDTH 4 0
DWIDTH 11 0
BBX 10 8 1 0
BITMAP
87C0
8600
8600
FE00
8600
8600
8600
8600
ENDCHAR
STARTCHAR char1190
ENCODING 1190
SWIDTH 38 0
DWIDTH 17 0
BBX 15 15 1 -3
BITMAP
FF80
FF80
C080
C080
C0F0
C0FC
C086
C086
C086
C086
C086
C086
0006
001E
0018
ENDCHAR
STARTCHAR char1191
ENCODING 1191
SWIDTH 16 0
DWIDTH 13 0
BBX 11 10 1 -2
BITMAP
FE00
8600
86C0
87E0
8620
8620
8620
8620
0060
00C0
ENDCHAR
STARTCHAR char1192
ENCODING 1192
SWIDTH 16 0
DWIDTH 13 0
BBX 12 12 1 0
BITMAP
1800
7000
4780
CCC0
88C0
8840
8840
8840
88C0
CC80
67B0
3FE0
ENDCHAR
STARTCHAR char1193
ENCODING 1193
SWIDTH 56 0
DWIDTH 10 0
BBX 10 9 0 0
BITMAP
0800
3800
6600
4F00
C900
5900
4900
6F40
3F80
ENDCHAR
STARTCHAR char1194
ENCODING 1194
SWIDTH 4 0
DWIDTH 11 0
BBX 10 15 1 -3
BITMAP
1E00
7700
4180
C080
8000
8000
8000
8000
80C0
C080
6180
3F00
0C00
0400
1C00
ENDCHAR
STARTCHAR char1195
ENCODING 1195
SWIDTH 44 0
DWIDTH 8 0
BBX 8 12 0 -3
BITMAP
18
3E
42
40
C0
40
43
62
3E
08
0C
38
ENDCHAR
STARTCHAR char1196
ENCODING 1196
SWIDTH 56 0
DWIDTH 10 0
BBX 10 14 0 -2
BITMAP
FFC0
FFC0
0C00
0C00
0C00
0C00
0C00
0C00
0C00
0C00
0C00
0E00
0200
0200
ENDCHAR
STARTCHAR char1197
ENCODING 1197
SWIDTH 39 0
DWIDTH 7 0
BBX 6 10 0 -2
BITMAP
FC
10
10
10
10
10
10
18
08
08
ENDCHAR
STARTCHAR char1198
ENCODING 1198
SWIDTH 4 0
DWIDTH 11 0
BBX 11 12 0 0
BITMAP
C060
60C0
2080
3180
1B00
0A00
0E00
0400
0400
0400
0400
0400
ENDCHAR
STARTCHAR char1199
ENCODING 1199
SWIDTH 50 0
DWIDTH 9 0
BBX 8 11 1 -3
BITMAP
83
C2
46
64
2C
38
18
18
18
18
18
ENDCHAR
STARTCHAR char1200
ENCODING 1200
SWIDTH 4 0
DWIDTH 11 0
BBX 11 12 0 0
BITMAP
C060
60C0
2080
3180
1B00
0A00
0E00
0400
7FC0
0400
0400
0400
ENDCHAR
STARTCHAR char1201
ENCODING 1201
SWIDTH 50 0
DWIDTH 9 0
BBX 9 11 0 -3
BITMAP
4180
6100
2300
3200
1600
1C00
0C00
FF80
0C00
0C00
0C00
ENDCHAR
STARTCHAR char1202
ENCODING 1202
SWIDTH 4 0
DWIDTH 11 0
BBX 9 14 1 -2
BITMAP
8180
C100
6300
2600
3400
1800
1800
3C00
2600
6300
C300
8180
0080
0080
ENDCHAR
STARTCHAR char1203
ENCODING 1203
SWIDTH 44 0
DWIDTH 8 0
BBX 6 10 1 -2
BITMAP
8C
48
70
30
30
58
C8
84
04
04
ENDCHAR
STARTCHAR char1204
ENCODING 1204
SWIDTH 27 0
DWIDTH 15 0
BBX 15 14 0 -2
BITMAP
FF88
FF88
0C08
0C08
0C08
0C08
0C08
0C08
0C08
0C08
0C08
0FFE
0006
0006
ENDCHAR
STARTCHAR char1205
ENCODING 1205
SWIDTH 4 0
DWIDTH 11 0
BBX 10 10 0 -2
BITMAP
FC80
3080
3080
3080
3080
3080
3080
3FC0
0040
0040
ENDCHAR
STARTCHAR char1206
ENCODING 1206
SWIDTH 56 0
DWIDTH 10 0
BBX 9 14 1 -2
BITMAP
8300
8300
8300
8300
8300
8300
C300
7F00
0300
0300
0300
0380
0180
0180
ENDCHAR
STARTCHAR char1207
ENCODING 1207
SWIDTH 44 0
DWIDTH 8 0
BBX 7 10 1 -2
BITMAP
8C
8C
8C
8C
7C
0C
0C
0E
02
02
ENDCHAR
STARTCHAR char1208
ENCODING 1208
SWIDTH 56 0
DWIDTH 10 0
BBX 8 12 1 0
BITMAP
83
83
83
83
9B
9B
FB
7F
1B
1B
03
03
ENDCHAR
STARTCHAR char1209
ENCODING 1209
SWIDTH 44 0
DWIDTH 8 0
BBX 6 8 1 0
BITMAP
8C
8C
AC
AC
7C
2C
0C
0C
ENDCHAR
STARTCHAR char1210
ENCODING 1210
SWIDTH 56 0
DWIDTH 10 0
BBX 8 12 1 0
BITMAP
C0
C0
C0
C0
F8
FF
C3
C1
C1
C1
C1
C1
ENDCHAR
STARTCHAR char1211
ENCODING 1211
SWIDTH 44 0
DWIDTH 8 0
BBX 6 8 1 0
BITMAP
80
80
80
FC
84
84
84
84
ENDCHAR
STARTCHAR char1212
ENCODING 1212
SWIDTH 27 0
DWIDTH 15 0
BBX 13 12 1 0
BITMAP
E3C0
9770
8C10
9818
D818
7FF8
1000
1000
1800
0818
0C30
07E0
ENDCHAR
STARTCHAR char1213
ENCODING 1213
SWIDTH 4 0
DWIDTH 11 0
BBX 10 9 1 0
BITMAP
0600
DF80
B080
B080
FFC0
2000
3080
1180
1F00
ENDCHAR
STARTCHAR char1214
ENCODING 1214
SWIDTH 27 0
DWIDTH 15 0
BBX 13 15 1 -3
BITMAP
E3C0
9770
8C10
9818
D818
7FF8
1000
1000
1800
0818
0C30
07E0
0180
0180
0180
ENDCHAR
STARTCHAR char1215
ENCODING 1215
SWIDTH 4 0
DWIDTH 11 0
BBX 10 12 1 -3
BITMAP
0600
DF80
B080
B080
FFC0
2000
3080
1180
1F00
0400
0400
0400
ENDCHAR
STARTCHAR char1216
ENCODING 1216
SWIDTH 22 0
DWIDTH 4 0
BBX 2 12 1 0
BITMAP
C0
C0
C0
C0
C0
C0
C0
C0
C0
C0
C0
C0
ENDCHAR
STARTCHAR char1217
ENCODING 1217
SWIDTH 27 0
DWIDTH 15 0
BBX 13 14 1 0
BITMAP
0900
0700
C218
6230
2260
32C0
1A80
0F80
0F80
1AC0
3240
6260
4230
8218
ENDCHAR
STARTCHAR char1218
ENCODING 1218
SWIDTH 10 0
DWIDTH 12 0
BBX 11 11 1 0
BITMAP
1200
1E00
0000
CCC0
2D80
3F00
1E00
1F00
2D80
4CC0
8C60
ENDCHAR
STARTCHAR char1219
ENCODING 1219
SWIDTH 4 0
DWIDTH 11 0
BBX 9 15 1 -3
BITMAP
C180
C300
C600
CC00
D800
E000
FF00
C100
C180
C180
C180
C180
0180
0700
0600
ENDCHAR
STARTCHAR char1220
ENCODING 1220
SWIDTH 44 0
DWIDTH 8 0
BBX 6 10 1 -2
BITMAP
8C
98
B0
C0
F8
8C
84
84
0C
1C
ENDCHAR
STARTCHAR char1221
ENCODING 1221
SWIDTH 4 0
DWIDTH 11 0
BBX 11 14 0 -2
BITMAP
3F80
3F80
3080
3080
3080
3080
3080
3080
2080
2080
6080
C0E0
0060
0060
ENDCHAR
STARTCHAR char1222
ENCODING 1222
SWIDTH 44 0
DWIDTH 8 0
BBX 8 10 0 -2
BITMAP
3E
22
22
22
62
62
42
C3
01
01
ENDCHAR
STARTCHAR char1223
ENCODING 1223
SWIDTH 10 0
DWIDTH 12 0
BBX 9 15 1 -3
BITMAP
C080
C080
C080
C080
C080
FF80
FF80
C080
C080
C080
C080
C080
0080
0780
0700
ENDCHAR
STARTCHAR char1224
ENCODING 1224
SWIDTH 50 0
DWIDTH 9 0
BBX 7 10 1 -2
BITMAP
86
86
86
FE
86
86
86
86
06
0C
ENDCHAR
STARTCHAR char1225
ENCODING 1225
SWIDTH 10 0
DWIDTH 12 0
BBX 10 14 1 -2
BITMAP
C080
C080
C080
C080
C080
FF80
FF80
C080
C080
C080
C080
C0C0
0040
0040
ENDCHAR
STARTCHAR char1226
ENCODING 1226
SWIDTH 50 0
DWIDTH 9 0
BBX 8 10 1 -2
BITMAP
86
86
86
FE
86
86
86
87
03
03
ENDCHAR
STARTCHAR char1227
ENCODING 1227
SWIDTH 56 0
DWIDTH 10 0
BBX 8 14 1 -2
BITMAP
83
83
83
83
83
83
E3
7F
03
03
03
07
06
06
ENDCHAR
STARTCHAR char1228
ENCODING 1228
SWIDTH 44 0
DWIDTH 8 0
BBX 6 10 1 -2
BITMAP
8C
8C
8C
8C
7C
0C
0C
1C
18
18
ENDCHAR
STARTCHAR char1229
ENCODING 1229
SWIDTH 21 0
DWIDTH 14 0
BBX 12 14 1 -2
BITMAP
C060
E060
E0E0
E0A0
F0A0
D1A0
D120
D920
CB20
CA20
CE20
C630
0010
0010
ENDCHAR
STARTCHAR char1230
ENCODING 1230
SWIDTH 56 0
DWIDTH 10 0
BBX 9 10 1 -2
BITMAP
C300
C700
E700
AF00
BB00
9B00
9B00
8380
0180
0180
ENDCHAR
STARTCHAR char1231
ENCODING 1231
SWIDTH 22 0
DWIDTH 4 0
BBX 2 12 1 0
BITMAP
C0
C0
C0
C0
C0
C0
C0
C0
C0
C0
C0
C0
ENDCHAR
STARTCHAR char1232
ENCODING 1232
SWIDTH 4 0
DWIDTH 11 0
BBX 10 14 0 0
BITMAP
1B00
0E00
0C00
0E00
0A00
1A00
1300
1100
3100
3F80
7F80
60C0
40C0
C040
ENDCHAR
STARTCHAR char1233
ENCODING 1233
SWIDTH 50 0
DWIDTH 9 0
BBX 7 12 1 0
BITMAP
44
78
00
30
FC
84
04
7C
C4
84
8C
FE
ENDCHAR
STARTCHAR char1234
ENCODING 1234
SWIDTH 4 0
DWIDTH 11 0
BBX 10 14 0 0
BITMAP
1B00
0000
0C00
0E00
0A00
1A00
1300
1100
3100
3F80
7F80
60C0
40C0
C040
ENDCHAR
STARTCHAR char1235
ENCODING 1235
SWIDTH 50 0
DWIDTH 9 0
BBX 7 11 1 0
BITMAP
6C
00
30
FC
84
04
7C
C4
84
8C
FE
ENDCHAR
STARTCHAR char1236
ENCODING 1236
SWIDTH 32 0
DWIDTH 16 0
BBX 15 12 0 0
BITMAP
07FE
07FE
0C80
0880
1880
10FE
30FE
3F80
3F80
6080
4080
C0FE
ENDCHAR
STARTCHAR char1237
ENCODING 1237
SWIDTH 21 0
DWIDTH 14 0
BBX 12 9 1 0
BITMAP
30C0
FFE0
8610
0410
7FF0
C400
8410
8E30
FBE0
ENDCHAR
STARTCHAR char1238
ENCODING 1238
SWIDTH 56 0
DWIDTH 10 0
BBX 9 14 1 0
BITMAP
2600
1C00
FF00
FF00
C000
C000
C000
FF00
FF00
C000
C000
C000
C000
FF80
ENDCHAR
STARTCHAR char1239
ENCODING 1239
SWIDTH 50 0
DWIDTH 9 0
BBX 8 12 0 0
BITMAP
22
3E
00
18
3E
43
41
FF
40
41
63
3E
ENDCHAR
STARTCHAR char1240
ENCODING 1240
SWIDTH 4 0
DWIDTH 11 0
BBX 10 12 1 0
BITMAP
3C00
7700
C180
C080
00C0
00C0
00C0
FFC0
8080
C180
4300
7E00
ENDCHAR
STARTCHAR char1241
ENCODING 1241
SWIDTH 50 0
DWIDTH 9 0
BBX 7 9 1 -1
BITMAP
7C
C6
82
02
FE
82
C6
7C
30
ENDCHAR
STARTCHAR char1242
ENCODING 1242
SWIDTH 4 0
DWIDTH 11 0
BBX 10 14 1 0
BITMAP
3600
0000
3C00
7700
C180
C080
00C0
00C0
00C0
FFC0
8080
C180
4300
7E00
ENDCHAR
STARTCHAR char1243
ENCODING 1243
SWIDTH 50 0
DWIDTH 9 0
BBX 7 12 1 -1
BITMAP
6C
00
00
7C
C6
82
02
FE
82
C6
7C
30
ENDCHAR
STARTCHAR char1244
ENCODING 1244
SWIDTH 27 0
DWIDTH 15 0
BBX 13 14 1 0
BITMAP
0D80
0000
C218
6230
2260
32C0
1A80
0F80
0F80
1AC0
3240
6260
4230
8218
ENDCHAR
STARTCHAR char1245
ENCODING 1245
SWIDTH 10 0
DWIDTH 12 0
BBX 11 11 1 0
BITMAP
1A00
0000
0000
CCC0
2D80
3F00
1E00
1F00
2D80
4CC0
8C60
ENDCHAR
STARTCHAR char1246
ENCODING 1246
SWIDTH 56 0
DWIDTH 10 0
BBX 9 14 1 0
BITMAP
3600
0000
3C00
6700
C100
8100
0300
0700
1F00
0180
8180
8180
C100
7E00
ENDCHAR
STARTCHAR char1247
ENCODING 1247
SWIDTH 44 0
DWIDTH 8 0
BBX 7 11 0 0
BITMAP
2C
00
18
7C
46
06
1C
06
C2
42
7E
ENDCHAR
STARTCHAR char1248
ENCODING 1248
SWIDTH 56 0
DWIDTH 10 0
BBX 8 12 1 0
BITMAP
FF
FF
03
06
0C
1C
07
01
01
81
C3
7E
ENDCHAR
STARTCHAR char1249
ENCODING 1249
SWIDTH 50 0
DWIDTH 9 0
BBX 7 10 1 -2
BITMAP
FC
0C
18
10
3C
06
02
82
C6
7C
ENDCHAR
STARTCHAR char1250
ENCODING 1250
SWIDTH 10 0
DWIDTH 12 0
BBX 9 14 1 0
BITMAP
1E00
0000
C080
C180
C380
C280
C680
C480
C880
D880
D080
F080
E080
C080
ENDCHAR
STARTCHAR char1251
ENCODING 1251
SWIDTH 50 0
DWIDTH 9 0
BBX 7 11 1 0
BITMAP
7C
00
00
86
8E
9E
96
B6
A6
E6
C6
ENDCHAR
STARTCHAR char1252
ENCODING 1252
SWIDTH 10 0
DWIDTH 12 0
BBX 9 14 1 0
BITMAP
1600
0000
C080
C180
C380
C280
C680
C480
C880
D880
D080
F080
E080
C080
ENDCHAR
STARTCHAR char1253
ENCODING 1253
SWIDTH 50 0
DWIDTH 9 0
BBX 7 11 1 0
BITMAP
6C
00
00
86
8E
9E
96
B6
A6
E6
C6
ENDCHAR
STARTCHAR char1254
ENCODING 1254
SWIDTH 16 0
DWIDTH 13 0
BBX 11 14 1 0
BITMAP
1B00
0000
1E00
3B80
60C0
C040
8060
8060
8060
8060
C060
C0C0
61C0
3F00
ENDCHAR
STARTCHAR char1255
ENCODING 1255
SWIDTH 50 0
DWIDTH 9 0
BBX 8 11 0 0
BITMAP
36
00
18
3E
63
41
C1
41
43
63
3E
ENDCHAR
STARTCHAR char1256
ENCODING 1256
SWIDTH 16 0
DWIDTH 13 0
BBX 11 12 1 0
BITMAP
1E00
3B80
60C0
C040
8060
8060
FFE0
8060
C060
C0C0
61C0
3F00
ENDCHAR
STARTCHAR char1257
ENCODING 1257
SWIDTH 50 0
DWIDTH 9 0
BBX 8 9 0 0
BITMAP
18
3E
43
41
FF
41
43
63
3E
ENDCHAR
STARTCHAR char1258
ENCODING 1258
SWIDTH 16 0
DWIDTH 13 0
BBX 11 14 1 0
BITMAP
1B00
0000
1E00
3B80
60C0
C040
8060
8060
FFE0
8060
C060
C0C0
61C0
3F00
ENDCHAR
STARTCHAR char1259
ENCODING 1259
SWIDTH 50 0
DWIDTH 9 0
BBX 8 11 0 0
BITMAP
36
00
18
3E
43
41
FF
41
43
63
3E
ENDCHAR
STARTCHAR char1260
ENCODING 1260
SWIDTH 4 0
DWIDTH 11 0
BBX 10 14 1 0
BITMAP
3600
0000
3C00
7700
C180
C080
00C0
3FC0
3FC0
00C0
8080
C180
4300
7E00
ENDCHAR
STARTCHAR char1261
ENCODING 1261
SWIDTH 44 0
DWIDTH 8 0
BBX 7 11 1 0
BITMAP
48
00
30
F8
84
04
3E
06
84
8C
F8
ENDCHAR
STARTCHAR char1262
ENCODING 1262
SWIDTH 56 0
DWIDTH 10 0
BBX 10 14 0 0
BITMAP
1E00
0000
C0C0
6180
6180
3300
3300
1E00
1E00
0C00
0C00
1800
1800
3000
ENDCHAR
STARTCHAR char1263
ENCODING 1263
SWIDTH 44 0
DWIDTH 8 0
BBX 7 14 0 -3
BITMAP
3C
00
00
C2
46
64
64
2C
38
38
18
10
30
60
ENDCHAR
STARTCHAR char1264
ENCODING 1264
SWIDTH 56 0
DWIDTH 10 0
BBX 10 14 0 0
BITMAP
1A00
0000
C0C0
6180
6180
3300
3300
1E00
1E00
0C00
0C00
1800
1800
3000
ENDCHAR
STARTCHAR char1265
ENCODING 1265
SWIDTH 44 0
DWIDTH 8 0
BBX 7 14 0 -3
BITMAP
24
00
00
C2
46
64
64
2C
38
38
18
10
30
60
ENDCHAR
STARTCHAR char1266
ENCODING 1266
SWIDTH 56 0
DWIDTH 10 0
BBX 10 14 0 0
BITMAP
1B00
1400
C0C0
6180
6180
3300
3300
1E00
1E00
0C00
0C00
1800
1800
3000
ENDCHAR
STARTCHAR char1267
ENCODING 1267
SWIDTH 44 0
DWIDTH 8 0
BBX 7 15 0 -3
BITMAP
36
24
00
00
C2
46
64
64
2C
38
38
18
10
30
60
ENDCHAR
STARTCHAR char1268
ENCODING 1268
SWIDTH 56 0
DWIDTH 10 0
BBX 8 14 1 0
BITMAP
6C
00
83
83
83
83
83
83
FF
3F
03
03
03
03
ENDCHAR
STARTCHAR char1269
ENCODING 1269
SWIDTH 44 0
DWIDTH 8 0
BBX 6 11 1 0
BITMAP
48
00
00
84
84
84
C4
7C
04
04
04
ENDCHAR
STARTCHAR char1270
ENCODING 1270
SWIDTH 56 0
DWIDTH 10 0
BBX 8 14 1 -2
BITMAP
FF
FF
C0
C0
C0
C0
C0
C0
C0
C0
C0
E0
20
20
ENDCHAR
STARTCHAR char1271
ENCODING 1271
SWIDTH 33 0
DWIDTH 6 0
BBX 5 10 1 -2
BITMAP
F8
80
80
80
80
80
80
C0
40
40
ENDCHAR
STARTCHAR char1272
ENCODING 1272
SWIDTH 21 0
DWIDTH 14 0
BBX 12 14 1 0
BITMAP
0900
0000
C030
C030
C030
C030
C030
FF30
C1B0
C1B0
C1B0
C1B0
C330
FE30
ENDCHAR
STARTCHAR char1273
ENCODING 1273
SWIDTH 4 0
DWIDTH 11 0
BBX 9 11 1 0
BITMAP
3600
0000
0000
8180
8180
8180
FD80
8580
8780
8580
FD80
ENDCHAR
STARTCHAR char1274
ENCODING 1274
SWIDTH 56 0
DWIDTH 10 0
BBX 9 15 0 -3
BITMAP
3F80
3F80
2000
2000
F800
2000
2000
2000
2000
2000
2000
3000
1000
1000
3000
ENDCHAR
STARTCHAR char1275
ENCODING 1275
SWIDTH 39 0
DWIDTH 7 0
BBX 6 11 0 -3
BITMAP
7C
60
60
F0
60
60
60
70
10
10
70
ENDCHAR
STARTCHAR char1276
ENCODING 1276
SWIDTH 4 0
DWIDTH 11 0
BBX 9 15 1 -3
BITMAP
8180
C100
6300
2600
3400
1800
1800
3C00
2600
6300
C300
8180
0180
0780
0600
ENDCHAR
STARTCHAR char1277
ENCODING 1277
SWIDTH 44 0
DWIDTH 8 0
BBX 6 10 1 -2
BITMAP
8C
48
70
30
30
58
C8
84
04
1C
ENDCHAR
STARTCHAR char1278
ENCODING 1278
SWIDTH 4 0
DWIDTH 11 0
BBX 9 12 1 0
BITMAP
8180
C100
6300
2600
3400
7F00
7F00
3C00
2600
6300
C300
8180
ENDCHAR
STARTCHAR char1279
ENCODING 1279
SWIDTH 44 0
DWIDTH 8 0
BBX 6 8 1 0
BITMAP
8C
48
70
FC
30
58
C8
84
ENDCHAR
STARTCHAR char1296
ENCODING 1296
SWIDTH 56 0
DWIDTH 10 0
BBX 9 12 1 0
BITMAP
3C00
6700
C100
C100
C000
7000
7800
C000
8180
8180
C300
7E00
ENDCHAR
STARTCHAR char1297
ENCODING 1297
SWIDTH 44 0
DWIDTH 8 0
BBX 7 9 0 0
BITMAP
18
7E
42
40
38
60
C2
42
7E
ENDCHAR
STARTCHAR char1298
ENCODING 1298
SWIDTH 4 0
DWIDTH 11 0
BBX 9 15 0 -3
BITMAP
3F80
3F80
3080
3080
3080
3080
3080
3080
2080
2080
6080
C080
0080
0380
0300
ENDCHAR
STARTCHAR char1299
ENCODING 1299
SWIDTH 44 0
DWIDTH 8 0
BBX 7 10 0 -2
BITMAP
3E
22
22
22
62
62
42
C2
02
0C
ENDCHAR
STARTCHAR char1306
ENCODING 1306
SWIDTH 16 0
DWIDTH 13 0
BBX 11 13 1 -1
BITMAP
1E00
3B80
60C0
C040
8060
8060
8060
8060
C060
C3C0
6180
3FC0
0040
ENDCHAR
STARTCHAR char1307
ENCODING 1307
SWIDTH 50 0
DWIDTH 9 0
BBX 8 12 0 -3
BITMAP
18
3F
63
43
C1
41
43
63
3D
01
01
01
ENDCHAR
STARTCHAR char1308
ENCODING 1308
SWIDTH 27 0
DWIDTH 15 0
BBX 15 12 0 0
BITMAP
C106
4384
4384
628C
628C
26C8
2448
3458
3C78
1C70
1830
1830
ENDCHAR
STARTCHAR char1309
ENCODING 1309
SWIDTH 4 0
DWIDTH 11 0
BBX 11 8 0 0
BITMAP
C620
4E60
4A60
6B40
2B40
39C0
3180
3180
ENDCHAR
STARTCHAR char1310
ENCODING 1310
SWIDTH 56 0
DWIDTH 10 0
BBX 8 12 1 0
BITMAP
C3
DE
CE
DB
F0
E0
F0
D8
CC
C4
C2
C3
ENDCHAR
STARTCHAR char1311
ENCODING 1311
SWIDTH 44 0
DWIDTH 8 0
BBX 6 8 1 0
BITMAP
BC
98
A4
C0
E0
B0
98
8C
ENDCHAR
STARTCHAR char1316
ENCODING 1316
SWIDTH 10 0
DWIDTH 12 0
BBX 10 14 1 -2
BITMAP
FF80
FF80
C080
C080
C080
C080
C080
C080
C080
C080
C080
C0C0
0040
0040
ENDCHAR
STARTCHAR char1317
ENCODING 1317
SWIDTH 50 0
DWIDTH 9 0
BBX 8 10 1 -2
BITMAP
FE
86
86
86
86
86
86
87
03
03
ENDCHAR
STARTCHAR char1318
ENCODING 1318
SWIDTH 56 0
DWIDTH 10 0
BBX 9 14 1 -2
BITMAP
8000
8000
8000
8000
8000
FE00
8300
8300
8300
8300
8300
8380
0180
0180
ENDCHAR
STARTCHAR char1319
ENCODING 1319
SWIDTH 44 0
DWIDTH 8 0
BBX 7 10 1 -2
BITMAP
80
80
80
F8
8C
84
84
86
02
02
ENDCHAR
STARTCHAR char1329
ENCODING 1329
SWIDTH 10 0
DWIDTH 12 0
BBX 10 12 1 -1
BITMAP
C080
C080
C080
C080
C080
C080
C080
C080
C180
63C0
3F40
0040
ENDCHAR
STARTCHAR char1330
ENCODING 1330
SWIDTH 4 0
DWIDTH 11 0
BBX 9 12 1 0
BITMAP
1C00
7F00
4180
C180
C080
C080
C080
C000
FF80
FF80
C000
C000
ENDCHAR
STARTCHAR char1331
ENCODING 1331
SWIDTH 10 0
DWIDTH 12 0
BBX 10 12 1 0
BITMAP
1800
7F00
C300
8100
8100
8100
8100
C100
7FC0
3FC0
0100
0100
ENDCHAR
STARTCHAR char1332
ENCODING 1332
SWIDTH 10 0
DWIDTH 12 0
BBX 10 12 1 0
BITMAP
1C00
7F00
C100
C180
C180
8180
8180
0180
01C0
01C0
0180
0180
ENDCHAR
STARTCHAR char1333
ENCODING 1333
SWIDTH 4 0
DWIDTH 11 0
BBX 9 12 1 0
BITMAP
C000
C000
C000
FF80
C000
C000
C080
C080
C080
C180
6300
3E00
ENDCHAR
STARTCHAR char1334
ENCODING 1334
SWIDTH 10 0
DWIDTH 12 0
BBX 11 12 1 0
BITMAP
1E00
7700
C180
C080
8080
F080
0080
0080
0100
C600
FFC0
C060
ENDCHAR
STARTCHAR char1335
ENCODING 1335
SWIDTH 39 0
DWIDTH 7 0
BBX 6 12 1 0
BITMAP
C0
C0
C0
C0
FC
C0
C0
C0
C0
C0
C0
F0
ENDCHAR
STARTCHAR char1336
ENCODING 1336
SWIDTH 4 0
DWIDTH 11 0
BBX 9 12 1 0
BITMAP
1C00
7F00
4180
C180
C080
C080
C080
C080
C000
C000
C000
FF80
ENDCHAR
STARTCHAR char1337
ENCODING 1337
SWIDTH 16 0
DWIDTH 13 0
BBX 12 12 1 0
BITMAP
1F00
7FC0
C060
C060
C060
CFF0
D860
D860
D860
D860
D8C0
CF80
ENDCHAR
STARTCHAR char1338
ENCODING 1338
SWIDTH 4 0
DWIDTH 11 0
BBX 9 11 1 0
BITMAP
0300
0300
0300
7F80
C300
C300
C300
C300
C300
C200
7C00
ENDCHAR
STARTCHAR char1339
ENCODING 1339
SWIDTH 4 0
DWIDTH 11 0
BBX 9 12 1 0
BITMAP
C000
C000
C000
FE00
E300
C180
C080
C080
C080
C000
C000
C000
ENDCHAR
STARTCHAR char1340
ENCODING 1340
SWIDTH 33 0
DWIDTH 6 0
BBX 5 11 1 0
BITMAP
C0
C0
C0
C0
C0
C0
C0
C0
C0
F8
F8
ENDCHAR
STARTCHAR char1341
ENCODING 1341
SWIDTH 21 0
DWIDTH 14 0
BBX 12 12 1 0
BITMAP
C000
C000
C000
C000
F830
D830
D830
D830
D830
C820
CC60
C7C0
ENDCHAR
STARTCHAR char1342
ENCODING 1342
SWIDTH 16 0
DWIDTH 13 0
BBX 11 12 1 0
BITMAP
8000
FFE0
3F00
6180
C0C0
8040
8040
8040
8040
C0C0
6180
1F00
ENDCHAR
STARTCHAR char1343
ENCODING 1343
SWIDTH 4 0
DWIDTH 11 0
BBX 9 12 1 0
BITMAP
C000
C000
C000
C080
C080
C080
C180
6180
7F80
0080
0080
0080
ENDCHAR
STARTCHAR char1344
ENCODING 1344
SWIDTH 50 0
DWIDTH 9 0
BBX 8 13 1 -1
BITMAP
03
07
0C
18
10
20
60
C0
E0
38
0F
03
01
ENDCHAR
STARTCHAR char1345
ENCODING 1345
SWIDTH 4 0
DWIDTH 11 0
BBX 8 13 1 -1
BITMAP
1C
7E
43
C1
C1
01
01
03
63
F6
9C
FC
04
ENDCHAR
STARTCHAR char1346
ENCODING 1346
SWIDTH 56 0
DWIDTH 10 0
BBX 9 12 1 0
BITMAP
1800
7E00
C200
C300
C300
C300
C300
0300
0300
0300
0300
0380
ENDCHAR
STARTCHAR char1347
ENCODING 1347
SWIDTH 4 0
DWIDTH 11 0
BBX 9 11 1 1
BITMAP
0700
3C00
1C00
3600
6600
6300
C100
C100
C180
FF80
FF80
ENDCHAR
STARTCHAR char1348
ENCODING 1348
SWIDTH 10 0
DWIDTH 12 0
BBX 11 12 1 0
BITMAP
81E0
81E0
8180
8180
8180
8180
8180
8180
C180
C180
6300
3E00
ENDCHAR
STARTCHAR char1349
ENCODING 1349
SWIDTH 56 0
DWIDTH 10 0
BBX 8 12 1 0
BITMAP
38
7E
C2
02
02
FE
06
03
03
83
C6
7C
ENDCHAR
STARTCHAR char1350
ENCODING 1350
SWIDTH 10 0
DWIDTH 12 0
BBX 12 12 0 0
BITMAP
F000
F000
1000
1000
1000
1030
1030
1030
1030
1820
1C60
0FC0
ENDCHAR
STARTCHAR char1351
ENCODING 1351
SWIDTH 56 0
DWIDTH 10 0
BBX 8 12 1 0
BITMAP
C0
FC
3E
40
C0
80
80
83
83
83
C6
7C
ENDCHAR
STARTCHAR char1352
ENCODING 1352
SWIDTH 4 0
DWIDTH 11 0
BBX 9 12 1 0
BITMAP
1C00
7F00
4180
C180
C080
C080
C080
C080
C080
C080
C080
C080
ENDCHAR
STARTCHAR char1353
ENCODING 1353
SWIDTH 56 0
DWIDTH 10 0
BBX 8 12 1 0
BITMAP
18
7E
C3
C1
C1
01
01
03
02
8C
F8
0E
ENDCHAR
STARTCHAR char1354
ENCODING 1354
SWIDTH 4 0
DWIDTH 11 0
BBX 9 12 1 0
BITMAP
1C00
7F00
C980
C980
C980
C880
0880
0880
0080
0080
0080
0080
ENDCHAR
STARTCHAR char1355
ENCODING 1355
SWIDTH 10 0
DWIDTH 12 0
BBX 10 12 1 0
BITMAP
1C00
7700
C180
8080
8080
F880
0E80
0380
0300
8600
FFC0
8040
ENDCHAR
STARTCHAR char1356
ENCODING 1356
SWIDTH 10 0
DWIDTH 12 0
BBX 10 12 1 0
BITMAP
1C00
7F00
4180
C180
C080
C080
C080
C080
C0C0
C080
C080
C080
ENDCHAR
STARTCHAR char1357
ENCODING 1357
SWIDTH 4 0
DWIDTH 11 0
BBX 9 11 1 0
BITMAP
C080
C080
C080
C080
C080
C080
C080
C080
C180
6300
3E00
ENDCHAR
STARTCHAR char1358
ENCODING 1358
SWIDTH 10 0
DWIDTH 12 0
BBX 10 12 1 0
BITMAP
0080
0080
0080
C080
C080
C180
C180
4180
7F80
0180
01C0
01C0
ENDCHAR
STARTCHAR char1359
ENCODING 1359
SWIDTH 4 0
DWIDTH 11 0
BBX 9 12 1 0
BITMAP
1C00
7F00
C100
C100
C000
7800
1F00
0180
8180
8180
E300
3E00
ENDCHAR
STARTCHAR char1360
ENCODING 1360
SWIDTH 4 0
DWIDTH 11 0
BBX 9 12 1 0
BITMAP
1C00
7F00
4180
C180
C080
C080
C080
C000
C000
C000
C000
C000
ENDCHAR
STARTCHAR char1361
ENCODING 1361
SWIDTH 56 0
DWIDTH 10 0
BBX 8 12 1 0
BITMAP
18
7E
C3
C3
C2
3C
E7
03
01
C3
C3
7E
ENDCHAR
STARTCHAR char1362
ENCODING 1362
SWIDTH 33 0
DWIDTH 6 0
BBX 5 12 1 0
BITMAP
C0
C0
C0
C0
F8
F8
C0
C0
C0
C0
C0
C0
ENDCHAR
STARTCHAR char1363
ENCODING 1363
SWIDTH 16 0
DWIDTH 13 0
BBX 11 12 1 0
BITMAP
0400
1E00
7F80
C4C0
C460
8460
8460
8460
C440
64C0
3F00
0400
ENDCHAR
STARTCHAR char1364
ENCODING 1364
SWIDTH 56 0
DWIDTH 10 0
BBX 9 12 0 0
BITMAP
0E00
1F80
3080
2080
2080
3080
3F80
2600
2000
FF80
2000
2000
ENDCHAR
STARTCHAR char1365
ENCODING 1365
SWIDTH 10 0
DWIDTH 12 0
BBX 11 12 1 0
BITMAP
0E00
3F80
60C0
C0C0
C040
8060
8060
8060
C040
40C0
6180
3F00
ENDCHAR
STARTCHAR char1366
ENCODING 1366
SWIDTH 4 0
DWIDTH 11 0
BBX 10 12 1 0
BITMAP
3800
7800
C800
C800
7F00
0980
08C0
08C0
08C0
88C0
C980
7F00
ENDCHAR
STARTCHAR char1369
ENCODING 1369
SWIDTH 22 0
DWIDTH 4 0
BBX 2 3 1 9
BITMAP
40
80
40
ENDCHAR
STARTCHAR char1370
ENCODING 1370
SWIDTH 22 0
DWIDTH 4 0
BBX 1 4 1 8
BITMAP
80
80
80
80
ENDCHAR
STARTCHAR char1371
ENCODING 1371
SWIDTH 16 0
DWIDTH 3 0
BBX 1 1 1 9
BITMAP
80
ENDCHAR
STARTCHAR char1372
ENCODING 1372
SWIDTH 28 0
DWIDTH 5 0
BBX 5 2 0 10
BITMAP
78
80
ENDCHAR
STARTCHAR char1373
ENCODING 1373
SWIDTH 28 0
DWIDTH 5 0
BBX 3 3 1 9
BITMAP
80
40
20
ENDCHAR
STARTCHAR char1374
ENCODING 1374
SWIDTH 28 0
DWIDTH 5 0
BBX 5 4 0 9
BITMAP
30
48
A8
10
ENDCHAR
STARTCHAR char1375
ENCODING 1375
SWIDTH 28 0
DWIDTH 5 0
BBX 5 2 0 9
BITMAP
40
F8
ENDCHAR
STARTCHAR char1377
ENCODING 1377
SWIDTH 16 0
DWIDTH 13 0
BBX 11 8 1 0
BITMAP
8420
8420
8420
8420
8420
8420
CE60
73A0
ENDCHAR
STARTCHAR char1378
ENCODING 1378
SWIDTH 50 0
DWIDTH 9 0
BBX 7 12 1 -3
BITMAP
18
BC
C6
C6
C6
C6
C0
C0
FE
C0
C0
C0
ENDCHAR
STARTCHAR char1379
ENCODING 1379
SWIDTH 50 0
DWIDTH 9 0
BBX 8 12 1 -3
BITMAP
30
7E
C6
86
86
86
86
C6
7F
06
06
06
ENDCHAR
STARTCHAR char1380
ENCODING 1380
SWIDTH 50 0
DWIDTH 9 0
BBX 8 12 1 -3
BITMAP
18
BC
C4
C4
84
84
84
84
87
04
04
04
ENDCHAR
STARTCHAR char1381
ENCODING 1381
SWIDTH 50 0
DWIDTH 9 0
BBX 7 12 1 0
BITMAP
80
80
80
80
FE
80
80
86
86
C6
C6
7A
ENDCHAR
STARTCHAR char1382
ENCODING 1382
SWIDTH 50 0
DWIDTH 9 0
BBX 8 12 1 -3
BITMAP
30
7E
86
86
86
86
86
CE
76
06
06
07
ENDCHAR
STARTCHAR char1383
ENCODING 1383
SWIDTH 33 0
DWIDTH 6 0
BBX 4 14 1 -2
BITMAP
C0
C0
C0
C0
C0
F0
C0
C0
C0
C0
C0
F0
30
30
ENDCHAR
STARTCHAR char1384
ENCODING 1384
SWIDTH 50 0
DWIDTH 9 0
BBX 7 11 1 -3
BITMAP
BC
C6
C6
86
86
86
86
86
80
80
FE
ENDCHAR
STARTCHAR char1385
ENCODING 1385
SWIDTH 50 0
DWIDTH 9 0
BBX 8 12 1 -3
BITMAP
18
EE
C2
C2
CF
D2
F2
F2
DC
C0
C0
C0
ENDCHAR
STARTCHAR char1386
ENCODING 1386
SWIDTH 50 0
DWIDTH 9 0
BBX 8 12 1 0
BITMAP
06
06
06
06
7F
C6
86
86
86
84
CC
78
ENDCHAR
STARTCHAR char1387
ENCODING 1387
SWIDTH 50 0
DWIDTH 9 0
BBX 7 14 1 -3
BITMAP
C0
C0
C0
FC
C6
C6
C6
C6
C6
C6
C6
C0
C0
C0
ENDCHAR
STARTCHAR char1388
ENCODING 1388
SWIDTH 22 0
DWIDTH 4 0
BBX 3 11 1 -3
BITMAP
C0
C0
C0
C0
C0
C0
C0
C0
C0
C0
E0
ENDCHAR
STARTCHAR char1389
ENCODING 1389
SWIDTH 16 0
DWIDTH 13 0
BBX 11 14 1 -3
BITMAP
C000
C000
C000
F860
C860
C860
C860
C860
C860
CC60
C7E0
C000
C000
C000
ENDCHAR
STARTCHAR char1390
ENCODING 1390
SWIDTH 50 0
DWIDTH 9 0
BBX 7 12 1 0
BITMAP
10
20
30
18
7E
84
84
86
86
84
CC
78
ENDCHAR
STARTCHAR char1391
ENCODING 1391
SWIDTH 50 0
DWIDTH 9 0
BBX 7 15 1 -3
BITMAP
C0
C0
C0
C0
C6
C6
C6
C6
C6
C6
CE
7E
06
06
06
ENDCHAR
STARTCHAR char1392
ENCODING 1392
SWIDTH 50 0
DWIDTH 9 0
BBX 7 11 1 0
BITMAP
C0
C0
C0
FC
C6
C6
C6
C6
C6
C6
C6
ENDCHAR
STARTCHAR char1393
ENCODING 1393
SWIDTH 44 0
DWIDTH 8 0
BBX 6 12 1 0
BITMAP
20
38
08
30
78
C4
84
84
84
84
C4
7C
ENDCHAR
STARTCHAR char1394
ENCODING 1394
SWIDTH 50 0
DWIDTH 9 0
BBX 8 11 1 -3
BITMAP
BC
C4
C4
84
84
84
84
84
04
04
07
ENDCHAR
STARTCHAR char1395
ENCODING 1395
SWIDTH 50 0
DWIDTH 9 0
BBX 7 12 1 0
BITMAP
02
06
0C
38
30
28
6C
44
C6
C6
86
FE
ENDCHAR
STARTCHAR char1396
ENCODING 1396
SWIDTH 50 0
DWIDTH 9 0
BBX 6 12 1 0
BITMAP
1C
10
18
0C
84
84
84
84
84
84
CC
74
ENDCHAR
STARTCHAR char1397
ENCODING 1397
SWIDTH 22 0
DWIDTH 4 0
BBX 3 11 0 -3
BITMAP
60
60
60
60
60
60
60
60
60
60
C0
ENDCHAR
STARTCHAR char1398
ENCODING 1398
SWIDTH 44 0
DWIDTH 8 0
BBX 6 12 1 0
BITMAP
70
40
C0
C0
C4
C4
C4
C4
C4
C4
CC
74
ENDCHAR
STARTCHAR char1399
ENCODING 1399
SWIDTH 33 0
DWIDTH 6 0
BBX 5 11 1 -3
BITMAP
F0
18
08
18
10
30
60
40
80
80
F8
ENDCHAR
STARTCHAR char1400
ENCODING 1400
SWIDTH 50 0
DWIDTH 9 0
BBX 7 9 1 0
BITMAP
18
BC
C6
C6
86
86
86
86
86
ENDCHAR
STARTCHAR char1401
ENCODING 1401
SWIDTH 33 0
DWIDTH 6 0
BBX 5 11 1 -2
BITMAP
60
40
C0
60
30
30
60
40
80
80
F8
ENDCHAR
STARTCHAR char1402
ENCODING 1402
SWIDTH 16 0
DWIDTH 13 0
BBX 11 11 1 -3
BITMAP
8420
8420
8420
8420
8420
8420
CE60
73A0
0020
0020
0020
ENDCHAR
STARTCHAR char1403
ENCODING 1403
SWIDTH 44 0
DWIDTH 8 0
BBX 6 11 1 -2
BITMAP
F8
84
84
84
C4
6C
28
30
60
C0
FC
ENDCHAR
STARTCHAR char1404
ENCODING 1404
SWIDTH 44 0
DWIDTH 8 0
BBX 7 9 1 0
BITMAP
18
BC
C6
C6
86
84
88
90
9C
ENDCHAR
STARTCHAR char1405
ENCODING 1405
SWIDTH 50 0
DWIDTH 9 0
BBX 7 8 1 0
BITMAP
86
86
86
86
86
C6
C6
7A
ENDCHAR
STARTCHAR char1406
ENCODING 1406
SWIDTH 50 0
DWIDTH 9 0
BBX 8 14 1 -3
BITMAP
06
06
06
86
86
86
86
86
C6
CE
7E
06
06
07
ENDCHAR
STARTCHAR char1407
ENCODING 1407
SWIDTH 21 0
DWIDTH 14 0
BBX 12 9 1 0
BITMAP
0040
87F0
8610
8610
8610
8610
C610
C610
7A10
ENDCHAR
STARTCHAR char1408
ENCODING 1408
SWIDTH 50 0
DWIDTH 9 0
BBX 7 12 1 -3
BITMAP
18
BC
C6
C6
86
86
86
86
86
80
80
80
ENDCHAR
STARTCHAR char1409
ENCODING 1409
SWIDTH 50 0
DWIDTH 9 0
BBX 7 12 1 -3
BITMAP
30
7A
C6
86
82
82
86
C6
7E
06
C4
7C
ENDCHAR
STARTCHAR char1410
ENCODING 1410
SWIDTH 28 0
DWIDTH 5 0
BBX 4 8 1 0
BITMAP
80
80
80
80
80
80
80
F0
ENDCHAR
STARTCHAR char1411
ENCODING 1411
SWIDTH 21 0
DWIDTH 14 0
BBX 12 15 1 -3
BITMAP
0600
0600
0600
0640
87F0
8610
8610
8610
8610
C610
C610
7A10
0200
0200
0200
ENDCHAR
STARTCHAR char1412
ENCODING 1412
SWIDTH 50 0
DWIDTH 9 0
BBX 9 12 0 -3
BITMAP
0C00
3F00
2100
2180
2180
2180
3100
3E00
2000
2000
FF00
2000
ENDCHAR
STARTCHAR char1413
ENCODING 1413
SWIDTH 50 0
DWIDTH 9 0
BBX 7 8 1 0
BITMAP
7C
C6
82
82
82
82
C6
7C
ENDCHAR
STARTCHAR char1414
ENCODING 1414
SWIDTH 4 0
DWIDTH 11 0
BBX 9 15 1 -3
BITMAP
1800
7800
D800
5800
7F00
1900
1980
1880
1880
1980
9900
7E00
1800
1800
1800
ENDCHAR
STARTCHAR char1415
ENCODING 1415
SWIDTH 50 0
DWIDTH 9 0
BBX 8 12 1 0
BITMAP
C0
C0
C0
C0
C0
C0
C4
C4
C4
C4
CC
77
ENDCHAR
STARTCHAR char1417
ENCODING 1417
SWIDTH 22 0
DWIDTH 4 0
BBX 2 8 1 0
BITMAP
C0
00
00
00
00
00
C0
C0
ENDCHAR
STARTCHAR char1418
ENCODING 1418
SWIDTH 28 0
DWIDTH 5 0
BBX 4 1 0 3
BITMAP
F0
ENDCHAR
STARTCHAR char1423
ENCODING 1423
SWIDTH 10 0
DWIDTH 12 0
BBX 10 12 1 0
BITMAP
1C00
7F00
C100
C180
C180
8180
83C0
0180
03C0
0180
0180
0180
ENDCHAR
STARTCHAR char1456
ENCODING 1456
SWIDTH 0 0
DWIDTH 0 0
BBX 1 3 4 -4
BITMAP
80
00
80
ENDCHAR
STARTCHAR char1457
ENCODING 1457
SWIDTH 0 0
DWIDTH 0 0
BBX 5 3 2 -4
BITMAP
A8
00
48
ENDCHAR
STARTCHAR char1458
ENCODING 1458
SWIDTH 0 0
DWIDTH 0 0
BBX 5 3 2 -4
BITMAP
F8
00
08
ENDCHAR
STARTCHAR char1459
ENCODING 1459
SWIDTH 0 0
DWIDTH 0 0
BBX 5 3 2 -4
BITMAP
F8
40
48
ENDCHAR
STARTCHAR char1460
ENCODING 1460
SWIDTH 0 0
DWIDTH 0 0
BBX 1 1 4 -2
BITMAP
80
ENDCHAR
STARTCHAR char1461
ENCODING 1461
SWIDTH 0 0
DWIDTH 0 0
BBX 3 1 3 -2
BITMAP
A0
ENDCHAR
STARTCHAR char1462
ENCODING 1462
SWIDTH 0 0
DWIDTH 0 0
BBX 3 3 3 -4
BITMAP
A0
00
40
ENDCHAR
STARTCHAR char1463
ENCODING 1463
SWIDTH 0 0
DWIDTH 0 0
BBX 4 1 3 -2
BITMAP
F0
ENDCHAR
STARTCHAR char1464
ENCODING 1464
SWIDTH 0 0
DWIDTH 0 0
BBX 4 3 3 -4
BITMAP
F0
40
40
ENDCHAR
STARTCHAR char1465
ENCODING 1465
SWIDTH 0 0
DWIDTH 0 0
BBX 1 1 4 11
BITMAP
80
ENDCHAR
STARTCHAR char1466
ENCODING 1466
SWIDTH 0 0
DWIDTH 0 0
BBX 1 1 0 11
BITMAP
80
ENDCHAR
STARTCHAR char1467
ENCODING 1467
SWIDTH 0 0
DWIDTH 0 0
BBX 4 3 3 -4
BITMAP
80
40
10
ENDCHAR
STARTCHAR char1468
ENCODING 1468
SWIDTH 0 0
DWIDTH 0 0
BBX 1 1 4 4
BITMAP
80
ENDCHAR
STARTCHAR char1469
ENCODING 1469
SWIDTH 0 0
DWIDTH 0 0
BBX 1 3 4 -4
BITMAP
80
80
80
ENDCHAR
STARTCHAR char1470
ENCODING 1470
SWIDTH 39 0
DWIDTH 7 0
BBX 5 2 1 8
BITMAP
F8
F8
ENDCHAR
STARTCHAR char1471
ENCODING 1471
SWIDTH 0 0
DWIDTH 0 0
BBX 3 1 2 11
BITMAP
E0
ENDCHAR
STARTCHAR char1472
ENCODING 1472
SWIDTH 16 0
DWIDTH 3 0
BBX 1 13 1 -2
BITMAP
80
80
80
80
80
80
80
80
80
80
80
80
80
ENDCHAR
STARTCHAR char1473
ENCODING 1473
SWIDTH 0 0
DWIDTH 0 0
BBX 1 1 10 10
BITMAP
80
ENDCHAR
STARTCHAR char1474
ENCODING 1474
SWIDTH 0 0
DWIDTH 0 0
BBX 1 1 1 10
BITMAP
80
ENDCHAR
STARTCHAR char1475
ENCODING 1475
SWIDTH 22 0
DWIDTH 4 0
BBX 2 8 1 0
BITMAP
C0
00
00
00
00
00
C0
C0
ENDCHAR
STARTCHAR char1476
ENCODING 1476
SWIDTH 0 0
DWIDTH 0 0
BBX 1 1 6 10
BITMAP
80
ENDCHAR
STARTCHAR char1477
ENCODING 1477
SWIDTH 0 0
DWIDTH 0 0
BBX 1 1 4 -2
BITMAP
80
ENDCHAR
STARTCHAR char1478
ENCODING 1478
SWIDTH 33 0
DWIDTH 6 0
BBX 4 10 1 0
BITMAP
10
70
C0
80
80
80
80
80
80
F0
ENDCHAR
STARTCHAR char1479
ENCODING 1479
SWIDTH 0 0
DWIDTH 0 0
BBX 4 3 3 -4
BITMAP
F0
40
40
ENDCHAR
STARTCHAR char1488
ENCODING 1488
SWIDTH 56 0
DWIDTH 10 0
BBX 8 10 1 0
BITMAP
C1
41
61
31
73
4E
CC
86
82
83
ENDCHAR
STARTCHAR char1489
ENCODING 1489
SWIDTH 50 0
DWIDTH 9 0
BBX 8 10 1 0
BITMAP
F0
FC
06
06
06
06
06
06
06
FF
ENDCHAR
STARTCHAR char1490
ENCODING 1490
SWIDTH 39 0
DWIDTH 7 0
BBX 6 10 1 0
BITMAP
C0
F0
18
08
08
08
08
3C
6C
CC
ENDCHAR
STARTCHAR char1491
ENCODING 1491
SWIDTH 56 0
DWIDTH 10 0
BBX 8 10 1 0
BITMAP
FF
FF
04
04
04
04
04
04
04
04
ENDCHAR
STARTCHAR char1492
ENCODING 1492
SWIDTH 56 0
DWIDTH 10 0
BBX 8 10 1 0
BITMAP
F8
FE
03
01
81
81
81
81
81
81
ENDCHAR
STARTCHAR char1493
ENCODING 1493
SWIDTH 16 0
DWIDTH 3 0
BBX 1 10 1 0
BITMAP
80
80
80
80
80
80
80
80
80
80
ENDCHAR
STARTCHAR char1494
ENCODING 1494
SWIDTH 33 0
DWIDTH 6 0
BBX 4 10 1 0
BITMAP
F0
F0
40
40
40
40
40
40
40
40
ENDCHAR
STARTCHAR char1495
ENCODING 1495
SWIDTH 56 0
DWIDTH 10 0
BBX 8 10 1 0
BITMAP
F8
FE
83
81
81
81
81
81
81
81
ENDCHAR
STARTCHAR char1496
ENCODING 1496
SWIDTH 56 0
DWIDTH 10 0
BBX 8 10 1 0
BITMAP
98
9E
83
81
81
81
81
C3
66
3C
ENDCHAR
STARTCHAR char1497
ENCODING 1497
SWIDTH 16 0
DWIDTH 3 0
BBX 1 5 1 5
BITMAP
80
80
80
80
80
ENDCHAR
STARTCHAR char1498
ENCODING 1498
SWIDTH 44 0
DWIDTH 8 0
BBX 7 13 1 -3
BITMAP
F0
F8
04
06
06
06
06
06
06
06
06
06
06
ENDCHAR
STARTCHAR char1499
ENCODING 1499
SWIDTH 50 0
DWIDTH 9 0
BBX 7 10 1 0
BITMAP
F0
FC
06
02
02
02
02
02
0C
F8
ENDCHAR
STARTCHAR char1500
ENCODING 1500
SWIDTH 56 0
DWIDTH 10 0
BBX 8 12 1 0
BITMAP
80
80
FF
FF
03
03
02
06
0C
08
08
08
ENDCHAR
STARTCHAR char1501
ENCODING 1501
SWIDTH 56 0
DWIDTH 10 0
BBX 8 10 1 0
BITMAP
F8
FE
83
81
81
81
81
81
81
FF
ENDCHAR
STARTCHAR char1502
ENCODING 1502
SWIDTH 56 0
DWIDTH 10 0
BBX 8 10 1 0
BITMAP
F8
FE
43
41
41
41
C1
C1
C1
DF
ENDCHAR
STARTCHAR char1503
ENCODING 1503
SWIDTH 16 0
DWIDTH 3 0
BBX 1 13 1 -3
BITMAP
80
80
80
80
80
80
80
80
80
80
80
80
80
ENDCHAR
STARTCHAR char1504
ENCODING 1504
SWIDTH 33 0
DWIDTH 6 0
BBX 4 10 1 0
BITMAP
80
E0
30
10
10
10
10
10
10
F0
ENDCHAR
STARTCHAR char1505
ENCODING 1505
SWIDTH 56 0
DWIDTH 10 0
BBX 8 10 1 0
BITMAP
F8
FE
83
81
81
81
81
C3
67
3C
ENDCHAR
STARTCHAR char1506
ENCODING 1506
SWIDTH 50 0
DWIDTH 9 0
BBX 8 11 1 -1
BITMAP
C3
43
43
43
63
23
22
22
3C
F8
80
ENDCHAR
STARTCHAR char1507
ENCODING 1507
SWIDTH 50 0
DWIDTH 9 0
BBX 7 13 1 -3
BITMAP
F8
FE
82
82
82
72
02
02
02
02
02
02
02
ENDCHAR
STARTCHAR char1508
ENCODING 1508
SWIDTH 50 0
DWIDTH 9 0
BBX 8 10 1 0
BITMAP
F0
FC
86
82
C3
73
03
02
0E
F8
ENDCHAR
STARTCHAR char1509
ENCODING 1509
SWIDTH 50 0
DWIDTH 9 0
BBX 8 13 0 -3
BITMAP
C3
43
23
33
16
1C
18
18
18
18
18
18
18
ENDCHAR
STARTCHAR char1510
ENCODING 1510
SWIDTH 50 0
DWIDTH 9 0
BBX 7 10 1 0
BITMAP
82
42
62
22
3E
1C
08
0C
06
FE
ENDCHAR
STARTCHAR char1511
ENCODING 1511
SWIDTH 56 0
DWIDTH 10 0
BBX 8 13 1 -3
BITMAP
FF
FF
03
83
83
83
83
82
9E
80
80
80
80
ENDCHAR
STARTCHAR char1512
ENCODING 1512
SWIDTH 50 0
DWIDTH 9 0
BBX 7 10 1 0
BITMAP
F0
FC
06
06
02
02
02
02
02
02
ENDCHAR
STARTCHAR char1513
ENCODING 1513
SWIDTH 10 0
DWIDTH 12 0
BBX 11 10 1 0
BITMAP
8460
8460
8460
8460
8C60
F860
8040
C0C0
6180
3F00
ENDCHAR
STARTCHAR char1514
ENCODING 1514
SWIDTH 4 0
DWIDTH 11 0
BBX 9 10 1 0
BITMAP
7C00
7F00
2180
2080
2080
2080
2080
2080
6080
C080
ENDCHAR
STARTCHAR char1520
ENCODING 1520
SWIDTH 39 0
DWIDTH 7 0
BBX 5 10 1 0
BITMAP
98
98
98
98
98
98
98
98
98
98
ENDCHAR
STARTCHAR char1521
ENCODING 1521
SWIDTH 39 0
DWIDTH 7 0
BBX 5 10 1 0
BITMAP
98
98
98
98
98
18
18
18
18
18
ENDCHAR
STARTCHAR char1522
ENCODING 1522
SWIDTH 33 0
DWIDTH 6 0
BBX 4 5 1 5
BITMAP
90
90
90
90
90
ENDCHAR
STARTCHAR char1523
ENCODING 1523
SWIDTH 16 0
DWIDTH 3 0
BBX 1 4 1 7
BITMAP
80
80
80
80
ENDCHAR
STARTCHAR char1524
ENCODING 1524
SWIDTH 33 0
DWIDTH 6 0
BBX 4 4 1 7
BITMAP
B0
B0
90
90
ENDCHAR
STARTCHAR char1792
ENCODING 1792
SWIDTH 56 0
DWIDTH 10 0
BBX 8 8 1 0
BITMAP
18
08
00
C3
81
00
18
18
ENDCHAR
STARTCHAR char1793
ENCODING 1793
SWIDTH 16 0
DWIDTH 3 0
BBX 2 1 1 2
BITMAP
C0
ENDCHAR
STARTCHAR char1794
ENCODING 1794
SWIDTH 16 0
DWIDTH 3 0
BBX 1 2 1 -2
BITMAP
80
80
ENDCHAR
STARTCHAR char1795
ENCODING 1795
SWIDTH 16 0
DWIDTH 3 0
BBX 2 5 1 2
BITMAP
C0
80
00
00
C0
ENDCHAR
STARTCHAR char1796
ENCODING 1796
SWIDTH 16 0
DWIDTH 3 0
BBX 1 6 1 -4
BITMAP
80
80
00
00
80
80
ENDCHAR
STARTCHAR char1797
ENCODING 1797
SWIDTH 44 0
DWIDTH 8 0
BBX 4 2 2 0
BITMAP
90
90
ENDCHAR
STARTCHAR char1798
ENCODING 1798
SWIDTH 44 0
DWIDTH 8 0
BBX 4 4 2 -2
BITMAP
80
80
10
10
ENDCHAR
STARTCHAR char1799
ENCODING 1799
SWIDTH 44 0
DWIDTH 8 0
BBX 4 4 2 -2
BITMAP
10
10
80
80
ENDCHAR
STARTCHAR char1800
ENCODING 1800
SWIDTH 33 0
DWIDTH 6 0
BBX 4 5 1 2
BITMAP
C0
40
00
00
30
ENDCHAR
STARTCHAR char1801
ENCODING 1801
SWIDTH 33 0
DWIDTH 6 0
BBX 4 6 1 -4
BITMAP
40
C0
00
00
30
30
ENDCHAR
STARTCHAR char1802
ENCODING 1802
SWIDTH 50 0
DWIDTH 9 0
BBX 9 11 0 0
BITMAP
3600
0000
0000
FF80
0000
0800
0800
0000
0000
0800
0800
ENDCHAR
STARTCHAR char1803
ENCODING 1803
SWIDTH 50 0
DWIDTH 9 0
BBX 9 4 0 4
BITMAP
FF80
0000
0800
0800
ENDCHAR
STARTCHAR char1804
ENCODING 1804
SWIDTH 56 0
DWIDTH 10 0
BBX 5 7 3 3
BITMAP
80
80
C0
60
20
38
10
ENDCHAR
STARTCHAR char1805
ENCODING 1805
SWIDTH 50 0
DWIDTH 9 0
BBX 9 8 0 4
BITMAP
0800
6900
6B00
0800
FF80
0800
6B00
0900
ENDCHAR
STARTCHAR char1807
ENCODING 1807
SWIDTH 0 0
DWIDTH 0 0
BBX 0 0 0 0
BITMAP
ENDCHAR
STARTCHAR char1808
ENCODING 1808
SWIDTH 39 0
DWIDTH 7 0
BBX 6 12 1 -2
BITMAP
40
60
20
20
20
20
20
20
60
7C
40
80
ENDCHAR
STARTCHAR char1809
ENCODING 1809
SWIDTH 39 0
DWIDTH 7 0
BBX 5 7 1 6
BITMAP
40
20
20
20
78
78
C0
ENDCHAR
STARTCHAR char1810
ENCODING 1810
SWIDTH 50 0
DWIDTH 9 0
BBX 10 7 -1 0
BITMAP
1FC0
1FC0
00C0
00C0
00C0
00C0
FFC0
ENDCHAR
STARTCHAR char1811
ENCODING 1811
SWIDTH 56 0
DWIDTH 10 0
BBX 11 13 -1 -4
BITMAP
1000
1000
1800
0C00
0400
0600
0200
0100
FEE0
0200
0100
0080
0080
ENDCHAR
STARTCHAR char1812
ENCODING 1812
SWIDTH 56 0
DWIDTH 10 0
BBX 11 13 -1 -4
BITMAP
1000
1000
1800
0C00
0400
0600
1200
1100
FEE0
0200
0100
0080
0080
ENDCHAR
STARTCHAR char1813
ENCODING 1813
SWIDTH 44 0
DWIDTH 8 0
BBX 6 9 2 -2
BITMAP
70
78
0C
0C
0C
0C
FC
00
C0
ENDCHAR
STARTCHAR char1814
ENCODING 1814
SWIDTH 44 0
DWIDTH 8 0
BBX 6 7 2 0
BITMAP
70
78
0C
0C
0C
0C
FC
ENDCHAR
STARTCHAR char1815
ENCODING 1815
SWIDTH 4 0
DWIDTH 11 0
BBX 8 8 2 -1
BITMAP
7F
FF
89
89
89
D9
71
01
ENDCHAR
STARTCHAR char1816
ENCODING 1816
SWIDTH 50 0
DWIDTH 9 0
BBX 7 7 2 0
BITMAP
38
FC
84
86
86
EC
78
ENDCHAR
STARTCHAR char1817
ENCODING 1817
SWIDTH 33 0
DWIDTH 6 0
BBX 3 9 3 -3
BITMAP
C0
C0
E0
E0
60
40
40
40
40
ENDCHAR
STARTCHAR char1818
ENCODING 1818
SWIDTH 56 0
DWIDTH 10 0
BBX 10 4 -1 1
BITMAP
0900
0D80
0FC0
FB40
ENDCHAR
STARTCHAR char1819
ENCODING 1819
SWIDTH 4 0
DWIDTH 11 0
BBX 12 11 -1 -3
BITMAP
1000
1000
1800
0C00
0400
0600
0200
0100
FFF0
00A0
00C0
ENDCHAR
STARTCHAR char1820
ENCODING 1820
SWIDTH 4 0
DWIDTH 11 0
BBX 12 11 -1 -3
BITMAP
1000
1000
1800
0C00
0400
0600
0200
0100
FFF0
00E0
00C0
ENDCHAR
STARTCHAR char1821
ENCODING 1821
SWIDTH 44 0
DWIDTH 8 0
BBX 8 4 -1 0
BITMAP
04
02
05
FC
ENDCHAR
STARTCHAR char1822
ENCODING 1822
SWIDTH 4 0
DWIDTH 11 0
BBX 13 15 -1 -3
BITMAP
0800
0000
3600
3200
0000
7F00
FF00
8900
8920
8930
D928
71E0
0100
0800
0800
ENDCHAR
STARTCHAR char1823
ENCODING 1823
SWIDTH 56 0
DWIDTH 10 0
BBX 7 10 2 -2
BITMAP
38
E0
80
C0
5C
7E
42
06
04
04
ENDCHAR
STARTCHAR char1824
ENCODING 1824
SWIDTH 4 0
DWIDTH 11 0
BBX 11 10 -1 1
BITMAP
1800
0C00
0400
0600
0300
0180
00C0
0040
0020
FFE0
ENDCHAR
STARTCHAR char1825
ENCODING 1825
SWIDTH 4 0
DWIDTH 11 0
BBX 8 9 2 -2
BITMAP
FF
FF
11
31
21
21
7F
40
C0
ENDCHAR
STARTCHAR char1826
ENCODING 1826
SWIDTH 50 0
DWIDTH 9 0
BBX 8 9 2 -5
BITMAP
40
E0
70
50
08
04
06
02
01
ENDCHAR
STARTCHAR char1827
ENCODING 1827
SWIDTH 4 0
DWIDTH 11 0
BBX 12 7 -1 0
BITMAP
0600
0960
09B0
0910
0910
0F10
F9E0
ENDCHAR
STARTCHAR char1828
ENCODING 1828
SWIDTH 4 0
DWIDTH 11 0
BBX 8 10 3 -3
BITMAP
60
96
9B
91
91
F3
3E
20
40
C0
ENDCHAR
STARTCHAR char1829
ENCODING 1829
SWIDTH 4 0
DWIDTH 11 0
BBX 12 9 -1 0
BITMAP
1000
1000
0800
0C00
0400
0600
0200
05B0
FCC0
ENDCHAR
STARTCHAR char1830
ENCODING 1830
SWIDTH 50 0
DWIDTH 9 0
BBX 10 9 -1 0
BITMAP
0380
0E80
1880
0880
0F80
0080
0080
0080
FFC0
ENDCHAR
STARTCHAR char1831
ENCODING 1831
SWIDTH 50 0
DWIDTH 9 0
BBX 10 9 -1 0
BITMAP
7000
7C00
4400
C400
FC00
8000
8000
8000
FFC0
ENDCHAR
STARTCHAR char1832
ENCODING 1832
SWIDTH 56 0
DWIDTH 10 0
BBX 8 9 2 -5
BITMAP
84
C4
C6
FD
C0
70
1E
FF
FF
ENDCHAR
STARTCHAR char1833
ENCODING 1833
SWIDTH 50 0
DWIDTH 9 0
BBX 10 7 -1 0
BITMAP
1FC0
1FC0
1840
1840
1840
FFC0
EFC0
ENDCHAR
STARTCHAR char1834
ENCODING 1834
SWIDTH 44 0
DWIDTH 8 0
BBX 6 10 2 0
BITMAP
60
60
00
70
78
0C
0C
0C
0C
FC
ENDCHAR
STARTCHAR char1835
ENCODING 1835
SWIDTH 4 0
DWIDTH 11 0
BBX 11 7 -1 0
BITMAP
1FE0
1FE0
0100
0100
0100
0100
FFE0
ENDCHAR
STARTCHAR char1836
ENCODING 1836
SWIDTH 4 0
DWIDTH 11 0
BBX 8 8 2 0
BITMAP
20
30
58
C8
84
82
B9
E8
ENDCHAR
STARTCHAR char1837
ENCODING 1837
SWIDTH 50 0
DWIDTH 9 0
BBX 10 10 -1 0
BITMAP
0200
0400
0C00
1FC0
1FC0
00C0
00C0
00C0
00C0
FFC0
ENDCHAR
STARTCHAR char1838
ENCODING 1838
SWIDTH 56 0
DWIDTH 10 0
BBX 11 13 -1 -4
BITMAP
1100
1100
1900
0E00
0400
0600
0200
0100
FEE0
0200
0100
0080
0080
ENDCHAR
STARTCHAR char1839
ENCODING 1839
SWIDTH 44 0
DWIDTH 8 0
BBX 6 10 2 -3
BITMAP
70
78
0C
0C
0C
0C
FC
00
C0
18
ENDCHAR
STARTCHAR char1840
ENCODING 1840
SWIDTH 0 0
DWIDTH 0 0
BBX 3 2 3 11
BITMAP
E0
C0
ENDCHAR
STARTCHAR char1841
ENCODING 1841
SWIDTH 0 0
DWIDTH 0 0
BBX 2 3 5 -5
BITMAP
40
C0
40
ENDCHAR
STARTCHAR char1842
ENCODING 1842
SWIDTH 0 0
DWIDTH 0 0
BBX 1 15 5 -3
BITMAP
80
00
00
00
00
00
00
00
00
00
00
00
00
80
80
ENDCHAR
STARTCHAR char1843
ENCODING 1843
SWIDTH 0 0
DWIDTH 0 0
BBX 3 3 4 9
BITMAP
80
A0
20
ENDCHAR
STARTCHAR char1844
ENCODING 1844
SWIDTH 0 0
DWIDTH 0 0
BBX 4 3 3 -4
BITMAP
40
90
20
ENDCHAR
STARTCHAR char1845
ENCODING 1845
SWIDTH 0 0
DWIDTH 0 0
BBX 4 3 4 9
BITMAP
80
10
30
ENDCHAR
STARTCHAR char1846
ENCODING 1846
SWIDTH 0 0
DWIDTH 0 0
BBX 3 3 4 9
BITMAP
60
E0
20
ENDCHAR
STARTCHAR char1847
ENCODING 1847
SWIDTH 0 0
DWIDTH 0 0
BBX 4 3 3 -4
BITMAP
60
D0
20
ENDCHAR
STARTCHAR char1848
ENCODING 1848
SWIDTH 0 0
DWIDTH 0 0
BBX 2 1 4 -3
BITMAP
C0
ENDCHAR
STARTCHAR char1849
ENCODING 1849
SWIDTH 0 0
DWIDTH 0 0
BBX 4 2 2 -3
BITMAP
50
80
ENDCHAR
STARTCHAR char1850
ENCODING 1850
SWIDTH 0 0
DWIDTH 0 0
BBX 3 2 3 9
BITMAP
C0
E0
ENDCHAR
STARTCHAR char1851
ENCODING 1851
SWIDTH 0 0
DWIDTH 0 0
BBX 2 2 5 -3
BITMAP
C0
C0
ENDCHAR
STARTCHAR char1852
ENCODING 1852
SWIDTH 0 0
DWIDTH 0 0
BBX 2 2 4 -3
BITMAP
C0
C0
ENDCHAR
STARTCHAR char1853
ENCODING 1853
SWIDTH 0 0
DWIDTH 0 0
BBX 3 3 3 10
BITMAP
E0
20
E0
ENDCHAR
STARTCHAR char1854
ENCODING 1854
SWIDTH 0 0
DWIDTH 0 0
BBX 3 3 4 -4
BITMAP
E0
80
E0
ENDCHAR
STARTCHAR char1855
ENCODING 1855
SWIDTH 0 0
DWIDTH 0 0
BBX 2 2 4 10
BITMAP
40
C0
ENDCHAR
STARTCHAR char1856
ENCODING 1856
SWIDTH 0 0
DWIDTH 0 0
BBX 2 1 4 -2
BITMAP
C0
ENDCHAR
STARTCHAR char1857
ENCODING 1857
SWIDTH 0 0
DWIDTH 0 0
BBX 2 2 4 10
BITMAP
40
C0
ENDCHAR
STARTCHAR char1858
ENCODING 1858
SWIDTH 0 0
DWIDTH 0 0
BBX 2 2 4 -3
BITMAP
C0
C0
ENDCHAR
STARTCHAR char1859
ENCODING 1859
SWIDTH 0 0
DWIDTH 0 0
BBX 2 4 4 10
BITMAP
C0
00
C0
C0
ENDCHAR
STARTCHAR char1860
ENCODING 1860
SWIDTH 0 0
DWIDTH 0 0
BBX 2 4 4 -5
BITMAP
C0
00
C0
C0
ENDCHAR
STARTCHAR char1861
ENCODING 1861
SWIDTH 0 0
DWIDTH 0 0
BBX 4 4 3 9
BITMAP
60
20
90
90
ENDCHAR
STARTCHAR char1862
ENCODING 1862
SWIDTH 0 0
DWIDTH 0 0
BBX 4 4 3 -5
BITMAP
90
90
60
60
ENDCHAR
STARTCHAR char1863
ENCODING 1863
SWIDTH 0 0
DWIDTH 0 0
BBX 4 2 3 10
BITMAP
70
80
ENDCHAR
STARTCHAR char1864
ENCODING 1864
SWIDTH 0 0
DWIDTH 0 0
BBX 4 2 3 -2
BITMAP
F0
10
ENDCHAR
STARTCHAR char1865
ENCODING 1865
SWIDTH 0 0
DWIDTH 0 0
BBX 4 2 3 10
BITMAP
E0
70
ENDCHAR
STARTCHAR char1866
ENCODING 1866
SWIDTH 0 0
DWIDTH 0 0
BBX 2 2 4 11
BITMAP
80
C0
ENDCHAR
STARTCHAR char1869
ENCODING 1869
SWIDTH 4 0
DWIDTH 11 0
BBX 9 9 2 0
BITMAP
4080
C080
6180
6100
3300
3300
1200
1E00
0C00
ENDCHAR
STARTCHAR char1870
ENCODING 1870
SWIDTH 4 0
DWIDTH 11 0
BBX 11 11 -1 0
BITMAP
0180
1880
0F00
0400
0600
0300
0180
00C0
0040
0020
FFE0
ENDCHAR
STARTCHAR char1871
ENCODING 1871
SWIDTH 4 0
DWIDTH 11 0
BBX 11 10 -1 1
BITMAP
1980
0E40
0620
0640
03C0
0180
00C0
0040
0020
FFE0
ENDCHAR
STARTCHAR char2304
ENCODING 2304
SWIDTH 0 0
DWIDTH 0 0
BBX 6 3 -5 11
BITMAP
78
94
30
ENDCHAR
STARTCHAR char2305
ENCODING 2305
SWIDTH 0 0
DWIDTH 0 0
BBX 6 3 -5 11
BITMAP
30
D4
7C
ENDCHAR
STARTCHAR char2306
ENCODING 2306
SWIDTH 0 0
DWIDTH 0 0
BBX 2 2 -3 12
BITMAP
C0
40
ENDCHAR
STARTCHAR char2307
ENCODING 2307
SWIDTH 28 0
DWIDTH 5 0
BBX 2 7 1 2
BITMAP
C0
40
00
00
00
C0
40
ENDCHAR
STARTCHAR char2308
ENCODING 2308
SWIDTH 4 0
DWIDTH 11 0
BBX 11 14 1 0
BITMAP
1000
1300
0C80
0080
33E0
C880
0880
0880
3880
8780
C480
6480
3C80
0080
ENDCHAR
STARTCHAR char2309
ENCODING 2309
SWIDTH 4 0
DWIDTH 11 0
BBX 11 10 1 0
BITMAP
33E0
C880
0880
0880
3880
8780
C480
6480
3C80
0080
ENDCHAR
STARTCHAR char2310
ENCODING 2310
SWIDTH 21 0
DWIDTH 14 0
BBX 14 10 0 0
BITMAP
39FC
6CC8
04C8
0CC8
1CC8
87C8
42C8
66C8
1CC8
00C8
ENDCHAR
STARTCHAR char2311
ENCODING 2311
SWIDTH 39 0
DWIDTH 7 0
BBX 8 12 0 -2
BITMAP
FF
04
04
7C
40
2C
1E
42
64
78
08
06
ENDCHAR
STARTCHAR char2312
ENCODING 2312
SWIDTH 39 0
DWIDTH 7 0
BBX 8 16 0 -2
BITMAP
0E
08
08
08
FF
04
04
7C
40
2C
1E
42
64
78
08
06
ENDCHAR
STARTCHAR char2313
ENCODING 2313
SWIDTH 50 0
DWIDTH 9 0
BBX 9 10 0 0
BITMAP
FF80
0300
0100
4100
4F00
6300
2180
3080
1980
0F00
ENDCHAR
STARTCHAR char2314
ENCODING 2314
SWIDTH 16 0
DWIDTH 13 0
BBX 13 10 0 0
BITMAP
FFF8
0300
0100
4100
4F60
63D0
2190
3090
19B0
0F20
ENDCHAR
STARTCHAR char2315
ENCODING 2315
SWIDTH 27 0
DWIDTH 15 0
BBX 15 10 0 0
BITMAP
FFFE
0180
0180
1D90
67B0
03D0
07B8
0DA0
31A0
01BC
ENDCHAR
STARTCHAR char2316
ENCODING 2316
SWIDTH 56 0
DWIDTH 10 0
BBX 10 12 0 -2
BITMAP
FFC0
0100
0100
3F80
4CC0
4C40
4C80
4180
2300
1200
0240
01C0
ENDCHAR
STARTCHAR char2317
ENCODING 2317
SWIDTH 39 0
DWIDTH 7 0
BBX 7 15 0 -2
BITMAP
C4
7C
00
FE
44
44
44
44
4C
60
30
18
0C
06
0C
ENDCHAR
STARTCHAR char2318
ENCODING 2318
SWIDTH 39 0
DWIDTH 7 0
BBX 7 16 0 -2
BITMAP
80
98
74
04
FE
44
44
44
44
4C
60
30
18
0C
06
0C
ENDCHAR
STARTCHAR char2319
ENCODING 2319
SWIDTH 39 0
DWIDTH 7 0
BBX 7 12 0 -2
BITMAP
FE
44
44
44
44
4C
60
30
18
0C
06
0C
ENDCHAR
STARTCHAR char2320
ENCODING 2320
SWIDTH 39 0
DWIDTH 7 0
BBX 7 16 0 -2
BITMAP
60
30
18
0C
FE
44
44
44
44
4C
60
30
18
0C
06
0C
ENDCHAR
STARTCHAR char2321
ENCODING 2321
SWIDTH 21 0
DWIDTH 14 0
BBX 14 13 0 0
BITMAP
008C
00F8
0000
39FC
6CC8
04C8
0CC8
1CC8
87C8
42C8
66C8
1CC8
00C8
ENDCHAR
STARTCHAR char2322
ENCODING 2322
SWIDTH 21 0
DWIDTH 14 0
BBX 14 14 0 0
BITMAP
0100
0130
01D8
0008
39FC
6CC8
04C8
0CC8
1CC8
87C8
42C8
66C8
1CC8
00C8
ENDCHAR
STARTCHAR char2323
ENCODING 2323
SWIDTH 21 0
DWIDTH 14 0
BBX 14 14 0 0
BITMAP
00C0
0060
0030
0010
39FC
6CC8
04C8
0CC8
1CC8
87C8
42C8
66C8
1CC8
00C8
ENDCHAR
STARTCHAR char2324
ENCODING 2324
SWIDTH 21 0
DWIDTH 14 0
BBX 14 14 0 0
BITMAP
0020
0030
00D0
0038
39FC
6CC8
04C8
0CC8
1CC8
87C8
42C8
66C8
1CC8
00C8
ENDCHAR
STARTCHAR char2325
ENCODING 2325
SWIDTH 10 0
DWIDTH 12 0
BBX 12 10 0 0
BITMAP
FFF0
0200
0200
3BC0
4320
4220
4620
7E40
0240
0200
ENDCHAR
STARTCHAR char2326
ENCODING 2326
SWIDTH 10 0
DWIDTH 12 0
BBX 13 10 0 0
BITMAP
FFF8
1820
1820
5BA0
7A20
6360
21A0
3060
1FE0
0220
ENDCHAR
STARTCHAR char2327
ENCODING 2327
SWIDTH 44 0
DWIDTH 8 0
BBX 9 10 0 0
BITMAP
FF80
2200
2200
2200
6200
6200
2200
0200
0200
0200
ENDCHAR
STARTCHAR char2328
ENCODING 2328
SWIDTH 50 0
DWIDTH 9 0
BBX 10 10 0 0
BITMAP
FFC0
4100
4100
6100
3900
6100
6300
3D00
0100
0100
ENDCHAR
STARTCHAR char2329
ENCODING 2329
SWIDTH 4 0
DWIDTH 11 0
BBX 11 10 0 0
BITMAP
FFE0
0100
0100
1F00
1860
4940
6780
2080
1880
0F00
ENDCHAR
STARTCHAR char2330
ENCODING 2330
SWIDTH 56 0
DWIDTH 10 0
BBX 10 10 0 0
BITMAP
FFC0
0080
0080
7C80
1880
3180
2380
1E80
0080
0080
ENDCHAR
STARTCHAR char2331
ENCODING 2331
SWIDTH 56 0
DWIDTH 10 0
BBX 10 10 0 0
BITMAP
FFC0
4100
4100
4180
72C0
3240
22C0
6180
2300
3E00
ENDCHAR
STARTCHAR char2332
ENCODING 2332
SWIDTH 4 0
DWIDTH 11 0
BBX 11 10 0 0
BITMAP
FFE0
0040
0040
47C0
4640
6240
3240
1E40
0040
0040
ENDCHAR
STARTCHAR char2333
ENCODING 2333
SWIDTH 4 0
DWIDTH 11 0
BBX 11 12 0 -2
BITMAP
FFE0
0440
0440
7C40
4040
2C40
1FC0
4240
6440
7840
0800
0600
ENDCHAR
STARTCHAR char2334
ENCODING 2334
SWIDTH 4 0
DWIDTH 11 0
BBX 11 10 0 0
BITMAP
FFE0
0040
0040
3C40
0440
06C0
07C0
6440
3840
0040
ENDCHAR
STARTCHAR char2335
ENCODING 2335
SWIDTH 50 0
DWIDTH 9 0
BBX 9 10 0 0
BITMAP
FF80
0200
0200
3E00
6000
4000
4000
6000
3100
1E00
ENDCHAR
STARTCHAR char2336
ENCODING 2336
SWIDTH 50 0
DWIDTH 9 0
BBX 9 10 0 0
BITMAP
FF80
0200
0200
3E00
7E00
4300
4100
4100
3300
1C00
ENDCHAR
STARTCHAR char2337
ENCODING 2337
SWIDTH 56 0
DWIDTH 10 0
BBX 10 10 0 0
BITMAP
FFC0
0100
0100
1F00
1800
4900
6780
2080
1880
0F00
ENDCHAR
STARTCHAR char2338
ENCODING 2338
SWIDTH 50 0
DWIDTH 9 0
BBX 9 10 0 0
BITMAP
FF80
0200
0200
3E00
6000
4000
4F00
4900
3D00
1E00
ENDCHAR
STARTCHAR char2339
ENCODING 2339
SWIDTH 56 0
DWIDTH 10 0
BBX 10 10 0 0
BITMAP
FFC0
4980
4980
4980
4980
4980
3180
0180
0180
0180
ENDCHAR
STARTCHAR char2340
ENCODING 2340
SWIDTH 50 0
DWIDTH 9 0
BBX 9 10 0 0
BITMAP
FF80
0100
0100
7F00
4100
4100
4100
6100
3100
1100
ENDCHAR
STARTCHAR char2341
ENCODING 2341
SWIDTH 4 0
DWIDTH 11 0
BBX 10 10 1 0
BITMAP
63C0
9100
8900
4900
1100
E100
4300
3D00
0100
0100
ENDCHAR
STARTCHAR char2342
ENCODING 2342
SWIDTH 44 0
DWIDTH 8 0
BBX 8 11 0 -1
BITMAP
FF
02
02
7E
40
40
46
3E
0E
02
03
ENDCHAR
STARTCHAR char2343
ENCODING 2343
SWIDTH 50 0
DWIDTH 9 0
BBX 9 10 1 0
BITMAP
6780
A200
8200
8200
7200
4200
C600
7A00
0200
0200
ENDCHAR
STARTCHAR char2344
ENCODING 2344
SWIDTH 50 0
DWIDTH 9 0
BBX 9 10 0 0
BITMAP
FF80
0100
0100
0100
7F00
6100
2100
0100
0100
0100
ENDCHAR
STARTCHAR char2345
ENCODING 2345
SWIDTH 50 0
DWIDTH 9 0
BBX 9 11 0 -1
BITMAP
FF80
0100
0100
0100
7F00
6100
2100
0100
0900
1D00
0800
ENDCHAR
STARTCHAR char2346
ENCODING 2346
SWIDTH 44 0
DWIDTH 8 0
BBX 8 10 0 0
BITMAP
FF
46
46
46
46
46
7E
06
06
06
ENDCHAR
STARTCHAR char2347
ENCODING 2347
SWIDTH 10 0
DWIDTH 12 0
BBX 12 10 0 0
BITMAP
FFF0
4600
4600
4680
4760
4620
7E20
0640
06C0
0600
ENDCHAR
STARTCHAR char2348
ENCODING 2348
SWIDTH 44 0
DWIDTH 8 0
BBX 8 10 0 0
BITMAP
FF
02
02
7A
62
52
4E
3A
02
02
ENDCHAR
STARTCHAR char2349
ENCODING 2349
SWIDTH 50 0
DWIDTH 9 0
BBX 9 10 0 0
BITMAP
6780
F100
9100
1100
1100
3F00
3100
1100
0100
0100
ENDCHAR
STARTCHAR char2350
ENCODING 2350
SWIDTH 44 0
DWIDTH 8 0
BBX 8 10 0 0
BITMAP
FF
62
62
62
62
FE
62
22
02
02
ENDCHAR
STARTCHAR char2351
ENCODING 2351
SWIDTH 50 0
DWIDTH 9 0
BBX 9 10 0 0
BITMAP
FF80
3100
1100
1100
7100
4300
3F00
0100
0100
0100
ENDCHAR
STARTCHAR char2352
ENCODING 2352
SWIDTH 39 0
DWIDTH 7 0
BBX 7 10 0 0
BITMAP
FE
04
04
44
7C
30
30
18
08
04
ENDCHAR
STARTCHAR char2353
ENCODING 2353
SWIDTH 39 0
DWIDTH 7 0
BBX 7 12 0 -2
BITMAP
FE
04
04
44
7C
30
30
18
08
44
E0
40
ENDCHAR
STARTCHAR char2354
ENCODING 2354
SWIDTH 4 0
DWIDTH 11 0
BBX 11 10 0 0
BITMAP
FFE0
0080
0080
3180
7F80
4680
4480
4080
3080
1880
ENDCHAR
STARTCHAR char2355
ENCODING 2355
SWIDTH 4 0
DWIDTH 11 0
BBX 11 9 0 1
BITMAP
FFE0
0100
0100
3B80
4EC0
4440
4440
4EC0
3B80
ENDCHAR
STARTCHAR char2356
ENCODING 2356
SWIDTH 4 0
DWIDTH 11 0
BBX 11 11 0 -2
BITMAP
FFE0
0100
0100
3B80
4EC0
4440
4440
4EC0
3B80
0000
0300
ENDCHAR
STARTCHAR char2357
ENCODING 2357
SWIDTH 44 0
DWIDTH 8 0
BBX 8 10 0 0
BITMAP
FF
04
04
74
C4
C4
44
7C
04
04
ENDCHAR
STARTCHAR char2358
ENCODING 2358
SWIDTH 56 0
DWIDTH 10 0
BBX 11 10 0 0
BITMAP
FFE0
6C80
4480
7C80
0480
0C80
7880
3080
1880
0C80
ENDCHAR
STARTCHAR char2359
ENCODING 2359
SWIDTH 44 0
DWIDTH 8 0
BBX 8 10 0 0
BITMAP
FF
46
66
56
4E
46
7E
16
06
06
ENDCHAR
STARTCHAR char2360
ENCODING 2360
SWIDTH 4 0
DWIDTH 11 0
BBX 11 10 0 0
BITMAP
FFE0
04C0
04C0
44C0
7FC0
30C0
30C0
18C0
08C0
04C0
ENDCHAR
STARTCHAR char2361
ENCODING 2361
SWIDTH 44 0
DWIDTH 8 0
BBX 8 11 0 -1
BITMAP
FF
06
06
7E
40
7C
7E
42
42
20
1C
ENDCHAR
STARTCHAR char2362
ENCODING 2362
SWIDTH 0 0
DWIDTH 0 0
BBX 1 3 -2 10
BITMAP
80
80
80
ENDCHAR
STARTCHAR char2363
ENCODING 2363
SWIDTH 22 0
DWIDTH 4 0
BBX 4 13 0 0
BITMAP
40
40
40
F0
40
40
40
40
40
40
40
40
40
ENDCHAR
STARTCHAR char2364
ENCODING 2364
SWIDTH 0 0
DWIDTH 0 0
BBX 2 1 -6 -1
BITMAP
C0
ENDCHAR
STARTCHAR char2365
ENCODING 2365
SWIDTH 39 0
DWIDTH 7 0
BBX 6 9 1 0
BITMAP
F8
80
C0
60
18
08
04
84
78
ENDCHAR
STARTCHAR char2366
ENCODING 2366
SWIDTH 22 0
DWIDTH 4 0
BBX 4 10 0 0
BITMAP
F0
40
40
40
40
40
40
40
40
40
ENDCHAR
STARTCHAR char2367
ENCODING 2367
SWIDTH 22 0
DWIDTH 4 0
BBX 10 14 0 0
BITMAP
3C00
6700
4180
40C0
F000
4000
4000
4000
4000
4000
4000
4000
4000
4000
ENDCHAR
STARTCHAR char2368
ENCODING 2368
SWIDTH 22 0
DWIDTH 4 0
BBX 8 14 -4 0
BITMAP
30
EC
84
C4
0F
04
04
04
04
04
04
04
04
04
ENDCHAR
STARTCHAR char2369
ENCODING 2369
SWIDTH 0 0
DWIDTH 0 0
BBX 7 4 -7 -4
BITMAP
0C
92
C2
7E
ENDCHAR
STARTCHAR char2370
ENCODING 2370
SWIDTH 0 0
DWIDTH 0 0
BBX 7 4 -5 -4
BITMAP
7C
86
92
60
ENDCHAR
STARTCHAR char2371
ENCODING 2371
SWIDTH 0 0
DWIDTH 0 0
BBX 5 4 -5 -4
BITMAP
70
C0
80
78
ENDCHAR
STARTCHAR char2372
ENCODING 2372
SWIDTH 0 0
DWIDTH 0 0
BBX 5 7 -5 -5
BITMAP
70
80
C0
78
40
40
38
ENDCHAR
STARTCHAR char2373
ENCODING 2373
SWIDTH 0 0
DWIDTH 0 0
BBX 6 2 -5 10
BITMAP
C4
7C
ENDCHAR
STARTCHAR char2374
ENCODING 2374
SWIDTH 0 0
DWIDTH 0 0
BBX 6 4 -7 10
BITMAP
80
98
EC
04
ENDCHAR
STARTCHAR char2375
ENCODING 2375
SWIDTH 0 0
DWIDTH 0 0
BBX 4 4 -6 10
BITMAP
C0
40
20
10
ENDCHAR
STARTCHAR char2376
ENCODING 2376
SWIDTH 0 0
DWIDTH 0 0
BBX 5 4 -6 10
BITMAP
20
30
D0
38
ENDCHAR
STARTCHAR char2377
ENCODING 2377
SWIDTH 22 0
DWIDTH 4 0
BBX 6 13 -1 0
BITMAP
8C
F8
00
78
20
20
20
20
20
20
20
20
20
ENDCHAR
STARTCHAR char2378
ENCODING 2378
SWIDTH 22 0
DWIDTH 4 0
BBX 8 14 -4 0
BITMAP
80
C8
74
04
0F
04
04
04
04
04
04
04
04
04
ENDCHAR
STARTCHAR char2379
ENCODING 2379
SWIDTH 22 0
DWIDTH 4 0
BBX 6 14 -2 0
BITMAP
80
C0
60
10
3C
10
10
10
10
10
10
10
10
10
ENDCHAR
STARTCHAR char2380
ENCODING 2380
SWIDTH 22 0
DWIDTH 4 0
BBX 7 14 -3 0
BITMAP
30
90
F8
18
1E
08
08
08
08
08
08
08
08
08
ENDCHAR
STARTCHAR char2381
ENCODING 2381
SWIDTH 0 0
DWIDTH 0 0
BBX 4 4 -3 -4
BITMAP
C0
60
20
10
ENDCHAR
STARTCHAR char2382
ENCODING 2382
SWIDTH 11 0
DWIDTH 2 0
BBX 3 10 0 0
BITMAP
E0
80
80
80
80
80
80
80
80
80
ENDCHAR
STARTCHAR char2383
ENCODING 2383
SWIDTH 22 0
DWIDTH 4 0
BBX 8 14 -4 0
BITMAP
08
8E
FA
0E
0F
04
04
04
04
04
04
04
04
04
ENDCHAR
STARTCHAR char2384
ENCODING 2384
SWIDTH 16 0
DWIDTH 13 0
BBX 12 12 1 1
BITMAP
0180
02A0
03E0
7000
C800
0860
18B0
3910
8E10
C410
44F0
3860
ENDCHAR
STARTCHAR char2385
ENCODING 2385
SWIDTH 0 0
DWIDTH 0 0
BBX 1 4 -2 10
BITMAP
80
80
80
80
ENDCHAR
STARTCHAR char2386
ENCODING 2386
SWIDTH 0 0
DWIDTH 0 0
BBX 9 1 -9 -4
BITMAP
FF80
ENDCHAR
STARTCHAR char2387
ENCODING 2387
SWIDTH 0 0
DWIDTH 0 0
BBX 3 2 -7 12
BITMAP
E0
20
ENDCHAR
STARTCHAR char2388
ENCODING 2388
SWIDTH 0 0
DWIDTH 0 0
BBX 4 2 -3 12
BITMAP
70
80
ENDCHAR
STARTCHAR char2389
ENCODING 2389
SWIDTH 0 0
DWIDTH 0 0
BBX 6 4 -5 10
BITMAP
C4
78
00
FC
ENDCHAR
STARTCHAR char2390
ENCODING 2390
SWIDTH 0 0
DWIDTH 0 0
BBX 7 2 -7 -3
BITMAP
FE
38
ENDCHAR
STARTCHAR char2391
ENCODING 2391
SWIDTH 0 0
DWIDTH 0 0
BBX 7 4 -7 -5
BITMAP
FE
38
FE
38
ENDCHAR
STARTCHAR char2392
ENCODING 2392
SWIDTH 10 0
DWIDTH 12 0
BBX 12 11 0 -2
BITMAP
FFF0
0200
0200
3BC0
4320
4220
4620
7E40
0240
0200
3000
ENDCHAR
STARTCHAR char2393
ENCODING 2393
SWIDTH 10 0
DWIDTH 12 0
BBX 13 12 0 -3
BITMAP
FFF8
1820
1820
5BA0
7A20
6360
21A0
3060
1FE0
0220
0000
0600
ENDCHAR
STARTCHAR char2394
ENCODING 2394
SWIDTH 44 0
DWIDTH 8 0
BBX 9 10 0 0
BITMAP
FF80
2200
2200
2200
6200
6200
2200
0200
6200
0200
ENDCHAR
STARTCHAR char2395
ENCODING 2395
SWIDTH 4 0
DWIDTH 11 0
BBX 11 11 0 -2
BITMAP
FFE0
0040
0040
47C0
4640
6240
3240
1E40
0040
0040
0C00
ENDCHAR
STARTCHAR char2396
ENCODING 2396
SWIDTH 56 0
DWIDTH 10 0
BBX 10 12 0 -3
BITMAP
FFC0
0100
0100
1F00
1800
4900
6780
2080
1880
0F00
0000
0C00
ENDCHAR
STARTCHAR char2397
ENCODING 2397
SWIDTH 50 0
DWIDTH 9 0
BBX 9 13 0 -3
BITMAP
FF80
0200
0200
3E00
6000
4000
4F00
4900
3D00
1E00
0000
1800
0800
ENDCHAR
STARTCHAR char2398
ENCODING 2398
SWIDTH 10 0
DWIDTH 12 0
BBX 12 10 0 -1
BITMAP
FFF0
4600
4600
4680
4760
4620
7E20
0640
06C0
3600
ENDCHAR
STARTCHAR char2399
ENCODING 2399
SWIDTH 50 0
DWIDTH 9 0
BBX 9 11 0 -1
BITMAP
FF80
3100
1100
1100
7100
4300
3F00
0100
0100
1900
0800
ENDCHAR
STARTCHAR char2400
ENCODING 2400
SWIDTH 21 0
DWIDTH 14 0
BBX 15 13 0 -3
BITMAP
FFFE
0100
0100
3D30
6770
03D0
0730
1D20
3120
0138
0020
0020
001C
ENDCHAR
STARTCHAR char2401
ENCODING 2401
SWIDTH 56 0
DWIDTH 10 0
BBX 10 15 0 -5
BITMAP
FFC0
0100
0100
7F80
4C80
4880
4080
6100
3200
1200
03C0
0380
0200
03C0
00C0
ENDCHAR
STARTCHAR char2402
ENCODING 2402
SWIDTH 0 0
DWIDTH 0 0
BBX 7 7 -7 -5
BITMAP
6C
92
92
44
68
08
06
ENDCHAR
STARTCHAR char2403
ENCODING 2403
SWIDTH 0 0
DWIDTH 0 0
BBX 8 9 -7 -5
BITMAP
6E
92
92
44
28
08
04
08
07
ENDCHAR
STARTCHAR char2404
ENCODING 2404
SWIDTH 4 0
DWIDTH 11 0
BBX 1 11 6 -2
BITMAP
80
80
80
80
80
80
80
80
80
80
80
ENDCHAR
STARTCHAR char2405
ENCODING 2405
SWIDTH 4 0
DWIDTH 11 0
BBX 4 11 4 -2
BITMAP
90
90
90
90
90
90
90
90
90
90
90
ENDCHAR
STARTCHAR char2406
ENCODING 2406
SWIDTH 50 0
DWIDTH 9 0
BBX 7 7 1 1
BITMAP
38
64
C6
C2
46
7C
10
ENDCHAR
STARTCHAR char2407
ENCODING 2407
SWIDTH 50 0
DWIDTH 9 0
BBX 5 10 2 0
BITMAP
70
D8
88
88
F8
08
08
08
08
08
ENDCHAR
STARTCHAR char2408
ENCODING 2408
SWIDTH 50 0
DWIDTH 9 0
BBX 6 11 2 -1
BITMAP
70
D8
04
04
04
08
F0
70
10
18
08
ENDCHAR
STARTCHAR char2409
ENCODING 2409
SWIDTH 50 0
DWIDTH 9 0
BBX 6 12 2 -2
BITMAP
70
98
08
18
70
08
04
CC
F8
20
10
10
ENDCHAR
STARTCHAR char2410
ENCODING 2410
SWIDTH 50 0
DWIDTH 9 0
BBX 7 10 1 0
BITMAP
42
C2
C2
66
38
38
64
44
64
38
ENDCHAR
STARTCHAR char2411
ENCODING 2411
SWIDTH 50 0
DWIDTH 9 0
BBX 6 10 2 0
BITMAP
80
80
88
98
98
F8
28
04
04
04
ENDCHAR
STARTCHAR char2412
ENCODING 2412
SWIDTH 50 0
DWIDTH 9 0
BBX 5 11 2 -2
BITMAP
70
C0
80
C0
70
C0
80
98
F8
38
08
ENDCHAR
STARTCHAR char2413
ENCODING 2413
SWIDTH 50 0
DWIDTH 9 0
BBX 7 10 1 0
BITMAP
80
8C
92
92
92
9A
86
C6
6C
38
ENDCHAR
STARTCHAR char2414
ENCODING 2414
SWIDTH 50 0
DWIDTH 9 0
BBX 5 10 2 0
BITMAP
20
20
20
40
40
40
80
88
C8
70
ENDCHAR
STARTCHAR char2415
ENCODING 2415
SWIDTH 50 0
DWIDTH 9 0
BBX 5 12 2 -2
BITMAP
70
D8
88
88
78
60
20
30
10
08
08
08
ENDCHAR
STARTCHAR char2416
ENCODING 2416
SWIDTH 33 0
DWIDTH 6 0
BBX 4 3 1 3
BITMAP
70
90
60
ENDCHAR
STARTCHAR char2417
ENCODING 2417
SWIDTH 33 0
DWIDTH 6 0
BBX 2 2 2 11
BITMAP
C0
C0
ENDCHAR
STARTCHAR char2418
ENCODING 2418
SWIDTH 4 0
DWIDTH 11 0
BBX 11 13 1 0
BITMAP
0220
03E0
0080
33E0
C880
0880
0880
3880
8780
C480
6480
3C80
0080
ENDCHAR
STARTCHAR char2419
ENCODING 2419
SWIDTH 4 0
DWIDTH 11 0
BBX 11 13 1 0
BITMAP
0080
0080
0080
33E0
C880
0880
0880
3880
8780
C480
6480
3C80
0080
ENDCHAR
STARTCHAR char2420
ENCODING 2420
SWIDTH 21 0
DWIDTH 14 0
BBX 14 13 0 0
BITMAP
0008
0008
0008
39FC
6CC8
04C8
0CC8
1CC8
87C8
42C8
66C8
1CC8
00C8
ENDCHAR
STARTCHAR char2421
ENCODING 2421
SWIDTH 21 0
DWIDTH 14 0
BBX 14 14 0 0
BITMAP
0010
0218
03E4
0014
39FC
6CC8
04C8
0CC8
1CC8
87C8
42C8
66C8
1CC8
00C8
ENDCHAR
STARTCHAR char2422
ENCODING 2422
SWIDTH 4 0
DWIDTH 11 0
BBX 11 13 1 -3
BITMAP
33E0
C880
0880
0880
3880
8780
C480
6480
3C80
0080
0000
3F80
0E00
ENDCHAR
STARTCHAR char2423
ENCODING 2423
SWIDTH 4 0
DWIDTH 11 0
BBX 11 15 1 -5
BITMAP
33E0
C880
0880
0880
3880
8780
C480
6480
3C80
0080
0000
3F80
0E00
3F80
0E00
ENDCHAR
STARTCHAR char2425
ENCODING 2425
SWIDTH 4 0
DWIDTH 11 0
BBX 11 12 0 -3
BITMAP
FFE0
0040
0040
47C0
4640
6240
3240
1E40
0040
3340
0000
0C00
ENDCHAR
STARTCHAR char2426
ENCODING 2426
SWIDTH 50 0
DWIDTH 9 0
BBX 9 10 0 0
BITMAP
FF80
3100
1100
1900
7500
4300
3F00
0100
0100
0100
ENDCHAR
STARTCHAR char2427
ENCODING 2427
SWIDTH 50 0
DWIDTH 9 0
BBX 9 10 0 0
BITMAP
FF80
0100
0100
0100
7F00
6100
2100
0100
0100
FF80
ENDCHAR
STARTCHAR char2428
ENCODING 2428
SWIDTH 4 0
DWIDTH 11 0
BBX 11 10 0 0
BITMAP
FFE0
0040
0040
47C0
4640
6240
3240
1E40
0040
FFE0
ENDCHAR
STARTCHAR char2429
ENCODING 2429
SWIDTH 50 0
DWIDTH 9 0
BBX 6 10 2 0
BITMAP
70
D8
04
04
04
08
30
20
20
20
ENDCHAR
STARTCHAR char2430
ENCODING 2430
SWIDTH 56 0
DWIDTH 10 0
BBX 10 11 0 -1
BITMAP
FFC0
0100
0100
1F00
1800
4900
6780
2080
1880
0F00
FF80
ENDCHAR
STARTCHAR char2431
ENCODING 2431
SWIDTH 44 0
DWIDTH 8 0
BBX 8 10 0 0
BITMAP
FF
02
02
7A
62
52
4E
3A
02
FF
ENDCHAR
STARTCHAR char2433
ENCODING 2433
SWIDTH 0 0
DWIDTH 0 0
BBX 5 3 -5 10
BITMAP
20
A8
70
ENDCHAR
STARTCHAR char2434
ENCODING 2434
SWIDTH 28 0
DWIDTH 5 0
BBX 4 8 0 1
BITMAP
60
90
50
20
00
40
20
10
ENDCHAR
STARTCHAR char2435
ENCODING 2435
SWIDTH 22 0
DWIDTH 4 0
BBX 3 7 1 1
BITMAP
C0
A0
C0
00
C0
A0
C0
ENDCHAR
STARTCHAR char2437
ENCODING 2437
SWIDTH 4 0
DWIDTH 11 0
BBX 11 9 0 0
BITMAP
FFE0
4080
4E80
4180
2180
1380
0C80
0080
0080
ENDCHAR
STARTCHAR char2438
ENCODING 2438
SWIDTH 16 0
DWIDTH 13 0
BBX 13 10 0 0
BITMAP
0010
FFF8
4090
4E90
4190
2190
1390
0C90
0090
0090
ENDCHAR
STARTCHAR char2439
ENCODING 2439
SWIDTH 44 0
DWIDTH 8 0
BBX 8 13 0 0
BITMAP
80
FC
04
FF
10
2C
04
04
78
18
04
02
01
ENDCHAR
STARTCHAR char2440
ENCODING 2440
SWIDTH 50 0
DWIDTH 9 0
BBX 9 12 0 0
BITMAP
8000
7E00
0200
FF80
2000
5B00
0E00
0A00
5200
2200
0200
0200
ENDCHAR
STARTCHAR char2441
ENCODING 2441
SWIDTH 50 0
DWIDTH 9 0
BBX 9 11 0 2
BITMAP
8000
7E00
0200
FF80
1000
5200
5300
4D00
2100
2300
1E00
ENDCHAR
STARTCHAR char2442
ENCODING 2442
SWIDTH 50 0
DWIDTH 9 0
BBX 9 12 0 1
BITMAP
4000
4000
7E00
0100
FF80
0800
A800
6B00
6D00
2100
3100
0E00
ENDCHAR
STARTCHAR char2443
ENCODING 2443
SWIDTH 56 0
DWIDTH 10 0
BBX 10 10 0 0
BITMAP
0500
9DC0
6500
1D00
6500
3700
0D00
0500
0500
0500
ENDCHAR
STARTCHAR char2444
ENCODING 2444
SWIDTH 44 0
DWIDTH 8 0
BBX 7 9 2 1
BITMAP
80
80
C0
38
64
54
92
14
38
ENDCHAR
STARTCHAR char2447
ENCODING 2447
SWIDTH 50 0
DWIDTH 9 0
BBX 7 9 1 0
BITMAP
0E
12
22
B2
82
82
FE
02
02
ENDCHAR
STARTCHAR char2448
ENCODING 2448
SWIDTH 56 0
DWIDTH 10 0
BBX 8 13 1 1
BITMAP
20
20
1C
03
0F
13
23
B2
82
82
FE
02
02
ENDCHAR
STARTCHAR char2451
ENCODING 2451
SWIDTH 50 0
DWIDTH 9 0
BBX 8 8 0 1
BITMAP
06
99
51
53
41
21
11
0E
ENDCHAR
STARTCHAR char2452
ENCODING 2452
SWIDTH 56 0
DWIDTH 10 0
BBX 9 12 0 2
BITMAP
1000
1000
0E00
0180
0680
9980
5180
5180
4300
2100
1100
0E00
ENDCHAR
STARTCHAR char2453
ENCODING 2453
SWIDTH 50 0
DWIDTH 9 0
BBX 9 9 0 0
BITMAP
FF80
0400
1F00
6480
6480
1780
0C00
0400
0400
ENDCHAR
STARTCHAR char2454
ENCODING 2454
SWIDTH 39 0
DWIDTH 7 0
BBX 7 10 0 0
BITMAP
02
12
9A
6A
12
22
1A
06
02
02
ENDCHAR
STARTCHAR char2455
ENCODING 2455
SWIDTH 44 0
DWIDTH 8 0
BBX 7 10 1 0
BITMAP
04
76
8C
E4
24
24
04
04
04
04
ENDCHAR
STARTCHAR char2456
ENCODING 2456
SWIDTH 39 0
DWIDTH 7 0
BBX 7 9 0 0
BITMAP
FE
84
54
34
24
34
0C
04
04
ENDCHAR
STARTCHAR char2457
ENCODING 2457
SWIDTH 44 0
DWIDTH 8 0
BBX 7 8 0 0
BITMAP
5C
24
B8
A6
5A
42
22
1C
ENDCHAR
STARTCHAR char2458
ENCODING 2458
SWIDTH 39 0
DWIDTH 7 0
BBX 7 9 0 0
BITMAP
FE
40
60
58
44
44
48
50
60
ENDCHAR
STARTCHAR char2459
ENCODING 2459
SWIDTH 44 0
DWIDTH 8 0
BBX 8 10 0 -1
BITMAP
FF
40
B8
94
94
64
78
18
04
02
ENDCHAR
STARTCHAR char2460
ENCODING 2460
SWIDTH 56 0
DWIDTH 10 0
BBX 10 9 0 0
BITMAP
FFC0
1800
A780
6080
5D00
4300
2500
1900
0100
ENDCHAR
STARTCHAR char2461
ENCODING 2461
SWIDTH 50 0
DWIDTH 9 0
BBX 9 10 0 0
BITMAP
0100
FD80
0500
3D00
4500
6500
1500
0F00
0500
0400
ENDCHAR
STARTCHAR char2462
ENCODING 2462
SWIDTH 10 0
DWIDTH 12 0
BBX 12 9 0 0
BITMAP
0700
0960
1190
9910
8130
8110
7FD0
0120
0100
ENDCHAR
STARTCHAR char2463
ENCODING 2463
SWIDTH 33 0
DWIDTH 6 0
BBX 7 12 -1 1
BITMAP
80
80
7C
02
7E
20
24
22
22
24
24
38
ENDCHAR
STARTCHAR char2464
ENCODING 2464
SWIDTH 33 0
DWIDTH 6 0
BBX 6 13 0 1
BITMAP
40
40
40
20
FC
10
18
18
14
64
84
48
30
ENDCHAR
STARTCHAR char2465
ENCODING 2465
SWIDTH 50 0
DWIDTH 9 0
BBX 9 8 0 1
BITMAP
FF80
1000
5000
5300
4D00
2100
2300
1E00
ENDCHAR
STARTCHAR char2466
ENCODING 2466
SWIDTH 39 0
DWIDTH 7 0
BBX 7 9 0 0
BITMAP
FE
40
40
48
44
44
48
48
30
ENDCHAR
STARTCHAR char2467
ENCODING 2467
SWIDTH 39 0
DWIDTH 7 0
BBX 6 11 1 0
BITMAP
04
04
74
8C
8C
84
44
04
04
04
04
ENDCHAR
STARTCHAR char2468
ENCODING 2468
SWIDTH 50 0
DWIDTH 9 0
BBX 11 8 -1 1
BITMAP
FFE0
0200
2D00
2880
2080
2080
1080
0F00
ENDCHAR
STARTCHAR char2469
ENCODING 2469
SWIDTH 44 0
DWIDTH 8 0
BBX 8 10 0 0
BITMAP
02
73
8A
CA
12
62
1A
0E
06
02
ENDCHAR
STARTCHAR char2470
ENCODING 2470
SWIDTH 39 0
DWIDTH 7 0
BBX 7 9 0 0
BITMAP
FE
40
44
5C
64
44
04
04
04
ENDCHAR
STARTCHAR char2471
ENCODING 2471
SWIDTH 39 0
DWIDTH 7 0
BBX 6 9 1 0
BITMAP
CC
88
78
48
88
68
18
08
08
ENDCHAR
STARTCHAR char2472
ENCODING 2472
SWIDTH 39 0
DWIDTH 7 0
BBX 7 9 0 0
BITMAP
FE
04
04
7C
44
44
44
04
04
ENDCHAR
STARTCHAR char2474
ENCODING 2474
SWIDTH 44 0
DWIDTH 8 0
BBX 8 10 0 0
BITMAP
02
33
4E
EE
32
22
02
02
02
02
ENDCHAR
STARTCHAR char2475
ENCODING 2475
SWIDTH 56 0
DWIDTH 10 0
BBX 10 9 0 0
BITMAP
FFC0
2600
1500
2480
4480
3500
0C00
0400
0400
ENDCHAR
STARTCHAR char2476
ENCODING 2476
SWIDTH 33 0
DWIDTH 6 0
BBX 6 9 0 0
BITMAP
FC
04
3C
44
64
14
0C
04
04
ENDCHAR
STARTCHAR char2477
ENCODING 2477
SWIDTH 50 0
DWIDTH 9 0
BBX 9 8 0 1
BITMAP
FF80
0000
9800
5300
4D00
2100
1100
0E00
ENDCHAR
STARTCHAR char2478
ENCODING 2478
SWIDTH 39 0
DWIDTH 7 0
BBX 7 9 0 0
BITMAP
FE
62
12
3A
46
46
42
22
02
ENDCHAR
STARTCHAR char2479
ENCODING 2479
SWIDTH 39 0
DWIDTH 7 0
BBX 7 9 0 0
BITMAP
FE
24
14
24
44
34
0C
04
04
ENDCHAR
STARTCHAR char2480
ENCODING 2480
SWIDTH 33 0
DWIDTH 6 0
BBX 6 9 0 0
BITMAP
FC
04
3C
44
64
14
2C
34
04
ENDCHAR
STARTCHAR char2482
ENCODING 2482
SWIDTH 44 0
DWIDTH 8 0
BBX 8 9 0 0
BITMAP
FF
02
7E
4A
82
42
22
02
02
ENDCHAR
STARTCHAR char2486
ENCODING 2486
SWIDTH 44 0
DWIDTH 8 0
BBX 8 10 0 0
BITMAP
02
C9
36
12
32
4A
02
02
02
02
ENDCHAR
STARTCHAR char2487
ENCODING 2487
SWIDTH 39 0
DWIDTH 7 0
BBX 7 9 0 0
BITMAP
FE
64
14
2C
44
34
0C
04
04
ENDCHAR
STARTCHAR char2488
ENCODING 2488
SWIDTH 44 0
DWIDTH 8 0
BBX 8 9 0 0
BITMAP
FF
62
12
1E
92
62
02
02
02
ENDCHAR
STARTCHAR char2489
ENCODING 2489
SWIDTH 39 0
DWIDTH 7 0
BBX 8 10 0 -1
BITMAP
FE
38
44
44
04
78
18
04
02
01
ENDCHAR
STARTCHAR char2492
ENCODING 2492
SWIDTH 0 0
DWIDTH 0 0
BBX 2 2 -5 -2
BITMAP
80
C0
ENDCHAR
STARTCHAR char2493
ENCODING 2493
SWIDTH 39 0
DWIDTH 7 0
BBX 8 10 0 -1
BITMAP
F0
38
44
44
04
78
10
0C
02
01
ENDCHAR
STARTCHAR char2494
ENCODING 2494
SWIDTH 16 0
DWIDTH 3 0
BBX 4 10 -1 0
BITMAP
20
F0
20
20
20
20
20
20
20
20
ENDCHAR
STARTCHAR char2495
ENCODING 2495
SWIDTH 16 0
DWIDTH 3 0
BBX 8 13 0 0
BITMAP
18
66
81
80
E0
40
40
40
40
40
40
40
40
ENDCHAR
STARTCHAR char2496
ENCODING 2496
SWIDTH 16 0
DWIDTH 3 0
BBX 9 13 -6 0
BITMAP
7800
8400
F200
0900
0B80
0100
0100
0100
0100
0100
0100
0100
0100
ENDCHAR
STARTCHAR char2497
ENCODING 2497
SWIDTH 0 0
DWIDTH 0 0
BBX 5 4 -4 -3
BITMAP
20
E0
F8
08
ENDCHAR
STARTCHAR char2498
ENCODING 2498
SWIDTH 0 0
DWIDTH 0 0
BBX 5 4 -3 -3
BITMAP
E0
80
F0
08
ENDCHAR
STARTCHAR char2499
ENCODING 2499
SWIDTH 0 0
DWIDTH 0 0
BBX 3 4 -5 -4
BITMAP
60
80
C0
20
ENDCHAR
STARTCHAR char2500
ENCODING 2500
SWIDTH 0 0
DWIDTH 0 0
BBX 5 6 -4 -5
BITMAP
20
60
60
D0
C8
60
ENDCHAR
STARTCHAR char2503
ENCODING 2503
SWIDTH 28 0
DWIDTH 5 0
BBX 5 9 0 0
BITMAP
F8
20
40
40
40
80
40
40
38
ENDCHAR
STARTCHAR char2504
ENCODING 2504
SWIDTH 28 0
DWIDTH 5 0
BBX 6 13 -1 0
BITMAP
80
80
78
08
7C
10
20
20
20
40
20
20
1C
ENDCHAR
STARTCHAR char2507
ENCODING 2507
SWIDTH 0 0
DWIDTH 0 0
BBX 14 10 -7 0
BITMAP
0008
F07C
2018
4008
8008
8008
8008
8008
4008
3008
ENDCHAR
STARTCHAR char2508
ENCODING 2508
SWIDTH 0 0
DWIDTH 0 0
BBX 14 13 -7 0
BITMAP
0200
0200
01F0
0010
F83C
2010
4010
4010
8010
8010
4010
4010
3800
ENDCHAR
STARTCHAR char2509
ENCODING 2509
SWIDTH 0 0
DWIDTH 0 0
BBX 2 2 -3 -3
BITMAP
80
40
ENDCHAR
STARTCHAR char2510
ENCODING 2510
SWIDTH 33 0
DWIDTH 6 0
BBX 6 9 0 0
BITMAP
70
88
A8
90
60
18
04
04
04
ENDCHAR
STARTCHAR char2519
ENCODING 2519
SWIDTH 22 0
DWIDTH 4 0
BBX 8 13 -4 0
BITMAP
80
80
7C
04
0F
04
04
04
04
04
04
04
04
ENDCHAR
STARTCHAR char2524
ENCODING 2524
SWIDTH 50 0
DWIDTH 9 0
BBX 9 11 0 -2
BITMAP
FF80
1000
5000
5300
4D00
2100
2300
1E00
0000
0800
0C00
ENDCHAR
STARTCHAR char2525
ENCODING 2525
SWIDTH 39 0
DWIDTH 7 0
BBX 7 11 0 -2
BITMAP
FE
40
40
48
44
44
48
48
30
20
30
ENDCHAR
STARTCHAR char2527
ENCODING 2527
SWIDTH 39 0
DWIDTH 7 0
BBX 7 9 0 0
BITMAP
FE
24
14
24
44
34
2C
34
04
ENDCHAR
STARTCHAR char2528
ENCODING 2528
SWIDTH 56 0
DWIDTH 10 0
BBX 10 14 0 -4
BITMAP
0500
9DC0
6500
1D00
6500
3700
0D00
0500
0500
0500
0800
1800
0400
0200
ENDCHAR
STARTCHAR char2529
ENCODING 2529
SWIDTH 44 0
DWIDTH 8 0
BBX 8 14 2 -4
BITMAP
80
80
C0
38
64
54
92
14
38
08
06
0D
0B
07
ENDCHAR
STARTCHAR char2530
ENCODING 2530
SWIDTH 0 0
DWIDTH 0 0
BBX 5 6 -6 -5
BITMAP
80
60
10
E8
30
60
ENDCHAR
STARTCHAR char2531
ENCODING 2531
SWIDTH 0 0
DWIDTH 0 0
BBX 8 8 -6 -5
BITMAP
08
0E
81
EF
1B
F6
30
E0
ENDCHAR
STARTCHAR char2534
ENCODING 2534
SWIDTH 44 0
DWIDTH 8 0
BBX 6 6 1 1
BITMAP
30
48
84
84
88
70
ENDCHAR
STARTCHAR char2535
ENCODING 2535
SWIDTH 39 0
DWIDTH 7 0
BBX 5 9 1 0
BITMAP
80
80
60
10
10
08
48
90
60
ENDCHAR
STARTCHAR char2536
ENCODING 2536
SWIDTH 44 0
DWIDTH 8 0
BBX 7 10 1 -1
BITMAP
40
60
18
08
08
D8
20
18
04
02
ENDCHAR
STARTCHAR char2537
ENCODING 2537
SWIDTH 44 0
DWIDTH 8 0
BBX 8 7 0 1
BITMAP
1E
92
91
41
41
21
1E
ENDCHAR
STARTCHAR char2538
ENCODING 2538
SWIDTH 44 0
DWIDTH 8 0
BBX 5 9 1 0
BITMAP
F8
88
88
50
30
C8
88
C8
30
ENDCHAR
STARTCHAR char2539
ENCODING 2539
SWIDTH 44 0
DWIDTH 8 0
BBX 6 9 1 0
BITMAP
10
30
50
8C
90
A0
A0
50
30
ENDCHAR
STARTCHAR char2540
ENCODING 2540
SWIDTH 44 0
DWIDTH 8 0
BBX 7 8 0 1
BITMAP
20
10
96
9E
42
62
32
0C
ENDCHAR
STARTCHAR char2541
ENCODING 2541
SWIDTH 44 0
DWIDTH 8 0
BBX 5 8 2 0
BITMAP
60
90
90
88
F8
08
08
08
ENDCHAR
STARTCHAR char2542
ENCODING 2542
SWIDTH 44 0
DWIDTH 8 0
BBX 7 8 1 1
BITMAP
80
80
EE
90
90
90
A0
40
ENDCHAR
STARTCHAR char2543
ENCODING 2543
SWIDTH 44 0
DWIDTH 8 0
BBX 7 8 0 0
BITMAP
80
40
30
0C
32
4A
4A
2C
ENDCHAR
STARTCHAR char2544
ENCODING 2544
SWIDTH 33 0
DWIDTH 6 0
BBX 7 9 0 0
BITMAP
FE
04
3C
54
6C
14
0C
04
04
ENDCHAR
STARTCHAR char2545
ENCODING 2545
SWIDTH 33 0
DWIDTH 6 0
BBX 7 9 0 0
BITMAP
FE
04
3C
44
64
14
6C
14
04
ENDCHAR
STARTCHAR char2546
ENCODING 2546
SWIDTH 39 0
DWIDTH 7 0
BBX 7 8 0 2
BITMAP
C0
30
08
04
04
02
02
02
ENDCHAR
STARTCHAR char2547
ENCODING 2547
SWIDTH 33 0
DWIDTH 6 0
BBX 6 7 0 2
BITMAP
40
40
E0
44
44
48
30
ENDCHAR
STARTCHAR char2548
ENCODING 2548
SWIDTH 39 0
DWIDTH 7 0
BBX 6 7 1 3
BITMAP
04
04
04
08
10
30
E0
ENDCHAR
STARTCHAR char2549
ENCODING 2549
SWIDTH 44 0
DWIDTH 8 0
BBX 8 8 1 1
BITMAP
01
01
02
E6
94
98
30
40
ENDCHAR
STARTCHAR char2550
ENCODING 2550
SWIDTH 50 0
DWIDTH 9 0
BBX 9 9 0 0
BITMAP
0080
0080
3100
4900
0900
1A00
E400
C800
3000
ENDCHAR
STARTCHAR char2551
ENCODING 2551
SWIDTH 16 0
DWIDTH 3 0
BBX 1 8 1 1
BITMAP
80
80
80
80
80
80
80
80
ENDCHAR
STARTCHAR char2552
ENCODING 2552
SWIDTH 33 0
DWIDTH 6 0
BBX 5 8 0 1
BITMAP
80
40
40
58
68
68
48
08
ENDCHAR
STARTCHAR char2553
ENCODING 2553
SWIDTH 22 0
DWIDTH 4 0
BBX 5 6 1 2
BITMAP
70
88
88
88
88
70
ENDCHAR
STARTCHAR char2554
ENCODING 2554
SWIDTH 33 0
DWIDTH 6 0
BBX 8 5 0 7
BITMAP
01
02
B4
44
38
ENDCHAR
STARTCHAR char2555
ENCODING 2555
SWIDTH 33 0
DWIDTH 6 0
BBX 4 7 1 -3
BITMAP
40
80
80
80
40
20
10
ENDCHAR
STARTCHAR char2561
ENCODING 2561
SWIDTH 0 0
DWIDTH 0 0
BBX 5 3 -5 11
BITMAP
20
88
F0
ENDCHAR
STARTCHAR char2562
ENCODING 2562
SWIDTH 0 0
DWIDTH 0 0
BBX 2 2 -2 11
BITMAP
C0
C0
ENDCHAR
STARTCHAR char2563
ENCODING 2563
SWIDTH 33 0
DWIDTH 6 0
BBX 4 9 1 1
BITMAP
E0
90
90
E0
00
40
B0
90
E0
ENDCHAR
STARTCHAR char2565
ENCODING 2565
SWIDTH 21 0
DWIDTH 14 0
BBX 14 10 0 0
BITMAP
C01C
2710
2910
3130
31D0
6190
6310
4310
0610
0010
ENDCHAR
STARTCHAR char2566
ENCODING 2566
SWIDTH 38 0
DWIDTH 17 0
BBX 18 10 0 0
BITMAP
C01FC0
271200
291200
313200
31D200
619200
631000
431000
061000
001000
ENDCHAR
STARTCHAR char2567
ENCODING 2567
SWIDTH 21 0
DWIDTH 14 0
BBX 15 14 -1 0
BITMAP
1F00
1100
1100
3000
FFFE
3208
3208
3188
31F8
3300
3400
3600
3308
30F0
ENDCHAR
STARTCHAR char2568
ENCODING 2568
SWIDTH 27 0
DWIDTH 15 0
BBX 15 14 0 0
BITMAP
01E0
0110
0210
0010
FFFE
6090
2090
1090
1F90
2010
4010
4010
3110
0F10
ENDCHAR
STARTCHAR char2569
ENCODING 2569
SWIDTH 10 0
DWIDTH 12 0
BBX 12 16 0 -2
BITMAP
1F80
20C0
4040
4040
FFF0
4040
40C0
4180
7F00
6180
2080
3080
1880
0F00
0000
1F80
ENDCHAR
STARTCHAR char2570
ENCODING 2570
SWIDTH 10 0
DWIDTH 12 0
BBX 12 18 0 -4
BITMAP
1F80
20C0
4040
4040
FFF0
4040
40C0
4180
7F00
6180
2080
3080
1880
0F00
0000
1F80
0000
1F80
ENDCHAR
STARTCHAR char2575
ENCODING 2575
SWIDTH 4 0
DWIDTH 11 0
BBX 11 15 0 0
BITMAP
3800
0400
0200
0100
0000
FFE0
6080
2080
1080
1F80
2000
4000
4000
3100
0F00
ENDCHAR
STARTCHAR char2576
ENCODING 2576
SWIDTH 21 0
DWIDTH 14 0
BBX 14 16 0 0
BITMAP
0200
0380
0240
07A0
0160
0110
C09C
2790
2910
3130
31D0
6190
6310
4310
0610
0010
ENDCHAR
STARTCHAR char2579
ENCODING 2579
SWIDTH 4 0
DWIDTH 11 0
BBX 12 15 0 0
BITMAP
1FC0
3000
6000
4000
4000
FFF0
4040
4080
4180
7E00
4180
2080
2080
1080
0F00
ENDCHAR
STARTCHAR char2580
ENCODING 2580
SWIDTH 21 0
DWIDTH 14 0
BBX 14 15 0 1
BITMAP
08C0
0720
0120
0100
0000
C01C
2710
2910
3130
31D0
6190
6310
4310
0610
0010
ENDCHAR
STARTCHAR char2581
ENCODING 2581
SWIDTH 4 0
DWIDTH 11 0
BBX 11 10 0 0
BITMAP
FFE0
0080
0080
3C80
4780
4100
4300
4680
3C80
0080
ENDCHAR
STARTCHAR char2582
ENCODING 2582
SWIDTH 56 0
DWIDTH 10 0
BBX 10 10 0 0
BITMAP
E1C0
2100
2100
3F00
2100
4100
4100
3F00
0100
0100
ENDCHAR
STARTCHAR char2583
ENCODING 2583
SWIDTH 4 0
DWIDTH 11 0
BBX 11 10 0 0
BITMAP
FFE0
0480
0480
0480
7C80
4480
4480
4480
6480
3880
ENDCHAR
STARTCHAR char2584
ENCODING 2584
SWIDTH 10 0
DWIDTH 12 0
BBX 12 10 0 0
BITMAP
C070
2440
2640
4440
4440
4440
4440
7BC0
0040
0040
ENDCHAR
STARTCHAR char2585
ENCODING 2585
SWIDTH 56 0
DWIDTH 10 0
BBX 11 10 0 0
BITMAP
FFE0
4000
4000
7F00
0080
3880
4500
4200
7D00
0180
ENDCHAR
STARTCHAR char2586
ENCODING 2586
SWIDTH 4 0
DWIDTH 11 0
BBX 11 10 0 0
BITMAP
FFE0
0080
0080
6080
FF80
2080
2080
2080
1180
0F00
ENDCHAR
STARTCHAR char2587
ENCODING 2587
SWIDTH 4 0
DWIDTH 11 0
BBX 11 10 0 0
BITMAP
FFE0
0080
0080
7F80
4000
4000
7F00
4880
4880
7F00
ENDCHAR
STARTCHAR char2588
ENCODING 2588
SWIDTH 56 0
DWIDTH 10 0
BBX 11 10 0 0
BITMAP
FFE0
0180
0180
6180
E180
7F80
2180
2180
2180
2180
ENDCHAR
STARTCHAR char2589
ENCODING 2589
SWIDTH 56 0
DWIDTH 10 0
BBX 10 10 0 0
BITMAP
FFC0
4100
2300
1E00
6300
0100
0100
6300
1C00
0800
ENDCHAR
STARTCHAR char2590
ENCODING 2590
SWIDTH 56 0
DWIDTH 10 0
BBX 10 10 0 0
BITMAP
FFC0
2100
1100
7F00
4000
4000
3F00
1000
0800
0700
ENDCHAR
STARTCHAR char2591
ENCODING 2591
SWIDTH 56 0
DWIDTH 10 0
BBX 11 10 0 0
BITMAP
FFE0
0100
0100
0700
1800
2000
4000
4000
3100
1E00
ENDCHAR
STARTCHAR char2592
ENCODING 2592
SWIDTH 4 0
DWIDTH 11 0
BBX 11 10 0 0
BITMAP
FFE0
0400
0400
3F00
6180
4080
4080
4080
6180
1F00
ENDCHAR
STARTCHAR char2593
ENCODING 2593
SWIDTH 56 0
DWIDTH 10 0
BBX 11 10 0 0
BITMAP
FFE0
0100
0300
7E00
0300
0100
7880
4700
4300
3E00
ENDCHAR
STARTCHAR char2594
ENCODING 2594
SWIDTH 56 0
DWIDTH 10 0
BBX 11 10 0 0
BITMAP
FFE0
0080
6080
E080
7F80
2000
2300
3480
1880
0F00
ENDCHAR
STARTCHAR char2595
ENCODING 2595
SWIDTH 56 0
DWIDTH 10 0
BBX 11 10 0 0
BITMAP
FFE0
1800
0600
0380
3E00
6200
4000
4000
6080
1F00
ENDCHAR
STARTCHAR char2596
ENCODING 2596
SWIDTH 56 0
DWIDTH 10 0
BBX 11 10 0 0
BITMAP
FFE0
0100
0100
0300
7E00
0300
0100
0080
6100
1E00
ENDCHAR
STARTCHAR char2597
ENCODING 2597
SWIDTH 56 0
DWIDTH 10 0
BBX 10 10 0 0
BITMAP
FFC0
2100
2100
2100
7F00
4100
4100
2700
1D00
0100
ENDCHAR
STARTCHAR char2598
ENCODING 2598
SWIDTH 4 0
DWIDTH 11 0
BBX 11 10 0 0
BITMAP
FFE0
0080
0080
6080
7F80
2000
2000
2000
1080
0F00
ENDCHAR
STARTCHAR char2599
ENCODING 2599
SWIDTH 56 0
DWIDTH 10 0
BBX 10 10 0 0
BITMAP
FFC0
2100
2100
2100
4100
4100
4100
3F00
0100
0100
ENDCHAR
STARTCHAR char2600
ENCODING 2600
SWIDTH 56 0
DWIDTH 10 0
BBX 10 10 0 0
BITMAP
FFC0
0800
0800
1C00
2300
4100
4080
4080
4100
2200
ENDCHAR
STARTCHAR char2602
ENCODING 2602
SWIDTH 56 0
DWIDTH 10 0
BBX 11 10 0 0
BITMAP
E1E0
2100
2100
2100
6100
4100
4100
3F00
0100
0100
ENDCHAR
STARTCHAR char2603
ENCODING 2603
SWIDTH 56 0
DWIDTH 10 0
BBX 11 10 0 0
BITMAP
FFE0
0180
0180
7F80
4000
4000
4F00
3080
3180
0F00
ENDCHAR
STARTCHAR char2604
ENCODING 2604
SWIDTH 56 0
DWIDTH 10 0
BBX 10 10 0 0
BITMAP
FFC0
4100
2100
3100
1F00
2100
4100
4300
3F00
0100
ENDCHAR
ENDFONT
